<svg width="25" height="25" viewBox="0 0 25 25" fill="none" xmlns="http://www.w3.org/2000/svg">
<path d="M9.04556 24.7322C5.3248 24.7108 2.24707 17.1155 2.24707 13.2474C2.24707 6.9288 6.98706 5.5455 8.81382 5.5455C9.63706 5.5455 10.5161 5.86879 11.2915 6.15487C11.8336 6.35443 12.3944 6.56044 12.7062 6.56044C12.8929 6.56044 13.3328 6.38519 13.7212 6.23143C14.5495 5.9017 15.5801 5.49188 16.7803 5.49188C16.7825 5.49188 16.7853 5.49188 16.7874 5.49188C17.6836 5.49188 20.4009 5.68856 22.0346 8.14188L22.4172 8.71693L21.8665 9.13251C21.0797 9.72616 19.6442 10.8091 19.6442 12.9541C19.6442 15.4947 21.27 16.4718 22.051 16.9417C22.3958 17.1491 22.7527 17.363 22.7527 17.8307C22.7527 18.1362 20.3151 24.6943 16.7753 24.6943C15.9091 24.6943 15.2969 24.434 14.7568 24.2044C14.2104 23.9719 13.739 23.7717 12.9601 23.7717C12.5653 23.7717 12.066 23.9583 11.5375 24.1565C10.8151 24.4261 9.99756 24.7322 9.06987 24.7322H9.04556Z" fill="white"/>
<path d="M17.1552 0C17.2474 3.32402 14.8702 5.63008 12.4958 5.48545C12.1045 2.83276 14.8699 0 17.1552 0Z" fill="white"/>
</svg>
