<svg width="40" height="40" viewBox="0 0 40 40" fill="none" xmlns="http://www.w3.org/2000/svg">
<rect width="40" height="40" rx="10" fill="#CDCFCF"/>
<path fill-rule="evenodd" clip-rule="evenodd" d="M33.585 20.3775C33.585 20.6277 33.4856 20.8677 33.3086 21.0446C33.1317 21.2215 32.8918 21.3209 32.6416 21.3209L10.3906 21.3209L16.3284 27.2567C16.5055 27.4339 16.605 27.6741 16.605 27.9247C16.605 28.1752 16.5055 28.4154 16.3284 28.5926C16.1512 28.7697 15.911 28.8693 15.6604 28.8693C15.4099 28.8693 15.1697 28.7697 14.9925 28.5926L7.44534 21.0454C7.35748 20.9578 7.28778 20.8537 7.24022 20.7391C7.19266 20.6245 7.16818 20.5016 7.16818 20.3775C7.16818 20.2534 7.19266 20.1305 7.24022 20.0159C7.28778 19.9013 7.35748 19.7972 7.44534 19.7096L14.9925 12.1624C15.1697 11.9853 15.4099 11.8857 15.6604 11.8857C15.911 11.8857 16.1512 11.9853 16.3284 12.1624C16.5055 12.3395 16.605 12.5798 16.605 12.8303C16.605 13.0808 16.5055 13.3211 16.3284 13.4983L10.3906 19.4341L32.6416 19.4341C32.8918 19.4341 33.1317 19.5335 33.3086 19.7104C33.4856 19.8873 33.585 20.1273 33.585 20.3775Z" fill="white"/>
</svg>
