<svg width="40" height="40" viewBox="0 0 40 40" fill="none" xmlns="http://www.w3.org/2000/svg">
<rect x="40" y="40" width="40" height="40" rx="10" transform="rotate(-180 40 40)" fill="#CDCFCF"/>
<path fill-rule="evenodd" clip-rule="evenodd" d="M6.41504 19.6225C6.41504 19.3723 6.51443 19.1323 6.69135 18.9554C6.86828 18.7785 7.10823 18.6791 7.35844 18.6791L29.6094 18.6791L23.6716 12.7433C23.4945 12.5661 23.395 12.3259 23.395 12.0753C23.395 11.8248 23.4945 11.5846 23.6716 11.4074C23.8488 11.2303 24.089 11.1307 24.3396 11.1307C24.5901 11.1307 24.8303 11.2303 25.0075 11.4074L32.5547 18.9546C32.6425 19.0422 32.7122 19.1463 32.7598 19.2609C32.8073 19.3755 32.8318 19.4984 32.8318 19.6225C32.8318 19.7466 32.8073 19.8695 32.7598 19.9841C32.7122 20.0987 32.6425 20.2028 32.5547 20.2904L25.0075 27.8376C24.8303 28.0147 24.5901 28.1143 24.3396 28.1143C24.089 28.1143 23.8488 28.0147 23.6716 27.8376C23.4945 27.6605 23.395 27.4202 23.395 27.1697C23.395 26.9192 23.4945 26.6789 23.6716 26.5017L29.6094 20.5659L7.35844 20.5659C7.10823 20.5659 6.86828 20.4665 6.69135 20.2896C6.51443 20.1127 6.41504 19.8727 6.41504 19.6225Z" fill="white"/>
</svg>
