<svg width="25" height="25" viewBox="0 0 25 25" fill="none" xmlns="http://www.w3.org/2000/svg">
<g clip-path="url(#clip0)">
<path d="M22.6569 10.7179L4.37884 0.269762C4.06372 0.0897619 3.71289 0 3.36206 0C3.35492 0 3.34789 0.000952381 3.34087 0.000952381C3.29373 0.00142857 3.2467 0.00380952 3.1998 0.0075C3.17861 0.00916667 3.15753 0.0114286 3.13634 0.0138095C3.09968 0.0178571 3.06313 0.0229762 3.0267 0.0290476C3.01349 0.0313095 3.00015 0.0320238 2.98694 0.0345238L2.98765 0.0354762C2.75992 0.0775 2.53765 0.157738 2.33111 0.277619C1.69849 0.644643 1.30908 1.32071 1.30908 2.05202V22.9481C1.30908 23.6794 1.69849 24.3555 2.33111 24.7225C2.53753 24.8424 2.7598 24.9227 2.98753 24.9648L2.98694 24.9656C2.99884 24.9679 3.01087 24.9686 3.02265 24.9705C3.06182 24.9771 3.10111 24.9826 3.14051 24.9868C3.16027 24.9889 3.17992 24.9911 3.19968 24.9926C3.24599 24.9963 3.29218 24.9985 3.33861 24.999C3.34646 24.9992 3.3542 25.0001 3.36206 25.0001C3.71289 25.0001 4.06372 24.9104 4.37884 24.7304L22.6569 14.2821C23.296 13.9168 23.6904 13.2373 23.6904 12.501C23.6904 12.501 23.6904 12.5006 23.6904 12.5005C23.6904 12.5005 23.6904 12.5001 23.6904 12.5C23.6904 12.5 23.6904 12.4996 23.6904 12.4995C23.6904 12.4995 23.6904 12.4992 23.6904 12.499C23.6904 11.7629 23.296 11.0833 22.6569 10.7179ZM15.4286 8.64298L13.6112 11.0271L8.98742 4.96095L15.4286 8.64298ZM21.7708 12.7318L8.98742 20.039L16.9915 9.53833L21.7706 12.2701C21.8534 12.3174 21.9048 12.406 21.9048 12.5008C21.9047 12.5961 21.8533 12.6846 21.7708 12.7318Z" fill="white"/>
</g>
<defs>
<clipPath id="clip0">
<rect width="25" height="25" fill="white"/>
</clipPath>
</defs>
</svg>
