<svg width="728" height="544" viewBox="0 0 728 544" fill="none" xmlns="http://www.w3.org/2000/svg">
<path d="M0 477.391H728V477.755H0V477.391Z" fill="#EBEBEB"/>
<path d="M72.9458 500.853H121.168V501.217H72.9458V500.853Z" fill="#EBEBEB"/>
<path d="M245.744 504.819H258.396V505.183H245.744V504.819Z" fill="#EBEBEB"/>
<path d="M122.624 487.323H150.565V487.687H122.624V487.323Z" fill="#EBEBEB"/>
<path d="M588.734 489.77H651.619V490.134H588.734V489.77Z" fill="#EBEBEB"/>
<path d="M566.544 489.77H575.761V490.134H566.544V489.77Z" fill="#EBEBEB"/>
<path d="M400.182 495.926H536.58V496.29H400.182V495.926Z" fill="#EBEBEB"/>
<path d="M382.928 412.359H664.067C666.269 412.355 668.38 411.476 669.936 409.915C671.492 408.354 672.366 406.239 672.366 404.033V8.25301C672.347 6.06002 671.465 3.96316 669.911 2.4179C668.357 0.872629 666.257 0.00375671 664.067 0H382.928C380.723 0 378.608 0.877192 377.049 2.4386C375.49 4.00002 374.614 6.11774 374.614 8.32591V404.033C374.614 406.241 375.49 408.359 377.049 409.92C378.608 411.482 380.723 412.359 382.928 412.359ZM664.067 0.291627C666.173 0.295489 668.191 1.13598 669.679 2.62861C671.167 4.12124 672.002 6.14404 672.002 8.25301V404.033C672.002 406.142 671.167 408.165 669.679 409.657C668.191 411.15 666.173 411.99 664.067 411.994H382.928C380.821 411.99 378.801 411.15 377.311 409.658C375.821 408.166 374.982 406.143 374.978 404.033V8.25301C374.982 6.1427 375.821 4.11993 377.311 2.62772C378.801 1.1355 380.821 0.295481 382.928 0.291627H664.067Z" fill="#EBEBEB"/>
<path d="M67.9805 412.359H349.134C351.338 412.355 353.45 411.477 355.009 409.916C356.567 408.355 357.444 406.24 357.448 404.033V8.25301C357.425 6.05869 356.539 3.96185 354.983 2.41698C353.427 0.872119 351.325 0.00371573 349.134 0H67.9805C65.7932 0.00758883 63.697 0.878157 62.1462 2.42301C60.5954 3.96787 59.715 6.06254 59.6959 8.25301V404.033C59.6959 406.236 60.5678 408.349 62.1206 409.91C63.6735 411.47 65.7806 412.351 67.9805 412.359ZM349.134 0.291627C351.241 0.295481 353.261 1.1355 354.751 2.62772C356.241 4.11993 357.08 6.1427 357.084 8.25301V404.033C357.08 406.143 356.241 408.166 354.751 409.658C353.261 411.15 351.241 411.99 349.134 411.994H67.9805C65.8733 411.99 63.8535 411.15 62.3635 409.658C60.8734 408.166 60.0346 406.143 60.0308 404.033V8.25301C60.0346 6.1427 60.8734 4.11993 62.3635 2.62772C63.8535 1.1355 65.8733 0.295481 67.9805 0.291627H349.134Z" fill="#EBEBEB"/>
<path d="M112.199 36.1323H395.814V285.618H112.199V36.1323Z" fill="#E6E6E6"/>
<path d="M104.788 36.1323H392.348V285.618H104.788V36.1323Z" fill="#F0F0F0"/>
<path d="M112.199 285.605H395.814V292.487H112.199V285.605Z" fill="#E6E6E6"/>
<path d="M92.4705 285.605H380.031V292.487H92.4705V285.605Z" fill="#F0F0F0"/>
<path d="M115.155 275.253L115.155 46.502L381.996 46.502V275.253H115.155Z" fill="#FAFAFA"/>
<path d="M346.28 275.239L316.855 46.502H265.909L295.35 275.239H346.28Z" fill="white"/>
<path d="M284.415 275.239L254.975 46.502H235.115L264.555 275.239H284.415Z" fill="white"/>
<path d="M115.141 275.238L115.141 46.4868H116.452L116.452 275.238H115.141Z" fill="#E6E6E6"/>
<path opacity="0.5" d="M102.357 68.2985H385.971L386.917 50.5239H103.303L102.357 68.2985Z" fill="#E0E0E0"/>
<path opacity="0.5" d="M102.357 97.5071H385.971L386.917 79.7471H103.303L102.357 97.5071Z" fill="#E0E0E0"/>
<path opacity="0.5" d="M102.357 126.713H385.971L386.917 108.953H103.303L102.357 126.713Z" fill="#E0E0E0"/>
<path opacity="0.5" d="M102.357 155.931H385.971L386.917 138.157H103.303L102.357 155.931Z" fill="#E0E0E0"/>
<path opacity="0.5" d="M102.357 185.138H385.971L386.917 167.363H103.303L102.357 185.138Z" fill="#E0E0E0"/>
<path opacity="0.5" d="M102.357 214.346H385.971L386.917 196.572H103.303L102.357 214.346Z" fill="#E0E0E0"/>
<path d="M554.008 88.5366H642.606V263.964H554.008V88.5366Z" fill="#E0E0E0"/>
<path d="M548.752 88.5366H639.097V263.964H548.752V88.5366Z" fill="#F5F5F5"/>
<path d="M631.54 98.6866V253.817H556.338V98.6866H631.54Z" fill="white"/>
<path d="M435.723 61.769H524.32V237.197H435.723V61.769Z" fill="#E0E0E0"/>
<path d="M430.466 61.769H520.811V237.197H430.466V61.769Z" fill="#F5F5F5"/>
<path d="M513.24 71.9151V227.045H438.023V71.9151H513.24Z" fill="white"/>
<path d="M451.462 315.716H488.75V477.393H451.462V315.716Z" fill="#E6E6E6"/>
<path d="M458.538 477.391H451.462V460.929H465.964L458.538 477.391Z" fill="#F0F0F0"/>
<path d="M590.845 315.716H628.133V477.393H590.845V315.716Z" fill="#E6E6E6"/>
<path d="M451.462 315.716H597.033V467.288H451.462V315.716Z" fill="#F0F0F0"/>
<path d="M521.874 325.789V446.697H456.966V325.789H521.874Z" fill="#E6E6E6"/>
<path d="M591.544 325.789V446.697H526.635V325.789H591.544Z" fill="#E6E6E6"/>
<path d="M552.654 330.41H565.496C570.878 330.464 576.104 328.604 580.245 325.161H537.905C542.046 328.604 547.272 330.464 552.654 330.41Z" fill="#F0F0F0"/>
<path d="M482.329 330.41H495.171C500.553 330.466 505.78 328.606 509.921 325.161H467.58C471.721 328.604 476.948 330.464 482.329 330.41Z" fill="#F0F0F0"/>
<path d="M589.942 477.391H597.033V460.929H582.517L589.942 477.391Z" fill="#F0F0F0"/>
<path d="M562.861 300.286C562.861 300.286 561.754 315.713 519.312 315.713C476.869 315.713 475.763 300.286 475.763 300.286H562.861Z" fill="#E6E6E6"/>
<path d="M395.566 369.447L76.9641 369.447V342.734L395.566 342.734V369.447Z" fill="#EBEBEB"/>
<path d="M395.552 369.447H305.119V342.734H395.552V369.447Z" fill="#E0E0E0"/>
<path d="M96.0232 477.391H76.9496L76.9496 369.445H96.0232L96.0232 477.391Z" fill="#EBEBEB"/>
<path d="M96.0234 376.927L76.9498 373.195V369.447H96.0234V376.927Z" fill="#E0E0E0"/>
<path d="M395.566 477.391H376.493V369.445H395.566V477.391Z" fill="#E0E0E0"/>
<path d="M324.193 477.391H305.119V369.445H324.193V477.391Z" fill="#EBEBEB"/>
<path d="M324.193 376.927L305.119 373.195V369.447H324.193V376.927Z" fill="#E0E0E0"/>
<path d="M155.734 477.391H136.66V369.445H155.734V477.391Z" fill="#E0E0E0"/>
<path d="M364 543.242C208.088 543.242 81.6962 535.852 81.6962 526.736C81.6962 517.62 208.088 510.23 364 510.23C519.912 510.23 646.304 517.62 646.304 526.736C646.304 535.852 519.912 543.242 364 543.242Z" fill="#F5F5F5"/>
<path d="M389.465 108.382H563.151C565.901 108.353 568.627 108.898 571.156 109.982C573.684 111.065 575.96 112.663 577.839 114.675C579.718 116.687 581.158 119.068 582.068 121.667C582.979 124.266 583.339 127.026 583.127 129.773L558.23 500.721C557.76 506.499 555.159 511.896 550.933 515.858C546.707 519.821 541.159 522.065 535.37 522.155H361.684C358.93 522.186 356.199 521.642 353.667 520.557C351.135 519.471 348.857 517.869 346.978 515.851C345.099 513.834 343.662 511.446 342.757 508.841C341.852 506.236 341.499 503.47 341.722 500.721L366.62 129.773C367.1 124.004 369.703 118.621 373.925 114.668C378.147 110.714 383.686 108.474 389.465 108.382Z" fill="#27C9CF"/>
<path opacity="0.3" d="M389.465 108.382H563.151C565.901 108.353 568.627 108.898 571.156 109.982C573.684 111.065 575.96 112.663 577.839 114.675C579.718 116.687 581.158 119.068 582.068 121.667C582.979 124.266 583.339 127.026 583.127 129.773L558.23 500.721C557.76 506.499 555.159 511.896 550.933 515.858C546.707 519.821 541.159 522.065 535.37 522.155H361.684C358.93 522.186 356.199 521.642 353.667 520.557C351.135 519.471 348.857 517.869 346.978 515.851C345.099 513.834 343.662 511.446 342.757 508.841C341.852 506.236 341.499 503.47 341.722 500.721L366.62 129.773C367.1 124.004 369.703 118.621 373.925 114.668C378.147 110.714 383.686 108.474 389.465 108.382Z" fill="white"/>
<path d="M582.914 187.863L584.368 187.961L582.021 222.95L580.568 222.853L582.914 187.863Z" fill="#27C9CF"/>
<path d="M579.278 241.247L580.731 241.345L579.677 257.028L578.223 256.93L579.278 241.247Z" fill="#27C9CF"/>
<path d="M545.62 504.511C545.502 505.925 545.902 507.334 546.746 508.473C547.59 509.613 548.82 510.405 550.206 510.702C551.591 510.999 553.037 510.78 554.273 510.086C555.509 509.392 556.45 508.27 556.919 506.931C557.643 504.957 558.084 502.891 558.229 500.793L583.127 129.772C583.274 127.683 583.108 125.584 582.632 123.546C582.339 122.156 581.551 120.921 580.414 120.073C579.277 119.224 577.87 118.82 576.456 118.937C575.043 119.053 573.721 119.682 572.738 120.705C571.754 121.728 571.177 123.075 571.115 124.493L545.62 504.511Z" fill="#27C9CF"/>
<path d="M361.685 515.199H523.053C527.06 515.09 530.887 513.513 533.81 510.766C536.732 508.02 538.547 504.294 538.909 500.297L563.807 129.364C563.966 127.572 563.748 125.768 563.165 124.067C562.583 122.366 561.65 120.807 560.426 119.49C559.202 118.174 557.716 117.131 556.063 116.428C554.411 115.725 552.629 115.378 550.834 115.409H389.465C385.461 115.517 381.635 117.093 378.713 119.836C375.791 122.58 373.975 126.302 373.609 130.297L348.712 501.245C348.557 503.035 348.778 504.838 349.363 506.536C349.947 508.235 350.88 509.793 352.103 511.108C353.326 512.423 354.81 513.467 356.46 514.171C358.111 514.876 359.891 515.226 361.685 515.199ZM550.834 116.969C552.415 116.94 553.984 117.245 555.44 117.865C556.896 118.484 558.205 119.403 559.282 120.563C560.359 121.723 561.18 123.097 561.691 124.596C562.202 126.094 562.392 127.684 562.249 129.261L537.351 500.137C537.028 503.743 535.393 507.105 532.757 509.583C530.121 512.062 526.668 513.484 523.053 513.58H361.685C360.103 513.609 358.534 513.305 357.078 512.685C355.623 512.066 354.314 511.147 353.237 509.987C352.16 508.827 351.339 507.453 350.827 505.954C350.316 504.456 350.126 502.866 350.27 501.288L375.167 130.355C375.491 126.749 377.126 123.387 379.762 120.908C382.398 118.43 385.851 117.007 389.465 116.911L550.834 116.969Z" fill="white"/>
<g opacity="0.5">
<path opacity="0.5" d="M401.84 283.741C377.225 257.686 380.858 214.237 409.955 186.694C439.052 159.152 482.594 157.946 507.208 184.001C531.823 210.056 528.19 253.505 499.093 281.048C469.996 308.59 426.454 309.796 401.84 283.741Z" fill="#27C9CF"/>
<path opacity="0.5" d="M412.411 273.792C392.725 252.945 395.632 218.179 418.903 196.141C442.174 174.102 476.997 173.137 496.683 193.984C516.369 214.832 513.462 249.598 490.191 271.636C466.92 293.674 432.097 294.64 412.411 273.792Z" fill="white"/>
<path opacity="0.5" d="M422.956 263.876C408.19 248.244 410.366 222.172 427.815 205.641C445.263 189.111 471.379 188.382 486.144 204.014C500.91 219.645 498.735 245.718 481.286 262.248C463.837 278.779 437.722 279.508 422.956 263.876Z" fill="#27C9CF"/>
<path opacity="0.5" d="M433.474 253.846C423.629 243.419 425.082 226.031 436.72 215.009C448.359 203.987 465.775 203.505 475.621 213.931C485.466 224.358 484.013 241.746 472.374 252.768C460.736 263.79 443.32 264.272 433.474 253.846Z" fill="white"/>
<path opacity="0.5" d="M444.016 243.912C439.092 238.7 439.817 230.006 445.635 224.494C451.454 218.982 460.162 218.739 465.085 223.952C470.009 229.164 469.284 237.858 463.466 243.37C457.647 248.882 448.939 249.125 444.016 243.912Z" fill="#27C9CF"/>
</g>
<path d="M441.328 327.365C441.59 327.365 441.838 327.365 442.1 327.365C444.098 323.501 447.107 320.253 450.804 317.967C454.502 315.681 458.75 314.444 463.095 314.388C465.324 314.386 467.539 314.73 469.662 315.408C471.756 311.565 474.834 308.349 478.58 306.091C482.327 303.833 486.606 302.615 490.978 302.562C493.726 302.522 496.454 303.025 499.008 304.043C501.561 305.061 503.889 306.574 505.857 308.495C507.825 310.416 509.395 312.707 510.477 315.237C511.559 317.767 512.132 320.486 512.162 323.239C514.336 323.367 516.461 323.93 518.414 324.894C520.366 325.858 522.107 327.204 523.531 328.853C524.956 330.501 526.037 332.419 526.71 334.492C527.383 336.566 527.635 338.753 527.45 340.926C527.073 345.715 524.923 350.19 521.421 353.472C517.919 356.755 513.319 358.61 508.522 358.671H439.188C437.175 358.694 435.18 358.296 433.33 357.502C431.48 356.708 429.816 355.535 428.445 354.059C427.074 352.584 426.026 350.837 425.369 348.932C424.712 347.027 424.459 345.005 424.628 342.996C424.971 338.777 426.873 334.838 429.961 331.948C433.049 329.058 437.102 327.424 441.328 327.365Z" fill="white"/>
<path d="M397.168 157.71H397.765C399.323 154.699 401.668 152.169 404.551 150.389C407.433 148.609 410.744 147.647 414.13 147.605C415.869 147.601 417.597 147.867 419.255 148.392C420.89 145.399 423.29 142.895 426.209 141.138C429.128 139.38 432.462 138.431 435.868 138.389C440.18 138.327 444.341 139.981 447.437 142.988C450.533 145.996 452.31 150.11 452.379 154.429C454.074 154.53 455.731 154.969 457.254 155.722C458.776 156.474 460.133 157.524 461.244 158.809C462.355 160.094 463.199 161.589 463.724 163.206C464.249 164.823 464.447 166.529 464.304 168.223C464.007 171.953 462.33 175.437 459.602 177.994C456.874 180.551 453.291 181.996 449.554 182.046H395.508C393.937 182.068 392.379 181.76 390.934 181.142C389.489 180.525 388.189 179.611 387.118 178.46C386.047 177.309 385.228 175.946 384.715 174.459C384.201 172.973 384.004 171.394 384.136 169.827C384.425 166.549 385.917 163.496 388.324 161.257C390.732 159.019 393.883 157.755 397.168 157.71Z" fill="white"/>
<path opacity="0.3" d="M375.648 384.74H475.471C476.192 384.732 476.908 384.874 477.571 385.158C478.234 385.442 478.831 385.862 479.323 386.391C479.815 386.919 480.191 387.544 480.428 388.227C480.665 388.909 480.757 389.634 480.698 390.354L476.65 449.977C476.534 451.492 475.855 452.909 474.748 453.948C473.64 454.987 472.184 455.573 470.666 455.591H457.271L456.15 472.082L440.818 455.591H370.93C370.208 455.601 369.492 455.46 368.828 455.177C368.163 454.894 367.566 454.474 367.073 453.945C366.581 453.416 366.204 452.79 365.968 452.106C365.732 451.423 365.642 450.697 365.703 449.977L369.736 390.354C369.858 388.853 370.528 387.45 371.619 386.414C372.71 385.378 374.145 384.782 375.648 384.74Z" fill="white"/>
<path d="M376.42 423.936H469.4L469.909 416.398H376.915L376.42 423.936Z" fill="white"/>
<path d="M404.768 439.596H468.337L468.846 432.058H405.278L404.768 439.596Z" fill="white"/>
<path d="M377.468 408.276H470.463L470.972 400.737H377.977L377.468 408.276Z" fill="white"/>
<path d="M297.548 132.69L293.719 135.446C292.389 136.418 291.049 137.337 289.7 138.202C287.007 139.996 284.298 141.789 281.561 143.422C278.824 145.055 276.057 146.601 273.32 147.971C270.754 149.267 268.097 150.373 265.37 151.281C265.975 151.131 266.603 151.102 267.22 151.194C267.588 151.239 267.947 151.342 268.282 151.5C268.705 151.719 268.574 151.733 268.355 151.602C267.513 151.018 266.754 150.321 266.098 149.532C264.182 147.241 262.449 144.804 260.915 142.241C259.212 139.558 257.581 136.715 256.023 133.798C254.465 130.882 252.907 127.893 251.466 125.05L251.364 124.86C250.626 123.406 249.374 122.28 247.852 121.7C246.33 121.12 244.647 121.128 243.131 121.724C241.615 122.319 240.374 123.458 239.652 124.92C238.929 126.381 238.775 128.06 239.221 129.628C241.2 136.575 243.707 143.361 246.719 149.925C248.352 153.457 250.276 156.847 252.47 160.059C253.843 162.05 255.451 163.866 257.261 165.469C258.584 166.623 260.083 167.559 261.701 168.239C262.84 168.707 264.034 169.026 265.254 169.187C266.713 169.353 268.191 169.27 269.622 168.939C273.511 168.035 277.32 166.811 281.008 165.279C284.459 163.873 287.832 162.281 291.113 160.511C294.345 158.791 297.495 156.978 300.562 155.073C302.091 154.11 303.605 153.133 305.105 152.156C306.604 151.179 308.017 150.159 309.662 148.963C311.5 147.266 312.651 144.951 312.896 142.459C313.141 139.967 312.463 137.472 310.991 135.448C309.518 133.424 307.354 132.013 304.911 131.483C302.467 130.953 299.914 131.341 297.737 132.574L297.548 132.69Z" fill="#27C9CF"/>
<path opacity="0.2" d="M297.548 132.69L293.719 135.446C292.389 136.418 291.049 137.337 289.7 138.202C287.007 139.996 284.298 141.789 281.561 143.422C278.824 145.055 276.057 146.601 273.32 147.971C270.754 149.267 268.097 150.373 265.37 151.281C265.975 151.131 266.603 151.102 267.22 151.194C267.588 151.239 267.947 151.342 268.282 151.5C268.705 151.719 268.574 151.733 268.355 151.602C267.513 151.018 266.754 150.321 266.098 149.532C264.182 147.241 262.449 144.804 260.915 142.241C259.212 139.558 257.581 136.715 256.023 133.798C254.465 130.882 252.907 127.893 251.466 125.05L251.364 124.86C250.626 123.406 249.374 122.28 247.852 121.7C246.33 121.12 244.647 121.128 243.131 121.724C241.615 122.319 240.374 123.458 239.652 124.92C238.929 126.381 238.775 128.06 239.221 129.628C241.2 136.575 243.707 143.361 246.719 149.925C248.352 153.457 250.276 156.847 252.47 160.059C253.843 162.05 255.451 163.866 257.261 165.469C258.584 166.623 260.083 167.559 261.701 168.239C262.84 168.707 264.034 169.026 265.254 169.187C266.713 169.353 268.191 169.27 269.622 168.939C273.511 168.035 277.32 166.811 281.008 165.279C284.459 163.873 287.832 162.281 291.113 160.511C294.345 158.791 297.495 156.978 300.562 155.073C302.091 154.11 303.605 153.133 305.105 152.156C306.604 151.179 308.017 150.159 309.662 148.963C311.5 147.266 312.651 144.951 312.896 142.459C313.141 139.967 312.463 137.472 310.991 135.448C309.518 133.424 307.354 132.013 304.911 131.483C302.467 130.953 299.914 131.341 297.737 132.574L297.548 132.69Z" fill="black"/>
<path d="M247.797 122.324L243.851 115.646L236.28 123.826C237.374 126.201 239.347 128.057 241.783 129.002C242.331 129.189 242.914 129.246 243.487 129.171C244.06 129.095 244.608 128.887 245.089 128.565L246.545 127.631C247.394 127.077 247.998 126.217 248.232 125.229C248.465 124.24 248.309 123.2 247.797 122.324Z" fill="#FFB573"/>
<path d="M233.12 111.664L231.446 112.699C230.921 113.024 230.479 113.469 230.156 113.996C229.832 114.523 229.637 115.118 229.585 115.735C229.532 116.351 229.625 116.971 229.854 117.545C230.084 118.119 230.444 118.632 230.907 119.042L236.28 123.824L243.851 115.644L237.255 111.649C236.632 111.268 235.916 111.068 235.186 111.07C234.456 111.073 233.741 111.278 233.12 111.664Z" fill="#FFB573"/>
<path d="M390.179 514.891L378.647 515.226L374.308 488.484L385.825 488.149L390.179 514.891Z" fill="#FFB573"/>
<path d="M376.827 511.98L389.713 510.347C389.929 510.313 390.15 510.366 390.327 510.495C390.504 510.623 390.624 510.816 390.659 511.032L392.567 521.152C392.637 521.687 392.493 522.228 392.165 522.658C391.838 523.087 391.354 523.368 390.82 523.441C386.321 523.937 384.151 523.937 378.487 524.651C375.007 525.103 365.937 527.29 361.117 526.692C356.298 526.095 357.026 521.356 359.122 521.181C368.514 520.364 372.037 515.888 374.949 512.928C375.454 512.414 376.114 512.081 376.827 511.98Z" fill="#263238"/>
<path opacity="0.2" d="M385.84 488.166L374.308 488.501L376.551 502.281L388.082 501.945L385.84 488.166Z" fill="black"/>
<path d="M322.81 231.841C322.81 231.841 332.871 327.48 339.568 359.967C346.848 395.545 370.392 499.627 370.392 499.627L391.489 498.066C391.489 498.066 379.929 390.398 370.465 355.549C370.465 319.358 361.729 217.931 361.729 217.931L322.81 231.841Z" fill="#263238"/>
<path opacity="0.3" d="M356.429 264.169C356.618 256.688 360.666 254.282 364.655 254.37C366.111 272.363 367.669 294.425 368.849 314.328C361.772 302.838 355.905 284.947 356.429 264.169Z" fill="black"/>
<path d="M392.115 498.212L369.518 499.889L366.927 491.359L392.945 491.097L392.115 498.212Z" fill="white"/>
<path d="M507.11 425.261L499.845 434.257L478.107 418.553L485.387 409.571L507.11 425.261Z" fill="#FFB573"/>
<path d="M498.272 434.275L504.737 423.003C504.839 422.812 505.012 422.668 505.219 422.603C505.426 422.537 505.65 422.555 505.844 422.653L515.06 427.232C515.528 427.498 515.871 427.939 516.016 428.458C516.16 428.977 516.094 429.532 515.832 430.002C513.517 433.896 512.206 435.631 509.367 440.588C507.62 443.636 503.019 452.399 500.631 456.628C498.243 460.856 494.123 458.334 494.807 456.336C497.719 447.354 498.549 440.486 497.952 436.389C497.819 435.668 497.932 434.924 498.272 434.275Z" fill="#263238"/>
<path opacity="0.2" d="M485.387 409.571L478.107 418.568L489.318 426.646L496.598 417.664L485.387 409.571Z" fill="black"/>
<path d="M343.849 223.618C343.849 223.618 372.226 304.952 385.127 335.515C399.235 368.979 483.61 428.412 483.61 428.412L496.933 411.95C496.933 411.95 439.596 354.397 418.309 327.101C406.515 289.934 381.341 210.188 381.341 210.188L343.849 223.618Z" fill="#263238"/>
<path d="M497.471 411.279L483.071 429.068L476.039 425L492.899 406.161L497.471 411.279Z" fill="white"/>
<path d="M322.926 232.397L381.399 210.19C379.943 204.839 372.299 189.12 365.5 167.233C360.357 151.06 356.616 134.473 354.318 117.657C354.258 117.167 354.099 116.694 353.851 116.267C353.602 115.841 353.27 115.469 352.873 115.176C352.476 114.882 352.024 114.673 351.544 114.561C351.064 114.448 350.566 114.435 350.081 114.522C348.989 114.712 347.693 114.959 346.266 115.237C342.582 115.98 337.981 117.03 333.599 118.371C325.186 120.841 316.922 123.791 308.847 127.208C306.142 128.427 303.512 129.805 300.97 131.334C299.457 132.197 298.054 133.24 296.791 134.44C296.334 134.807 295.956 135.262 295.678 135.778C295.401 136.294 295.23 136.86 295.175 137.444C295.175 145.813 303.547 178.242 322.926 232.397Z" fill="#F0F0F0"/>
<path d="M310.012 126.665C316.593 122.378 316.272 117.479 314.045 112.754C313.485 111.586 312.858 110.452 312.166 109.357L318.5 98.6396L323.159 90.7803C324.178 99.4124 327.294 114.694 334.574 118.076C330.596 123.702 324.913 127.895 318.369 130.033C307.624 133.387 310.012 126.665 310.012 126.665Z" fill="#FFB573"/>
<path d="M318.777 129.861L318.879 127.12L326.159 128.549L318.777 129.861Z" fill="#E0E0E0"/>
<path d="M318.776 129.862L317.422 127.631L312.718 133.361L318.776 129.862Z" fill="#E0E0E0"/>
<path d="M333.584 116.764C329.156 120.844 324.212 124.325 318.879 127.117C321.791 128.91 324.557 133.634 325.605 137.542C327.964 135.895 337.399 120.351 338.709 116.079L333.584 116.764Z" fill="white"/>
<path d="M311.38 125.004C313.104 126.446 315.208 127.357 317.437 127.629C315.879 129.918 314.525 135.853 314.525 139.294C311.803 137.515 307.595 131.304 306.925 128.489L311.38 125.004Z" fill="white"/>
<path opacity="0.3" d="M311.147 124.802C311.147 124.802 304.784 127.864 299.164 131.335C296.862 132.756 295.082 134.889 294.095 137.411C293.108 139.933 292.965 142.708 293.69 145.318C300.635 169.902 310.011 193.772 313.899 207.055C318.019 221.214 323.756 238.974 323.756 238.974L333.672 241.321C333.672 241.321 308.818 146.12 311.147 124.802Z" fill="black"/>
<path opacity="0.3" d="M333.73 115.657C333.73 115.657 342.277 114.534 349.746 114.199C352.365 114.08 354.945 114.87 357.051 116.435C359.157 117.999 360.66 120.242 361.306 122.787C365.092 137.777 367.888 166.443 371.717 177.598C376.478 191.538 382.928 218.717 382.928 218.717L349.062 238.314C349.062 238.314 314.846 133.052 333.73 115.657Z" fill="black"/>
<path d="M333.73 115.657C333.73 115.657 342.276 114.534 349.746 114.199C352.365 114.08 354.945 114.87 357.051 116.435C359.156 117.999 360.659 120.242 361.306 122.787C365.092 137.777 370.246 165.773 374.09 176.942C378.88 190.882 389.043 214.576 389.043 214.576L346.324 234.64C346.324 234.64 314.845 133.052 333.73 115.657Z" fill="#27C9CF"/>
<path opacity="0.2" d="M333.73 115.657C333.73 115.657 342.276 114.534 349.746 114.199C352.365 114.08 354.945 114.87 357.051 116.435C359.156 117.999 360.659 120.242 361.306 122.787C365.092 137.777 370.246 165.773 374.09 176.942C378.88 190.882 389.043 214.576 389.043 214.576L346.324 234.64C346.324 234.64 314.845 133.052 333.73 115.657Z" fill="black"/>
<path d="M311.147 124.802C311.147 124.802 304.784 127.864 299.164 131.335C296.861 132.756 295.082 134.889 294.095 137.411C293.107 139.933 292.965 142.708 293.689 145.318C300.635 169.902 306.124 195.667 308.89 209.228C311.802 223.663 314.845 236.801 314.845 236.801L330.861 238.974C330.861 238.974 308.817 146.12 311.147 124.802Z" fill="#27C9CF"/>
<path opacity="0.2" d="M311.147 124.802C311.147 124.802 304.784 127.864 299.164 131.335C296.861 132.756 295.082 134.889 294.095 137.411C293.107 139.933 292.965 142.708 293.689 145.318C300.635 169.902 306.124 195.667 308.89 209.228C311.802 223.663 314.845 236.801 314.845 236.801L330.861 238.974C330.861 238.974 308.817 146.12 311.147 124.802Z" fill="black"/>
<path opacity="0.2" d="M312.166 109.359C312.86 110.468 313.487 111.617 314.045 112.801C317.16 110.92 320.364 105.729 319.606 102.127C319.369 100.928 318.997 99.7588 318.5 98.6421L312.166 109.359Z" fill="black"/>
<path d="M303.183 65.1479C295.437 66.1541 292.598 76.6234 296.879 83.535C303.897 73.3426 303.183 65.1479 303.183 65.1479Z" fill="#263238"/>
<path d="M327.294 84.454C324.673 95.667 323.727 102.345 317.015 107.376C314.852 109.036 312.276 110.073 309.567 110.373C306.858 110.673 304.119 110.225 301.646 109.077C299.173 107.93 297.061 106.127 295.538 103.863C294.015 101.6 293.139 98.9619 293.005 96.2357C292.277 85.7517 296.675 69.1728 308.541 66.169C311.094 65.4479 313.791 65.4123 316.362 66.0657C318.933 66.7191 321.286 68.0385 323.187 69.8915C325.087 71.7444 326.467 74.0656 327.188 76.6218C327.909 79.178 327.946 81.8792 327.294 84.454Z" fill="#FFB573"/>
<path d="M323.844 94.4422C317.102 94.6317 318.151 83.4479 321.092 79.2193C311.744 80.6774 296.252 72.4099 294.695 63.7486C292.438 51.1941 311.555 51.1941 317.743 55.1893C315.079 55.3789 313.725 57.639 314.365 58.8055C314.365 58.8055 323.596 56.0059 329.566 59.2575C326.96 60.2199 324.193 63.9819 334.109 65.1775C343.543 66.3149 340.69 75.8219 335.929 75.6469C338.462 79.5401 341.505 88.3909 335.797 92.1529C330.09 95.9149 326.188 100.814 327.425 102.826C325.431 102.753 321.194 100.348 323.844 94.4422Z" fill="#263238"/>
<path d="M334.574 74.771C339.088 75.2084 341.68 78.7371 341.854 83.5198C339.921 80.225 337.462 77.2696 334.574 74.771Z" fill="#263238"/>
<path d="M329.988 94.589C328.837 96.8904 326.861 98.6715 324.455 99.5758C321.296 100.728 319.636 97.9281 320.451 94.8077C321.194 91.9789 323.727 87.9982 326.93 88.2024C330.134 88.4065 331.386 91.7311 329.988 94.589Z" fill="#FFB573"/>
<path d="M309.546 85.3145C309.4 86.2331 308.774 86.9039 308.176 86.7726C307.579 86.6414 307.215 85.8832 307.361 84.9646C307.506 84.0459 308.133 83.3606 308.744 83.5064C309.356 83.6522 309.706 84.3959 309.546 85.3145Z" fill="#263238"/>
<path d="M299.106 83.917C298.96 84.8356 298.349 85.5064 297.737 85.3751C297.125 85.2439 296.775 84.4857 296.921 83.5525C297.067 82.6193 297.693 81.9631 298.305 82.0943C298.917 82.2256 299.266 82.9838 299.106 83.917Z" fill="#263238"/>
<path d="M302.353 84.8188C300.769 87.4913 298.84 89.9427 296.615 92.1095C297.984 93.8447 300.882 93.5676 300.882 93.5676L302.353 84.8188Z" fill="#ED893E"/>
<path d="M304.231 96.5003C305.308 96.5293 306.38 96.3387 307.381 95.9401C308.382 95.5416 309.292 94.9434 310.055 94.1819C310.103 94.1306 310.13 94.0628 310.13 93.9924C310.13 93.9219 310.103 93.8542 310.055 93.8028C310.029 93.7768 309.999 93.7561 309.965 93.7421C309.931 93.728 309.895 93.7207 309.859 93.7207C309.822 93.7207 309.786 93.728 309.752 93.7421C309.718 93.7561 309.688 93.7768 309.662 93.8028C308.819 94.6213 307.797 95.2329 306.678 95.5896C305.559 95.9463 304.373 96.0384 303.212 95.8588C303.173 95.8459 303.132 95.8417 303.092 95.8465C303.052 95.8513 303.013 95.865 302.978 95.8865C302.944 95.9081 302.914 95.937 302.892 95.9712C302.87 96.0054 302.856 96.0441 302.85 96.0845C302.845 96.1249 302.848 96.166 302.861 96.2048C302.873 96.2437 302.894 96.2794 302.921 96.3094C302.949 96.3393 302.982 96.3628 303.02 96.3782C303.058 96.3936 303.099 96.4004 303.139 96.3983C303.5 96.4608 303.865 96.495 304.231 96.5003Z" fill="#263238"/>
<path d="M307.143 99.5324C308.014 98.8898 308.744 98.0759 309.29 97.1408C309.836 96.2056 310.186 95.1687 310.317 94.0936C310.322 94.0224 310.298 93.9524 310.252 93.8981C310.206 93.8438 310.141 93.8093 310.07 93.802C310.034 93.7979 309.998 93.8012 309.964 93.8117C309.93 93.8222 309.898 93.8395 309.871 93.8628C309.843 93.886 309.821 93.9146 309.805 93.9468C309.789 93.9789 309.78 94.014 309.779 94.0498C309.608 95.2137 309.176 96.3236 308.516 97.296C307.855 98.2685 306.982 99.078 305.963 99.6636C305.932 99.6803 305.904 99.7032 305.882 99.7308C305.86 99.7583 305.844 99.7901 305.835 99.8242C305.825 99.8582 305.822 99.8938 305.827 99.9289C305.832 99.9639 305.843 99.9977 305.861 100.028C305.879 100.06 305.903 100.088 305.932 100.11C305.961 100.132 305.994 100.148 306.029 100.158C306.064 100.167 306.101 100.17 306.137 100.165C306.173 100.16 306.208 100.148 306.24 100.13C306.551 99.9462 306.852 99.7467 307.143 99.5324Z" fill="#263238"/>
<path d="M313.345 82.3854C313.431 82.407 313.522 82.407 313.608 82.3854C313.673 82.3531 313.731 82.3079 313.778 82.2525C313.825 82.1972 313.861 82.1328 313.883 82.0634C313.904 81.9939 313.912 81.9207 313.905 81.8482C313.897 81.7758 313.876 81.7055 313.841 81.6417C313.456 80.8604 312.886 80.1857 312.18 79.6771C311.474 79.1685 310.654 78.8417 309.792 78.7255C309.72 78.7195 309.648 78.7281 309.579 78.7507C309.511 78.7733 309.447 78.8095 309.393 78.8571C309.339 78.9047 309.294 78.9628 309.263 79.0278C309.231 79.0929 309.213 79.1636 309.21 79.2358C309.204 79.3079 309.212 79.3804 309.235 79.449C309.257 79.5177 309.293 79.5811 309.341 79.6355C309.389 79.6899 309.447 79.7342 309.512 79.7657C309.576 79.7973 309.647 79.8154 309.719 79.8191C310.388 79.9152 311.024 80.1706 311.574 80.5638C312.124 80.9571 312.572 81.4768 312.879 82.0792C312.919 82.17 312.984 82.2473 313.067 82.3017C313.15 82.3561 313.246 82.3852 313.345 82.3854Z" fill="#263238"/>
<path d="M295.232 79.7291C295.321 79.7317 295.409 79.7117 295.488 79.6709C295.567 79.6301 295.634 79.5698 295.684 79.4958C296.071 78.9099 296.587 78.421 297.194 78.067C297.8 77.713 298.479 77.5034 299.179 77.4544C299.308 77.4332 299.426 77.3665 299.511 77.2664C299.596 77.1662 299.643 77.0391 299.643 76.9076C299.643 76.7762 299.596 76.6491 299.511 76.5489C299.426 76.4487 299.308 76.3821 299.179 76.3608C298.306 76.4099 297.457 76.6622 296.698 77.0976C295.94 77.5329 295.293 78.1394 294.81 78.8688C294.768 78.927 294.739 78.9929 294.723 79.0627C294.707 79.1326 294.705 79.2049 294.717 79.2754C294.729 79.346 294.755 79.4135 294.794 79.4738C294.832 79.5342 294.882 79.5863 294.941 79.627C295.024 79.6922 295.127 79.7281 295.232 79.7291Z" fill="#263238"/>
<path d="M346.615 133.067C349.527 135.444 352.599 138.083 355.526 140.664C358.453 143.245 361.437 145.898 364.262 148.61C369.882 153.82 375.145 159.403 380.016 165.321L381.676 167.479L381.88 167.756C381.836 167.691 381.797 167.622 381.763 167.552C381.676 167.388 381.602 167.217 381.545 167.041C381.434 166.747 381.375 166.437 381.37 166.123C381.37 165.627 381.457 165.627 381.37 165.86C381.306 166.309 381.179 166.746 380.991 167.158C380.405 168.535 379.672 169.845 378.807 171.066C377.805 172.54 376.726 173.961 375.575 175.323C373.231 178.24 370.61 181.025 367.858 183.78C365.106 186.536 362.195 189.321 359.414 191.873L359.224 192.034C357.998 193.137 357.233 194.665 357.083 196.31C356.934 197.954 357.41 199.595 358.418 200.903C359.425 202.21 360.889 203.088 362.515 203.361C364.142 203.633 365.811 203.28 367.189 202.372C374.492 197.735 381.32 192.387 387.573 186.405C389.16 184.816 390.718 183.154 392.246 181.316C393.9 179.325 395.362 177.182 396.614 174.915C397.373 173.521 397.992 172.056 398.463 170.541C399.097 168.5 399.324 166.355 399.133 164.227C399.014 162.894 398.71 161.583 398.23 160.334C397.979 159.687 397.682 159.058 397.342 158.453L396.818 157.593L396.585 157.243L394.692 154.428C389.647 147.374 384.032 140.747 377.905 134.612C374.993 131.58 371.935 128.619 368.834 125.762C365.733 122.904 362.66 120.148 359.239 117.348C357.136 116.101 354.656 115.652 352.25 116.083C349.845 116.514 347.674 117.796 346.133 119.696C344.593 121.596 343.785 123.987 343.857 126.433C343.93 128.879 344.878 131.218 346.528 133.023L346.615 133.067Z" fill="#27C9CF"/>
<path opacity="0.2" d="M346.615 133.067C349.527 135.444 352.599 138.083 355.526 140.664C358.453 143.245 361.437 145.898 364.262 148.61C369.882 153.82 375.145 159.403 380.016 165.321L381.676 167.479L381.88 167.756C381.836 167.691 381.797 167.622 381.763 167.552C381.676 167.388 381.602 167.217 381.545 167.041C381.434 166.747 381.375 166.437 381.37 166.123C381.37 165.627 381.457 165.627 381.37 165.86C381.306 166.309 381.179 166.746 380.991 167.158C380.405 168.535 379.672 169.845 378.807 171.066C377.805 172.54 376.726 173.961 375.575 175.323C373.231 178.24 370.61 181.025 367.858 183.78C365.106 186.536 362.195 189.321 359.414 191.873L359.224 192.034C357.998 193.137 357.233 194.665 357.083 196.31C356.934 197.954 357.41 199.595 358.418 200.903C359.425 202.21 360.889 203.088 362.515 203.361C364.142 203.633 365.811 203.28 367.189 202.372C374.492 197.735 381.32 192.387 387.573 186.405C389.16 184.816 390.718 183.154 392.246 181.316C393.9 179.325 395.362 177.182 396.614 174.915C397.373 173.521 397.992 172.056 398.463 170.541C399.097 168.5 399.324 166.355 399.133 164.227C399.014 162.894 398.71 161.583 398.23 160.334C397.979 159.687 397.682 159.058 397.342 158.453L396.818 157.593L396.585 157.243L394.692 154.428C389.647 147.374 384.032 140.747 377.905 134.612C374.993 131.58 371.935 128.619 368.834 125.762C365.733 122.904 362.66 120.148 359.239 117.348C357.136 116.101 354.656 115.652 352.25 116.083C349.845 116.514 347.674 117.796 346.133 119.696C344.593 121.596 343.785 123.987 343.857 126.433C343.93 128.879 344.878 131.218 346.528 133.023L346.615 133.067Z" fill="black"/>
<path d="M357.201 194.281L347.3 200.347L359.952 207.564C359.952 207.564 368.368 201.265 364.772 197.197L360.549 194.281C360.051 193.956 359.469 193.784 358.875 193.784C358.281 193.784 357.699 193.956 357.201 194.281Z" fill="#FFB573"/>
<path d="M346.761 211.427L352.207 214.634C352.583 214.86 353.002 215.007 353.436 215.067C353.871 215.127 354.313 215.099 354.737 214.985C355.161 214.871 355.557 214.672 355.903 214.402C356.248 214.131 356.536 213.794 356.749 213.41L359.953 207.577L347.3 200.359L345.261 207.65C345.059 208.357 345.097 209.111 345.368 209.795C345.639 210.478 346.129 211.052 346.761 211.427Z" fill="#FFB573"/>
<path d="M252.048 108.455L238.638 105.815C242.322 112.319 236.906 118.545 232.042 122.453C229.727 124.319 231.358 127.658 234.954 128.285L243.69 130.006C254.232 132.135 252.048 108.455 252.048 108.455Z" fill="#27C9CF"/>
<path d="M257.377 109.488L226.626 103.525C221.824 102.566 217.597 99.7424 214.869 95.671C212.14 91.5996 211.133 86.6119 212.066 81.7985C213.03 76.9936 215.851 72.7649 219.915 70.0338C223.978 67.3026 228.955 66.2902 233.761 67.2172L264.497 73.2539C269.296 74.2229 273.518 77.0511 276.245 81.1228C278.972 85.1946 279.983 90.1803 279.057 94.9946C278.076 99.7822 275.25 103.989 271.191 106.703C267.132 109.416 262.168 110.417 257.377 109.488Z" fill="#27C9CF"/>
<path opacity="0.3" d="M257.377 109.488L226.626 103.525C221.824 102.566 217.597 99.7424 214.869 95.671C212.14 91.5996 211.133 86.6119 212.066 81.7985C213.03 76.9936 215.851 72.7649 219.915 70.0338C223.978 67.3026 228.955 66.2902 233.761 67.2172L264.497 73.2539C269.296 74.2229 273.518 77.0511 276.245 81.1228C278.972 85.1946 279.983 90.1803 279.057 94.9946C278.076 99.7822 275.25 103.989 271.191 106.703C267.132 109.416 262.168 110.417 257.377 109.488Z" fill="white"/>
<path d="M173.686 115.773L226.102 115.073C230.645 115.963 242.118 57.0542 237.634 56.1648L189.382 35.751L173.686 115.773Z" fill="#27C9CF"/>
<path d="M185.713 76.5598C181.345 98.665 176.001 116.221 173.686 115.769C171.371 115.317 173.002 97.0173 177.341 74.9412C181.68 52.8652 187.052 35.2801 189.367 35.7322C191.682 36.1842 190.037 54.4399 185.713 76.5598Z" fill="#27C9CF"/>
<path opacity="0.3" d="M185.713 76.5598C181.345 98.665 176.001 116.221 173.686 115.769C171.371 115.317 173.002 97.0173 177.341 74.9412C181.68 52.8652 187.052 35.2801 189.367 35.7322C191.682 36.1842 190.037 54.4399 185.713 76.5598Z" fill="black"/>
<path d="M165.984 73.8358C167.047 68.4261 179.088 66.2244 181.636 66.7347C184.184 67.245 185.421 72.0277 184.373 77.4374C183.325 82.847 180.369 86.8131 177.807 86.3174C175.244 85.8216 164.965 79.2309 165.984 73.8358Z" fill="#27C9CF"/>
<path d="M84.9049 59.8018L153.105 70.8516L152.857 72.3917L84.6561 61.342L84.9049 59.8018Z" fill="#27C9CF"/>
<path d="M131.57 30.3126L159.535 54.1904L158.524 55.3777L130.559 31.4999L131.57 30.3126Z" fill="#27C9CF"/>
<path d="M117.725 104.155L118.243 105.626L107.987 109.251L107.468 107.78L117.725 104.155Z" fill="#27C9CF"/>
<path d="M154.887 91.4768L155.382 92.9561L129.43 101.672L128.934 100.193L154.887 91.4768Z" fill="#27C9CF"/>
</svg>
