<svg width="305" height="290" viewBox="0 0 305 290" fill="none" xmlns="http://www.w3.org/2000/svg">
<path d="M246.494 262.26C258.783 240.973 286.002 233.68 307.288 245.97C328.575 258.259 335.868 285.478 323.578 306.764C311.288 328.051 284.07 335.344 262.784 323.054C241.497 310.765 234.204 283.546 246.494 262.26Z" stroke="url(#paint0_linear)" stroke-opacity="0.12"/>
<path d="M210.238 241.328C234.088 200.018 286.911 185.864 328.221 209.715C369.531 233.565 383.684 286.387 359.834 327.697C335.984 369.007 283.161 383.161 241.851 359.311C200.542 335.46 186.388 282.638 210.238 241.328Z" stroke="url(#paint1_linear)" stroke-opacity="0.12"/>
<circle cx="285.227" cy="285.227" r="128.757" transform="rotate(-150 285.227 285.227)" stroke="url(#paint2_linear)" stroke-opacity="0.12"/>
<circle cx="284.512" cy="285.419" r="168.006" transform="rotate(-150 284.512 285.419)" stroke="url(#paint3_linear)" stroke-opacity="0.12"/>
<circle cx="285.227" cy="285.227" r="208.301" transform="rotate(-150 285.227 285.227)" stroke="url(#paint4_linear)" stroke-opacity="0.12"/>
<defs>
<linearGradient id="paint0_linear" x1="262.534" y1="323.487" x2="307.538" y2="245.537" gradientUnits="userSpaceOnUse">
<stop stop-color="#D4D6D7"/>
<stop offset="1" stop-color="#3F3F3F"/>
</linearGradient>
<linearGradient id="paint1_linear" x1="241.601" y1="359.744" x2="328.471" y2="209.282" gradientUnits="userSpaceOnUse">
<stop stop-color="#D4D6D7"/>
<stop offset="1" stop-color="#3F3F3F"/>
</linearGradient>
<linearGradient id="paint2_linear" x1="285.227" y1="155.969" x2="285.227" y2="414.484" gradientUnits="userSpaceOnUse">
<stop stop-color="#D4D6D7"/>
<stop offset="1" stop-color="#3F3F3F"/>
</linearGradient>
<linearGradient id="paint3_linear" x1="284.512" y1="116.913" x2="284.512" y2="453.925" gradientUnits="userSpaceOnUse">
<stop stop-color="#D4D6D7"/>
<stop offset="1" stop-color="#3F3F3F"/>
</linearGradient>
<linearGradient id="paint4_linear" x1="285.227" y1="76.4263" x2="285.227" y2="494.027" gradientUnits="userSpaceOnUse">
<stop stop-color="#D4D6D7"/>
<stop offset="1" stop-color="#3F3F3F"/>
</linearGradient>
</defs>
</svg>
