<svg width="81" height="68" viewBox="0 0 81 68" fill="none" xmlns="http://www.w3.org/2000/svg">
<path fill-rule="evenodd" clip-rule="evenodd" d="M51.4948 5.26403C59.893 4.43801 69.4476 -0.0094316 75.7963 6.43255C82.2563 12.9874 81.149 24.738 80.4789 34.6738C79.8742 43.6405 77.7851 52.507 72.2639 58.8099C66.788 65.0612 59.1552 67.192 51.4948 67.7621C43.1585 68.3826 34.3958 68.1927 27.8835 62.113C20.749 55.4523 15.4104 45.2828 16.0523 34.6738C16.669 24.4825 23.8313 16.7767 30.9859 10.84C36.9258 5.91111 44.2221 5.97935 51.4948 5.26403Z" fill="#27C9CF" fill-opacity="0.2"/>
<path d="M39.6586 28.7334L48.1216 34.7578C48.4977 35.0256 49.0022 35.0256 49.3783 34.7578L57.8413 28.7334C59.6043 27.4847 60.6564 25.4619 60.6666 23.3015V10.4835C60.6672 10.0522 60.4119 9.66156 60.0166 9.48902L49.1833 4.80902C48.9095 4.69094 48.5991 4.69094 48.3253 4.80902L37.4919 9.48902C37.0966 9.66156 36.8413 10.0522 36.8419 10.4835V23.3015C36.8503 25.4603 37.899 27.4827 39.6586 28.7334ZM38.9999 11.1953L48.7499 6.98436L58.4999 11.1953V23.3015C58.492 24.7637 57.7782 26.132 56.5835 26.9751L48.7499 32.5456L40.9164 26.9686C39.7231 26.1272 39.0094 24.7616 38.9999 23.3015V11.1953Z" fill="#373A40"/>
<path d="M45.9333 25.7834C46.4013 26.1347 47.0637 26.0508 47.4294 25.5939L56.096 14.7605C56.47 14.2933 56.3943 13.6113 55.927 13.2374C55.4597 12.8634 54.7778 12.9391 54.4039 13.4064L46.3872 23.4207L42.8999 20.8001C42.5903 20.5679 42.1803 20.5185 41.8244 20.6705C41.4685 20.8226 41.2207 21.1529 41.1744 21.5372C41.1281 21.9215 41.2903 22.3012 41.5999 22.5334L45.9333 25.7834Z" fill="#373A40"/>
<path d="M2.16665 57.4168H3.24998V61.7501C3.24998 63.545 4.70506 65.0001 6.49998 65.0001H13C14.7949 65.0001 16.25 63.545 16.25 61.7501V57.4168H42.25V61.7501C42.25 63.545 43.7051 65.0001 45.5 65.0001H52C53.7949 65.0001 55.25 63.545 55.25 61.7501V57.4168H56.3333C57.5299 57.4168 58.5 56.4467 58.5 55.2501V39.0001C58.504 37.4301 57.8194 35.9372 56.6269 34.9159L60.3536 32.2639C63.258 30.2013 64.9883 26.8638 65 23.3015V7.63543C65.0006 7.20409 64.7453 6.81346 64.35 6.64093L49.1833 0.0889282C48.9095 -0.0291544 48.5991 -0.0291544 48.3253 0.0889282L33.15 6.64093C32.7547 6.81346 32.4993 7.20409 32.5 7.63543V11.9168H16.1092C13.8124 11.9175 11.7658 13.3667 11.0023 15.5329L4.62148 33.6636C1.97252 34.0534 0.00738084 36.3226 -1.52588e-05 39.0001V55.2501C-1.52588e-05 56.4467 0.970034 57.4168 2.16665 57.4168ZM14.0833 61.7501C14.0833 62.3484 13.5983 62.8334 13 62.8334H6.49998C5.90168 62.8334 5.41665 62.3484 5.41665 61.7501V57.4168H14.0833V61.7501ZM9.74998 55.2501H7.58332V53.0834H9.74998V55.2501ZM53.0833 61.7501C53.0833 62.3484 52.5983 62.8334 52 62.8334H45.5C44.9017 62.8334 44.4167 62.3484 44.4167 61.7501V57.4168H53.0833V61.7501ZM50.9167 55.2501H48.75V53.0834H50.9167V55.2501ZM34.6667 8.34718L48.75 2.26318L62.8333 8.34718V23.2972C62.8226 26.1588 61.4311 28.8393 59.0969 30.4948L48.75 37.8648L38.4031 30.4981C36.0692 28.8428 34.6777 26.1628 34.6667 23.3015V8.34718ZM50.9167 40.0834C51.515 40.0834 52 40.5684 52 41.1668V43.3334C52 43.9317 51.515 44.4168 50.9167 44.4168H44.4167C43.8183 44.4168 43.3333 43.9317 43.3333 43.3334C43.3333 41.5385 44.7884 40.0834 46.5833 40.0834H50.9167ZM32.5 18.4168V20.5834H24.9167V18.4168H32.5ZM32.5 16.2501H30.3333V14.0834H32.5V16.2501ZM13.0466 16.2501C13.5055 14.9521 14.7324 14.0841 16.1092 14.0834H28.1667V16.2501H24.9167C23.72 16.2501 22.75 17.2201 22.75 18.4168V20.5834C22.75 21.78 23.72 22.7501 24.9167 22.7501H32.5V23.3015C32.5117 26.8638 34.242 30.2013 37.1464 32.2639L39 33.5834H6.94632L13.0466 16.2501ZM2.16665 39.0001C2.16665 37.2052 3.62173 35.7501 5.41665 35.7501H42.0442L45.318 38.0814C42.8885 38.6651 41.1735 40.8348 41.1667 43.3334C41.1667 45.1283 42.6217 46.5834 44.4167 46.5834H50.9167C52.7116 46.5834 54.1667 45.1283 54.1667 43.3334V41.1668C54.1631 39.8286 53.3397 38.6293 52.0921 38.1453L54.7744 36.2354C55.746 36.8169 56.3386 37.8678 56.3333 39.0001L56.3334 55.2501H53.0833V53.0834C53.0833 51.8868 52.1133 50.9168 50.9167 50.9168H48.75C47.5534 50.9168 46.5833 51.8868 46.5833 53.0834V55.2501H11.9167V53.0834C11.9167 51.8868 10.9466 50.9168 9.74998 50.9168H7.58332C6.3867 50.9168 5.41665 51.8868 5.41665 53.0834V55.2501H2.16665V39.0001Z" fill="#373A40"/>
<path d="M19.5 16.25H17.6464C16.2692 16.2515 15.0418 17.119 14.5806 18.4167L10.5138 29.9737C10.3151 30.5382 10.6117 31.1568 11.1762 31.3555C11.7407 31.5541 12.3594 31.2575 12.558 30.693L16.6249 19.1403C16.7774 18.7068 17.1869 18.4168 17.6464 18.4167H19.5C20.0983 18.4167 20.5834 17.9316 20.5834 17.3333C20.5834 16.735 20.0983 16.25 19.5 16.25Z" fill="#373A40"/>
<path d="M7.58335 46.5834H14.0834C15.8783 46.5834 17.3334 45.1283 17.3334 43.3334C17.3298 40.3434 14.9067 37.9203 11.9167 37.9167H7.58335C5.78843 37.9167 4.33335 39.3718 4.33335 41.1668V43.3334C4.33335 45.1283 5.78843 46.5834 7.58335 46.5834ZM6.50002 41.1668C6.50002 40.5684 6.98504 40.0834 7.58335 40.0834H11.9167C13.7116 40.0834 15.1667 41.5385 15.1667 43.3334C15.1667 43.9317 14.6817 44.4168 14.0834 44.4168H7.58335C6.98504 44.4168 6.50002 43.9317 6.50002 43.3334V41.1668Z" fill="#373A40"/>
<path d="M21.6667 53.0834H36.8334C38.03 53.0834 39 52.1134 39 50.9168V46.5834C39 45.3868 38.03 44.4167 36.8334 44.4167H21.6667C20.4701 44.4167 19.5 45.3868 19.5 46.5834V50.9168C19.5 52.1134 20.4701 53.0834 21.6667 53.0834ZM21.6667 46.5834H36.8334V50.9168H21.6667V46.5834Z" fill="#373A40"/>
<defs>
<clipPath id="clip0">
<rect width="65" height="65" fill="white"/>
</clipPath>
</defs>
</svg>
