<svg width="76" height="66" viewBox="0 0 76 66" fill="none" xmlns="http://www.w3.org/2000/svg">
<path fill-rule="evenodd" clip-rule="evenodd" d="M44.6601 0.138986C53.5758 1.16376 58.6502 9.8951 64.4979 16.6428C69.6749 22.6165 75.9361 28.4275 75.9994 36.3016C76.0631 44.2169 70.6844 50.9056 64.8168 56.2764C59.2192 61.4 52.2755 65.2494 44.6601 64.9874C37.261 64.7328 31.4503 59.7415 25.8561 54.9359C19.6245 49.5826 12.4293 44.3927 11.2675 36.3016C9.97877 27.3269 13.4411 18.1719 19.6166 11.4841C26.0582 4.5082 35.1817 -0.950454 44.6601 0.138986Z" fill="#27C9CF" fill-opacity="0.2"/>
<path d="M27.2442 44.5449H37.2735C37.4755 44.5449 37.6692 44.4647 37.8121 44.3218C37.9549 44.179 38.0352 43.9852 38.0352 43.7832C38.0352 43.5812 37.9549 43.3874 37.8121 43.2446C37.6692 43.1017 37.4755 43.0215 37.2735 43.0215H27.2442C27.0422 43.0215 26.8484 43.1017 26.7056 43.2446C26.5627 43.3874 26.4825 43.5812 26.4825 43.7832C26.4825 43.9852 26.5627 44.179 26.7056 44.3218C26.8484 44.4647 27.0422 44.5449 27.2442 44.5449Z" fill="#373A40"/>
<path d="M39.674 46.957H43.5656C44.2558 46.957 44.9178 46.6828 45.4059 46.1948C45.8939 45.7067 46.1681 45.0447 46.1681 44.3545C46.1681 43.6643 45.8939 43.0023 45.4059 42.5142C44.9178 42.0261 44.2558 41.752 43.5656 41.752H40.3777C40.1981 41.758 40.0259 41.8253 39.8899 41.9427C39.7538 42.0601 39.662 42.2206 39.6298 42.3974L38.9261 46.0521C38.9048 46.1623 38.9081 46.2758 38.9359 46.3845C38.9636 46.4933 39.0151 46.5945 39.0866 46.681C39.1581 46.7675 39.2478 46.8371 39.3493 46.8848C39.4509 46.9325 39.5618 46.9572 39.674 46.957ZM41.0058 43.2754H43.5652C43.8514 43.2754 44.1259 43.3891 44.3282 43.5915C44.5306 43.7938 44.6443 44.0683 44.6443 44.3545C44.6443 44.6407 44.5306 44.9152 44.3282 45.1175C44.1259 45.3199 43.8514 45.4336 43.5652 45.4336H40.597L41.0058 43.2754Z" fill="#373A40"/>
<path d="M20.9528 46.957H24.8448C24.9565 46.9588 25.0672 46.9355 25.1689 46.889C25.2705 46.8425 25.3604 46.7738 25.4321 46.6881C25.5038 46.6023 25.5554 46.5017 25.5832 46.3934C25.6109 46.2852 25.6142 46.1721 25.5926 46.0624L24.8889 42.3955C24.8566 42.2188 24.7646 42.0586 24.6285 41.9415C24.4923 41.8245 24.3202 41.7575 24.1407 41.752H20.9528C20.2625 41.752 19.6006 42.0261 19.1125 42.5142C18.6244 43.0023 18.3502 43.6643 18.3502 44.3545C18.3502 45.0447 18.6244 45.7067 19.1125 46.1948C19.6006 46.6828 20.2625 46.957 20.9528 46.957ZM20.9528 43.2754H23.5118L23.9209 45.4336H20.9528C20.6666 45.4336 20.3921 45.3199 20.1897 45.1175C19.9873 44.9152 19.8737 44.6407 19.8737 44.3545C19.8737 44.0683 19.9873 43.7938 20.1897 43.5915C20.3921 43.3891 20.6666 43.2754 20.9528 43.2754Z" fill="#373A40"/>
<path d="M41.4883 32.1035H23.5117C22.8853 32.1093 22.2756 32.3064 21.7645 32.6685C21.2533 33.0307 20.8651 33.5404 20.6518 34.1294L18.6197 39.7391C17.9252 39.8449 17.2915 40.196 16.8336 40.7287C16.3756 41.2614 16.1235 41.9405 16.123 42.643V47.9805C15.7422 48.1051 15.3613 48.5078 15.3613 48.9854V51.5146C15.3618 51.651 15.3893 51.7859 15.4422 51.9115C15.4951 52.0372 15.5723 52.1511 15.6695 52.2467C15.7667 52.3424 15.8819 52.4178 16.0084 52.4686C16.1349 52.5195 16.2702 52.5447 16.4065 52.543H16.4185L16.4366 55.1216C16.4386 55.6139 16.6341 56.0857 16.981 56.435C17.319 56.7797 17.7791 56.9778 18.2618 56.9863H18.2757L21.159 56.9454C21.6451 56.9369 22.1082 56.7369 22.4476 56.3888C22.787 56.0407 22.9753 55.5728 22.9717 55.0866L22.9539 52.543H42.0333L42.0514 55.1434C42.0543 55.6282 42.247 56.0926 42.5882 56.4371C42.9294 56.7816 43.392 56.9788 43.8768 56.9863H43.8905L46.774 56.9454C47.2601 56.9369 47.7231 56.7368 48.0625 56.3888C48.4019 56.0407 48.5902 55.5727 48.5865 55.0866L48.5687 52.543H48.5935C48.7298 52.5447 48.8651 52.5195 48.9916 52.4686C49.1181 52.4178 49.2333 52.3424 49.3305 52.2467C49.4277 52.1511 49.5049 52.0372 49.5578 51.9115C49.6107 51.7859 49.6382 51.651 49.6387 51.5146V48.9854C49.6387 48.5078 49.2578 48.1051 48.877 47.9805V42.643C48.8762 41.9417 48.6238 41.264 48.1656 40.7331C47.7074 40.2022 47.0738 39.8533 46.3802 39.75L44.3475 34.1294C44.1344 33.5405 43.7463 33.0307 43.2352 32.6686C42.7242 32.3065 42.1146 32.1093 41.4883 32.1035ZM21.1482 55.396L18.2649 55.4173C18.184 55.4158 18.1069 55.3828 18.05 55.3253C17.9931 55.2679 17.9609 55.1905 17.9602 55.1096L17.9419 52.543H21.4303L21.4482 55.0869C21.4489 55.1675 21.4178 55.2451 21.3616 55.3029C21.3055 55.3608 21.2288 55.3942 21.1482 55.396ZM46.7632 55.396L43.8798 55.4173C43.7992 55.4151 43.7225 55.3819 43.6657 55.3246C43.609 55.2673 43.5765 55.1902 43.5751 55.1096L43.5569 52.543H47.0453L47.063 55.0869C47.0637 55.1675 47.0327 55.2451 46.9765 55.3029C46.9204 55.3608 46.8438 55.3942 46.7632 55.396ZM48.1152 49.4961V51.0195H16.8848V49.4961H48.1152ZM27.2349 47.9727L27.8531 46.8301H36.5892L37.2074 47.9727H27.2349ZM47.3535 42.643V47.9727H38.969L37.6868 45.7248C37.6218 45.6047 37.5271 45.5032 37.4117 45.43C37.2964 45.3568 37.1642 45.3143 37.0278 45.3066H27.4146C27.2783 45.3144 27.1462 45.3569 27.0309 45.4301C26.9156 45.5033 26.8209 45.6047 26.7559 45.7248L25.4733 47.9727H17.6465V42.643C17.6467 42.2719 17.7942 41.9161 18.0567 41.6538C18.3191 41.3915 18.6751 41.2441 19.0461 41.2441H45.9539C46.3249 41.2441 46.6809 41.3915 46.9433 41.6538C47.2058 41.9161 47.3533 42.2719 47.3535 42.643ZM20.2512 39.7207L22.0839 34.6505C22.1898 34.355 22.3831 34.0989 22.6382 33.916C22.8932 33.7332 23.1979 33.6324 23.5117 33.627H41.4883C41.8021 33.6323 42.1068 33.7331 42.3619 33.916C42.617 34.0988 42.8104 34.355 42.9163 34.6505L44.7487 39.7207H20.2512Z" fill="#373A40"/>
<path d="M29.7365 16.4883H43.6192C43.8213 16.4883 44.015 16.408 44.1579 16.2652C44.3007 16.1223 44.381 15.9286 44.381 15.7266C44.381 15.5245 44.3007 15.3308 44.1579 15.1879C44.015 15.0451 43.8213 14.9648 43.6192 14.9648H29.7365C29.5345 14.9648 29.3408 15.0451 29.1979 15.1879C29.0551 15.3308 28.9748 15.5245 28.9748 15.7266C28.9748 15.9286 29.0551 16.1223 29.1979 16.2652C29.3408 16.408 29.5345 16.4883 29.7365 16.4883Z" fill="#373A40"/>
<path d="M21.013 17.9511L22.4561 19.2519C22.6011 19.3826 22.7907 19.4526 22.9859 19.4476C23.181 19.4425 23.3667 19.3627 23.5047 19.2247L26.4875 16.2413C26.6304 16.0985 26.7106 15.9047 26.7107 15.7027C26.7107 15.5007 26.6304 15.3069 26.4876 15.1641C26.3447 15.0212 26.151 14.9409 25.949 14.9409C25.7469 14.9409 25.5532 15.0211 25.4103 15.164L22.9389 17.6355L22.033 16.819C21.8826 16.686 21.6858 16.6178 21.4853 16.6291C21.2849 16.6405 21.0971 16.7305 20.9626 16.8796C20.8282 17.0287 20.7581 17.2249 20.7676 17.4254C20.777 17.6259 20.8652 17.8146 21.013 17.9505V17.9511Z" fill="#373A40"/>
<path d="M29.7365 19.5352H33.1207C33.3228 19.5352 33.5165 19.4549 33.6593 19.3121C33.8022 19.1692 33.8825 18.9755 33.8825 18.7734C33.8825 18.5714 33.8022 18.3777 33.6593 18.2348C33.5165 18.092 33.3228 18.0117 33.1207 18.0117H29.7365C29.5345 18.0117 29.3408 18.092 29.1979 18.2348C29.0551 18.3777 28.9748 18.5714 28.9748 18.7734C28.9748 18.9755 29.0551 19.1692 29.1979 19.3121C29.3408 19.4549 29.5345 19.5352 29.7365 19.5352Z" fill="#373A40"/>
<path d="M21.3281 29.6914H24.7559C24.9579 29.6914 25.1516 29.6112 25.2945 29.4683C25.4373 29.3255 25.5176 29.1317 25.5176 28.9297V25.502C25.5176 25.2999 25.4373 25.1062 25.2945 24.9633C25.1516 24.8205 24.9579 24.7402 24.7559 24.7402H21.3281C21.1261 24.7402 20.9324 24.8205 20.7895 24.9633C20.6467 25.1062 20.5664 25.2999 20.5664 25.502V28.9297C20.5664 29.1317 20.6467 29.3255 20.7895 29.4683C20.9324 29.6112 21.1261 29.6914 21.3281 29.6914ZM22.0898 26.2637H23.9941V28.168H22.0898V26.2637Z" fill="#373A40"/>
<path d="M29.7365 26.5176H43.6192C43.8213 26.5176 44.015 26.4373 44.1579 26.2945C44.3007 26.1516 44.381 25.9579 44.381 25.7559C44.381 25.5538 44.3007 25.3601 44.1579 25.2172C44.015 25.0744 43.8213 24.9941 43.6192 24.9941H29.7365C29.5345 24.9941 29.3408 25.0744 29.1979 25.2172C29.0551 25.3601 28.9748 25.5538 28.9748 25.7559C28.9748 25.9579 29.0551 26.1516 29.1979 26.2945C29.3408 26.4373 29.5345 26.5176 29.7365 26.5176Z" fill="#373A40"/>
<path d="M29.7365 29.6914H33.1207C33.3228 29.6914 33.5165 29.6112 33.6593 29.4683C33.8022 29.3255 33.8825 29.1317 33.8825 28.9297C33.8825 28.7277 33.8022 28.5339 33.6593 28.3911C33.5165 28.2482 33.3228 28.168 33.1207 28.168H29.7365C29.5345 28.168 29.3408 28.2482 29.1979 28.3911C29.0551 28.5339 28.9748 28.7277 28.9748 28.9297C28.9748 29.1317 29.0551 29.3255 29.1979 29.4683C29.3408 29.6112 29.5345 29.6914 29.7365 29.6914Z" fill="#373A40"/>
<path d="M11.4175 64.6035H53.5825C54.7933 64.6018 55.954 64.1195 56.8094 63.2625C57.6648 62.4056 58.145 61.2441 58.1445 60.0332V8.82552C58.1439 8.22835 58.0252 7.6372 57.7953 7.08607C57.5653 6.53495 57.2287 6.03474 56.8047 5.61421C56.3807 5.19369 55.8777 4.86116 55.3247 4.63574C54.7717 4.41033 54.1796 4.2965 53.5825 4.30078H43.6719V3.1582C43.6739 3.05915 43.6562 2.96069 43.6198 2.86856C43.5833 2.77643 43.529 2.69247 43.4598 2.62157C43.3906 2.55067 43.3079 2.49426 43.2167 2.45561C43.1255 2.41697 43.0275 2.39687 42.9284 2.39648H22.0716C21.9725 2.39687 21.8745 2.41697 21.7833 2.45561C21.6921 2.49426 21.6094 2.55067 21.5402 2.62157C21.471 2.69247 21.4166 2.77643 21.3802 2.86856C21.3438 2.96069 21.3261 3.05915 21.3281 3.1582V4.30078H11.4175C10.8204 4.2965 10.2283 4.41033 9.67528 4.63574C9.12228 4.86116 8.61932 5.19369 8.19533 5.61421C7.77133 6.03474 7.43468 6.53495 7.20473 7.08607C6.97479 7.6372 6.85609 8.22835 6.85547 8.82552V60.0332C6.85496 61.2441 7.33518 62.4056 8.19061 63.2625C9.04603 64.1195 10.2067 64.6018 11.4175 64.6035ZM22.8516 3.91992H42.1484V10.1406H22.8516V3.91992ZM22.0716 11.6641H42.9284C43.0256 11.6677 43.1224 11.6515 43.2131 11.6166C43.3038 11.5816 43.3865 11.5285 43.456 11.4606C43.5256 11.3927 43.5806 11.3114 43.6177 11.2215C43.6548 11.1317 43.6732 11.0352 43.6719 10.938V10.0137H51.0352V57.748H13.8379V10.0137H21.3281V10.938C21.3268 11.0352 21.3452 11.1317 21.3823 11.2215C21.4194 11.3114 21.4744 11.3927 21.544 11.4606C21.6135 11.5285 21.6962 11.5816 21.7869 11.6166C21.8776 11.6515 21.9744 11.6677 22.0716 11.6641ZM8.37891 8.82552C8.37932 8.42835 8.45847 8.0352 8.61178 7.66881C8.7651 7.30242 8.98953 6.97007 9.2721 6.69097C9.55467 6.41186 9.88978 6.19155 10.258 6.04278C10.6263 5.89401 11.0204 5.81972 11.4175 5.82422H21.3281V8.49023H13.1396C12.7191 8.49023 12.3145 8.83136 12.3145 9.25195V58.5462C12.3145 58.9669 12.7191 59.2715 13.1396 59.2715H51.8604C51.9551 59.2743 52.0495 59.2573 52.1373 59.2214C52.2251 59.1856 52.3044 59.1318 52.3701 59.0635C52.4359 58.9952 52.4867 58.9139 52.5191 58.8248C52.5516 58.7357 52.565 58.6408 52.5586 58.5462V9.25195C52.5586 8.83136 52.2809 8.49023 51.8604 8.49023H43.6719V5.82422H53.5825C53.9796 5.81972 54.3737 5.89401 54.742 6.04278C55.1102 6.19155 55.4453 6.41186 55.7279 6.69097C56.0105 6.97007 56.2349 7.30242 56.3882 7.66881C56.5415 8.0352 56.6207 8.42835 56.6211 8.82552V60.0332C56.6221 60.8402 56.3025 61.6145 55.7327 62.1858C55.1629 62.7572 54.3894 63.0789 53.5825 63.0801H11.4175C10.6106 63.0789 9.83715 62.7572 9.26732 62.1858C8.69749 61.6145 8.37793 60.8402 8.37891 60.0332V8.82552Z" fill="#373A40"/>
<path d="M10.0293 29.7144C10.2313 29.7144 10.4251 29.6341 10.5679 29.4913C10.7108 29.3484 10.791 29.1547 10.791 28.9527V16.0344C10.791 15.8324 10.7108 15.6387 10.5679 15.4958C10.4251 15.353 10.2313 15.2727 10.0293 15.2727C9.82728 15.2727 9.63353 15.353 9.49068 15.4958C9.34783 15.6387 9.26758 15.8324 9.26758 16.0344V28.9527C9.26758 29.1547 9.34783 29.3484 9.49068 29.4913C9.63353 29.6341 9.82728 29.7144 10.0293 29.7144Z" fill="#373A40"/>
<path d="M10.0293 14.424C10.2313 14.424 10.4251 14.3437 10.5679 14.2009C10.7108 14.058 10.791 13.8643 10.791 13.6623V13.0422C10.791 12.8402 10.7108 12.6465 10.5679 12.5036C10.4251 12.3608 10.2313 12.2805 10.0293 12.2805C9.82728 12.2805 9.63353 12.3608 9.49068 12.5036C9.34783 12.6465 9.26758 12.8402 9.26758 13.0422V13.6623C9.26758 13.8643 9.34783 14.058 9.49068 14.2009C9.63353 14.3437 9.82728 14.424 10.0293 14.424Z" fill="#373A40"/>
</svg>
