<svg width="70" height="65" viewBox="0 0 70 65" fill="none" xmlns="http://www.w3.org/2000/svg">
<path fill-rule="evenodd" clip-rule="evenodd" d="M37.2603 0.000746995C47.4177 0.0670728 57.0998 4.74581 63.5004 11.9725C69.3615 18.5902 68.8684 27.4961 69.1569 36.0145C69.46 44.9643 72.3892 55.5499 65.1811 61.5964C58.0375 67.5888 46.8327 64.1225 37.2603 62.7708C29.6395 61.6948 22.4677 59.5506 16.7961 54.7643C10.845 49.7422 6.6032 43.3649 5.5548 36.0145C4.338 27.4833 4.74792 18.3241 10.6435 11.6274C17.0586 4.34055 27.0427 -0.0659716 37.2603 0.000746995Z" fill="#27C9CF" fill-opacity="0.2"/>
<path d="M48.5006 29.8386V14.9193C48.5006 11.9764 46.1079 9.59646 43.1778 9.59646H38.5715C37.6886 6.7687 35.2063 4.64469 32.1738 4.31201C31.2654 1.76575 28.8471 0 26.0961 0C23.3451 0 20.9268 1.76575 20.0567 4.31201C17.0242 4.64469 14.5419 6.7687 13.6591 9.59646H9.05277C6.10986 9.59646 3.72994 11.9892 3.72994 14.9193V59.6772C3.72994 62.6201 6.12265 65 9.05277 65H43.1522C49.1276 64.5266 48.475 58.6024 48.475 58.6024H46.3382C46.351 58.6024 46.9908 62.4537 43.1522 62.8632H9.05277C7.28702 62.8632 5.85395 61.4301 5.85395 59.6644V14.9193C5.85395 13.1535 7.28702 11.7205 9.05277 11.7205H13.3264C13.3264 11.7589 13.3264 11.7972 13.3264 11.8228V14.9065H38.8914V11.8228C38.8914 11.7844 38.8914 11.7461 38.8914 11.7205H43.165C44.9307 11.7205 46.3638 13.1535 46.3638 14.9193V29.8386H48.5006ZM36.7545 12.7953C36.7545 12.8337 15.4504 12.8593 15.4376 12.7953C15.1817 5.89862 21.7457 6.39764 21.7457 6.39764C21.7457 6.39764 22.2703 2.13681 26.0961 2.13681C30.165 2.13681 30.4465 6.39764 30.4465 6.39764C30.4465 6.39764 36.8569 5.70669 36.7545 12.7953Z" fill="#373A40"/>
<path d="M36.7671 25.5776H15.4502V27.7145H36.7671V25.5776Z" fill="#373A40"/>
<path d="M35.6923 33.0374H15.4502V35.1742H35.6923V33.0374Z" fill="#373A40"/>
<path d="M31.4315 40.4968H15.4502V42.6336H31.4315V40.4968Z" fill="#373A40"/>
<path d="M17.587 47.9565H15.4502V50.0934H17.587V47.9565Z" fill="#373A40"/>
<path d="M21.8481 47.9565H19.7113V50.0934H21.8481V47.9565Z" fill="#373A40"/>
<path d="M26.1086 47.9565H23.9718V50.0934H26.1086V47.9565Z" fill="#373A40"/>
<path d="M47.9503 30.9004C46.2614 30.9004 44.6492 31.2331 43.1521 31.8089V18.1179H9.0527V59.677H43.1521V56.6445C44.6364 57.2203 46.2614 57.553 47.9503 57.553C55.2948 57.553 61.2702 51.5776 61.2702 44.2331C61.2702 36.8886 55.2948 30.9004 47.9503 30.9004ZM41.0153 57.5402H11.1767V20.2419H41.0153V32.8581C37.1895 35.1996 34.6177 39.4093 34.6177 44.2075C34.6177 49.0057 37.1895 53.2154 41.0153 55.5569V57.5402ZM47.9503 55.4034C41.783 55.4034 36.7673 50.3876 36.7673 44.2203C36.7673 38.053 41.783 33.0372 47.9503 33.0372C54.1177 33.0372 59.1334 38.053 59.1334 44.2203C59.1334 50.3876 54.1177 55.4034 47.9503 55.4034Z" fill="#373A40"/>
<path d="M53.0555 39.7422L46.3507 46.4469L43.9068 44.003L42.397 45.5129L46.3507 49.4538L54.5525 41.2392L53.0555 39.7422Z" fill="#373A40"/>
</svg>
