<svg width="73" height="68" viewBox="0 0 73 68" fill="none" xmlns="http://www.w3.org/2000/svg">
<path fill-rule="evenodd" clip-rule="evenodd" d="M42.7704 1.49856C51.1787 1.60621 60.6393 -2.49689 66.9533 3.76903C73.4119 10.1785 72.3237 21.3522 72.5519 31.0535C72.7896 41.1595 74.7016 52.7844 68.2718 59.8256C61.8745 66.8312 51.583 65.1891 42.7704 63.6671C35.4689 62.4061 29.7036 57.5361 24.0399 52.1863C17.5296 46.0368 9.4056 40.5429 8.24323 31.0535C6.98113 20.75 10.6879 9.42953 18.0324 3.14272C24.8735 -2.71316 34.1839 1.38863 42.7704 1.49856Z" fill="#27C9CF" fill-opacity="0.2"/>
<path d="M21.6667 38.75H19.5V40.9167H21.6667V38.75Z" fill="#373A40"/>
<path d="M21.6667 43.0833H19.5V45.2499H21.6667V43.0833Z" fill="#373A40"/>
<path d="M21.6667 47.4167H19.5V49.5834H21.6667V47.4167Z" fill="#373A40"/>
<path d="M21.6667 34.4167H19.5V36.5834H21.6667V34.4167Z" fill="#373A40"/>
<path d="M21.6667 30.0833H19.5V32.2499H21.6667V30.0833Z" fill="#373A40"/>
<path d="M21.6667 25.75H19.5V27.9167H21.6667V25.75Z" fill="#373A40"/>
<path d="M21.6667 21.4167H19.5V23.5834H21.6667V21.4167Z" fill="#373A40"/>
<path d="M6.50004 21.4167H4.33337V23.5834H6.50004V21.4167Z" fill="#373A40"/>
<path d="M60.6667 21.4167H58.5V23.5834H60.6667V21.4167Z" fill="#373A40"/>
<path d="M60.6667 47.4167H58.5V49.5834H60.6667V47.4167Z" fill="#373A40"/>
<path d="M6.50004 47.4167H4.33337V49.5834H6.50004V47.4167Z" fill="#373A40"/>
<path d="M63.9167 30.0833C64.5149 30.0833 65 29.5982 65 28.9999V18.1666C65 17.5683 64.5149 17.0833 63.9167 17.0833H1.08333C0.485062 17.0833 0 17.5683 0 18.1666V28.9999C0 29.5982 0.485062 30.0833 1.08333 30.0833C4.07482 30.0833 6.5 32.5084 6.5 35.4999C6.5 38.4914 4.07482 40.9166 1.08333 40.9166C0.485062 40.9166 0 41.4016 0 41.9999V52.8333C0 53.4315 0.485062 53.9166 1.08333 53.9166H63.9167C64.5149 53.9166 65 53.4315 65 52.8333V41.9999C65 41.4016 64.5149 40.9166 63.9167 40.9166C60.9252 40.9166 58.5 38.4914 58.5 35.4999C58.5 32.5084 60.9252 30.0833 63.9167 30.0833ZM56.4043 36.5773C56.8826 39.9099 59.5009 42.528 62.8333 43.0063V51.7499H2.16667V43.0063C6.31231 42.4113 9.19073 38.5683 8.59571 34.4225C8.11742 31.0901 5.49927 28.4718 2.16667 27.9935V19.2499H62.8333V27.9935C58.6877 28.5885 55.8093 32.4315 56.4043 36.5773Z" fill="#373A40"/>
<path d="M32.5 24.6667C30.1067 24.6667 28.1666 26.6069 28.1666 29.0001C28.1666 31.3933 30.1067 33.3334 32.5 33.3334C34.8932 33.3334 36.8333 31.3933 36.8333 29.0001C36.8333 26.6069 34.8932 24.6667 32.5 24.6667ZM32.5 31.1667C31.3033 31.1667 30.3333 30.1968 30.3333 29.0001C30.3333 27.8034 31.3033 26.8334 32.5 26.8334C33.6966 26.8334 34.6666 27.8034 34.6666 29.0001C34.6666 30.1968 33.6966 31.1667 32.5 31.1667Z" fill="#373A40"/>
<path d="M45.5 37.6667C43.1067 37.6667 41.1666 39.6069 41.1666 42.0001C41.1666 44.3933 43.1067 46.3334 45.5 46.3334C47.8932 46.3334 49.8333 44.3933 49.8333 42.0001C49.8333 39.6069 47.8932 37.6667 45.5 37.6667ZM45.5 44.1667C44.3033 44.1667 43.3333 43.1968 43.3333 42.0001C43.3333 40.8034 44.3033 39.8334 45.5 39.8334C46.6966 39.8334 47.6666 40.8034 47.6666 42.0001C47.6666 43.1968 46.6966 44.1667 45.5 44.1667Z" fill="#373A40"/>
<path d="M46.9003 26.0652L29.5674 43.3982L31.0994 44.9302L48.4324 27.5973L46.9003 26.0652Z" fill="#373A40"/>
</svg>
