<svg width="82" height="68" viewBox="0 0 82 68" fill="none" xmlns="http://www.w3.org/2000/svg">
<path fill-rule="evenodd" clip-rule="evenodd" d="M52.1386 0.038019C61.1046 0.747153 64.2527 11.5428 69.9307 18.2732C74.6328 23.8469 81.9699 28.2485 81.9999 35.4342C82.03 42.6331 75.2883 47.5829 70.0746 52.7341C64.7614 57.9834 59.7173 64.3178 52.1386 64.9371C44.1231 65.5921 36.9497 61.0313 30.8822 55.9369C24.2466 50.3655 16.9408 43.9195 17.0004 35.4342C17.0597 26.9757 25.103 21.317 31.1681 15.2074C37.4501 8.87932 43.0858 -0.677988 52.1386 0.038019Z" fill="#27C9CF" fill-opacity="0.2"/>
<path d="M57.7393 7.20646H56.5882V6.05538C56.5882 4.37059 55.2176 3 53.5329 3C51.8481 3 50.4775 4.37059 50.4775 6.05538V7.20646H46.0722V6.05538C46.0723 4.37059 44.7016 3 43.0169 3C41.3323 3 39.9616 4.37059 39.9616 6.05538V7.20646H35.5563V6.05538C35.5563 4.37059 34.1857 3 32.5009 3C30.8161 3 29.4455 4.37059 29.4455 6.05538V7.20646H25.0403V6.05538C25.0404 4.37059 23.6697 3 21.985 3C20.3002 3 18.9296 4.37059 18.9296 6.05538V7.20646H17.7784C14.934 7.20646 12.6201 9.52057 12.6201 12.3648V35.6654L10.291 33.3363C9.09964 32.145 7.16132 32.1451 5.96999 33.3363L2.99561 36.3107C1.80428 37.5019 1.80428 39.4404 2.99561 40.6316L12.6199 50.2559V62.8415C12.6199 65.6859 14.934 68 17.7783 68H50.1686C50.6944 68 51.1207 67.5737 51.1207 67.0479C51.1207 66.522 50.6944 66.0957 50.1686 66.0957H17.7784C15.9841 66.0957 14.5243 64.6359 14.5243 62.8415V52.1602L22.2918 59.9277C22.3144 59.9503 22.3381 59.9716 22.3626 59.9915C22.3792 60.0051 22.3965 60.0172 22.4137 60.0295C22.4218 60.0352 22.4295 60.0417 22.4377 60.0471C22.4596 60.0617 22.482 60.0747 22.5047 60.0873C22.5091 60.0897 22.5131 60.0925 22.5174 60.0948C22.5414 60.1076 22.5659 60.1187 22.5906 60.1293C22.5943 60.1308 22.5977 60.1328 22.6015 60.1344C22.6255 60.1443 22.6499 60.1526 22.6744 60.1605C22.6794 60.1622 22.6843 60.1642 22.6893 60.1657C22.7124 60.1727 22.7358 60.1782 22.7592 60.1832C22.7661 60.1848 22.7729 60.1869 22.7799 60.1883C22.8026 60.1928 22.8254 60.1957 22.8484 60.1985C22.8564 60.1995 22.8642 60.2011 22.8722 60.2019C22.903 60.205 22.9341 60.2065 22.9651 60.2065H28.5194L29.7277 61.4148C29.9136 61.6007 30.1574 61.6937 30.401 61.6937C30.6446 61.6937 30.8884 61.6007 31.0742 61.4148C31.4461 61.043 31.4461 60.4401 31.0742 60.0682L29.8659 58.86V53.3059C29.8659 53.2747 29.8643 53.2436 29.8613 53.2125C29.8607 53.2056 29.8591 53.199 29.8584 53.1922C29.8555 53.1681 29.8523 53.1441 29.8476 53.1202C29.8463 53.1141 29.8445 53.1081 29.8431 53.1021C29.8378 53.0778 29.8321 53.0536 29.825 53.0297C29.8237 53.0254 29.8219 53.0213 29.8205 53.017C29.8126 52.9917 29.8038 52.9666 29.7936 52.9418C29.7925 52.9392 29.7911 52.9366 29.79 52.934C29.779 52.9082 29.7672 52.8827 29.754 52.8578C29.7522 52.8545 29.7502 52.8516 29.7484 52.8483C29.7354 52.8244 29.7217 52.8009 29.7064 52.7781C29.7017 52.771 29.6961 52.7644 29.6912 52.7574C29.6782 52.739 29.6653 52.7206 29.6509 52.7029C29.6309 52.6784 29.6097 52.6548 29.5871 52.6322L21.8195 44.8646H54.5844C55.1102 44.8646 55.5366 44.4383 55.5366 43.9124C55.5366 43.3866 55.1102 42.9603 54.5844 42.9603H20.9333C20.6536 42.9603 20.4028 43.0816 20.2286 43.2737L14.5242 37.5693V19.6267H60.9934V26.1204C60.9934 26.6463 61.4197 27.0726 61.9455 27.0726C62.4714 27.0726 62.8977 26.6463 62.8977 26.1204V12.3648C62.8978 9.52044 60.5837 7.20646 57.7393 7.20646ZM27.9617 58.3023H25.2638L27.9617 55.6044V58.3023ZM7.98982 42.9327L9.61774 41.3049L24.593 56.2802L22.9652 57.908L7.98982 42.9327ZM25.9395 54.9336L10.9642 39.9583L12.5921 38.3305L27.5674 53.3058L25.9395 54.9336ZM4.3422 37.6573L7.31658 34.6829C7.76536 34.2341 8.49573 34.234 8.9445 34.6829L11.2457 36.9841L6.64335 41.5861L4.34233 39.2851C3.89342 38.8363 3.89342 38.1061 4.3422 37.6573ZM53.5329 4.9043C54.1676 4.9043 54.6839 5.42062 54.6839 6.05538V10.2617C54.6839 10.8965 54.1676 11.4128 53.5329 11.4128C52.8981 11.4128 52.3818 10.8965 52.3818 10.2617V8.15988C52.3818 8.1595 52.3818 8.15912 52.3818 8.15861C52.3818 8.15811 52.3818 8.15785 52.3818 8.15734V6.05538C52.3819 5.42062 52.8982 4.9043 53.5329 4.9043ZM43.0169 4.9043C43.6517 4.9043 44.168 5.42062 44.168 6.05538V10.2617C44.168 10.8965 43.6517 11.4128 43.0169 11.4128C42.3822 11.4128 41.8659 10.8965 41.8659 10.2617V8.15988C41.8659 8.1595 41.8659 8.15912 41.8659 8.15861C41.8659 8.15811 41.8659 8.15785 41.8659 8.15734V6.05538C41.8659 5.42062 42.3822 4.9043 43.0169 4.9043ZM31.35 6.05538C31.35 5.42062 31.8663 4.9043 32.501 4.9043C33.1358 4.9043 33.6521 5.42062 33.6521 6.05538V8.15734V8.15861C33.6521 8.15861 33.6521 8.15938 33.6521 8.15988V10.2617C33.6521 10.8965 33.1358 11.4128 32.501 11.4128C31.8664 11.4128 31.35 10.8965 31.35 10.2617V6.05538ZM21.985 4.9043C22.6196 4.9043 23.1361 5.42062 23.1361 6.05538V10.2617C23.1361 10.8965 22.6198 11.4128 21.985 11.4128C21.3502 11.4128 20.8339 10.8965 20.8339 10.2617V6.05538C20.8339 5.42062 21.3502 4.9043 21.985 4.9043ZM14.5243 17.7224V12.3648C14.5243 10.5705 15.9842 9.11076 17.7784 9.11076H18.9296V10.2617C18.9296 11.9465 20.3002 13.3171 21.985 13.3171C23.6697 13.3171 25.0404 11.9465 25.0404 10.2617V9.11076H29.4457V10.2617C29.4457 11.9465 30.8162 13.3171 32.501 13.3171C34.1858 13.3171 35.5564 11.9465 35.5564 10.2617V9.11076H39.9617V10.2617C39.9617 11.9465 41.3323 13.3171 43.0171 13.3171C44.7019 13.3171 46.0725 11.9465 46.0725 10.2617V9.11076H50.4777V10.2617C50.4777 11.9465 51.8483 13.3171 53.5331 13.3171C55.2179 13.3171 56.5885 11.9465 56.5885 10.2617V9.11076H57.7396C59.5339 9.11076 60.9938 10.5706 60.9938 12.3648V17.7224H14.5243Z" fill="#373A40"/>
<path d="M61.9457 28.9771C61.4198 28.9771 60.9935 29.4034 60.9935 29.9292V62.8415C60.9935 64.6359 59.5337 66.0957 57.7393 66.0957H53.9772C53.4514 66.0957 53.0251 66.522 53.0251 67.0479C53.0251 67.5737 53.4514 68 53.9772 68H57.7393C60.5837 68 62.8978 65.6859 62.8978 62.8415V29.9292C62.8978 29.4034 62.4715 28.9771 61.9457 28.9771Z" fill="#373A40"/>
<path d="M20.9333 25.9363H54.5844C55.1102 25.9363 55.5365 25.51 55.5365 24.9841C55.5365 24.4583 55.1102 24.032 54.5844 24.032H20.9333C20.4074 24.032 19.9811 24.4583 19.9811 24.9841C19.9811 25.51 20.4074 25.9363 20.9333 25.9363Z" fill="#373A40"/>
<path d="M20.9333 32.2458H54.5844C55.1102 32.2458 55.5365 31.8195 55.5365 31.2937C55.5365 30.7679 55.1102 30.3416 54.5844 30.3416H20.9333C20.4074 30.3416 19.9811 30.7679 19.9811 31.2937C19.9811 31.8195 20.4074 32.2458 20.9333 32.2458Z" fill="#373A40"/>
<path d="M20.9333 38.5553H54.5844C55.1102 38.5553 55.5365 38.129 55.5365 37.6031C55.5365 37.0773 55.1102 36.651 54.5844 36.651H20.9333C20.4074 36.651 19.9811 37.0773 19.9811 37.6031C19.9811 38.129 20.4074 38.5553 20.9333 38.5553Z" fill="#373A40"/>
<path d="M55.5367 50.2224C55.5367 49.6966 55.1104 49.2703 54.5846 49.2703H32.5011C31.9752 49.2703 31.5489 49.6966 31.5489 50.2224C31.5489 50.7483 31.9752 51.1746 32.5011 51.1746H54.5846C55.1104 51.1746 55.5367 50.7483 55.5367 50.2224Z" fill="#373A40"/>
</svg>
