<svg width="81" height="75" viewBox="0 0 81 75" fill="none" xmlns="http://www.w3.org/2000/svg">
<path fill-rule="evenodd" clip-rule="evenodd" d="M45.9663 0.0587635C56.2802 -0.562614 66.4161 3.79791 73.2888 10.5794C79.8253 17.0291 81.3316 25.9442 80.9433 34.5713C80.573 42.7974 77.3529 50.5187 71.211 56.7387C64.5339 63.5005 56.1551 69.7608 45.9663 69.9926C35.5973 70.2285 26.1651 64.806 19.3787 57.9179C13.0633 51.5077 10.5382 43.0346 11.0686 34.5713C11.5687 26.5908 16.1089 19.6368 22.1523 13.6602C28.6883 7.1963 36.1453 0.650448 45.9663 0.0587635Z" fill="#27C9CF" fill-opacity="0.2"/>
<path d="M59.9755 10H11.145C10.618 10 10.191 10.427 10.191 10.954V42.5C10.191 43.027 10.618 43.454 11.145 43.454C11.672 43.454 12.099 43.027 12.099 42.5V11.908H59.0215V67.9403C59.0215 70.781 56.7105 73.092 53.8699 73.092C51.0292 73.092 48.7182 70.781 48.7182 67.9403C48.7182 67.4133 48.2912 66.9863 47.7642 66.9863H12.099V46.997C12.099 46.47 11.672 46.0429 11.145 46.0429C10.618 46.0429 10.191 46.47 10.191 46.997V66.9863H5.02445C4.49745 66.9863 4.07043 67.4133 4.07043 67.9403C4.07043 71.8331 7.23737 75 11.1301 75H11.145H53.8699C57.7626 75 60.9295 71.8331 60.9295 67.9403V10.954C60.9295 10.427 60.5025 10 59.9755 10ZM11.145 73.092H11.1301C8.61535 73.092 6.51576 71.2806 6.06699 68.8943H46.8744C47.0976 70.5407 47.8906 72.0082 49.0476 73.092H11.145Z" fill="#373A40"/>
<path d="M54.8238 17.0597C54.8238 16.5327 54.3968 16.1057 53.8698 16.1057H17.2358C16.7088 16.1057 16.2817 16.5327 16.2817 17.0597V25.2006C16.2817 25.7276 16.7088 26.1546 17.2358 26.1546H53.8698C54.3968 26.1546 54.8238 25.7276 54.8238 25.2006V17.0597ZM52.9158 24.2466H18.1898V18.0137H52.9158V24.2466Z" fill="#373A40"/>
<path d="M17.2358 32.2603H23.3414C23.8684 32.2603 24.2954 31.8333 24.2954 31.3063C24.2954 30.7793 23.8684 30.3523 23.3414 30.3523H17.2358C16.7088 30.3523 16.2817 30.7793 16.2817 31.3063C16.2817 31.8333 16.7088 32.2603 17.2358 32.2603Z" fill="#373A40"/>
<path d="M53.8698 30.3523H28.4295C27.9025 30.3523 27.4755 30.7793 27.4755 31.3063C27.4755 31.8333 27.9025 32.2603 28.4295 32.2603H53.8698C54.3968 32.2603 54.8238 31.8333 54.8238 31.3063C54.8238 30.7793 54.3968 30.3523 53.8698 30.3523Z" fill="#373A40"/>
<path d="M17.2358 36.3308H28.4295C28.9565 36.3308 29.3835 35.9037 29.3835 35.3767C29.3835 34.8497 28.9565 34.4227 28.4295 34.4227H17.2358C16.7088 34.4227 16.2817 34.8497 16.2817 35.3767C16.2817 35.9037 16.7088 36.3308 17.2358 36.3308Z" fill="#373A40"/>
<path d="M53.8699 34.4227H32.5C31.973 34.4227 31.546 34.8497 31.546 35.3767C31.546 35.9037 31.973 36.3308 32.5 36.3308H53.8699C54.3969 36.3308 54.8239 35.9037 54.8239 35.3767C54.8239 34.8497 54.3969 34.4227 53.8699 34.4227Z" fill="#373A40"/>
<path d="M17.2358 62.7886H24.359C24.886 62.7886 25.3131 62.3616 25.3131 61.8346C25.3131 61.3076 24.886 60.8806 24.359 60.8806H17.2358C16.7088 60.8806 16.2817 61.3076 16.2817 61.8346C16.2817 62.3616 16.7088 62.7886 17.2358 62.7886Z" fill="#373A40"/>
<path d="M28.4295 62.7886H53.8698C54.3968 62.7886 54.8238 62.3616 54.8238 61.8346C54.8238 61.3076 54.3968 60.8806 53.8698 60.8806H28.4295C27.9025 60.8806 27.4755 61.3076 27.4755 61.8346C27.4755 62.3616 27.9025 62.7886 28.4295 62.7886Z" fill="#373A40"/>
<path d="M23.3415 57.7006C23.8685 57.7006 24.2955 57.2735 24.2955 56.7466V55.6653H24.3591C26.5685 55.6653 28.3659 53.8679 28.3659 51.6585C28.3659 49.4491 26.5685 47.6516 24.3591 47.6516H22.3239C21.1666 47.6516 20.225 46.7101 20.225 45.5528C20.225 44.3955 21.1666 43.454 22.3239 43.454H27.4119C27.9389 43.454 28.3659 43.027 28.3659 42.5C28.3659 41.973 27.9389 41.546 27.4119 41.546H24.2955V40.4648C24.2955 39.9378 23.8685 39.5107 23.3415 39.5107C22.8145 39.5107 22.3875 39.9378 22.3875 40.4648V41.546H22.3239C20.1145 41.546 18.317 43.3435 18.317 45.5528C18.317 47.7622 20.1145 49.5597 22.3239 49.5597H24.3591C25.5164 49.5597 26.4579 50.5012 26.4579 51.6585C26.4579 52.8158 25.5164 53.7573 24.3591 53.7573H19.271C18.744 53.7573 18.317 54.1843 18.317 54.7113C18.317 55.2383 18.744 55.6653 19.271 55.6653H22.3875V56.7466C22.3875 57.2735 22.8145 57.7006 23.3415 57.7006Z" fill="#373A40"/>
<path d="M36.5704 53.7573H31.4823C30.9553 53.7573 30.5283 54.1843 30.5283 54.7113C30.5283 55.2383 30.9553 55.6653 31.4823 55.6653H34.5988V56.7466C34.5988 57.2735 35.0258 57.7006 35.5528 57.7006C36.0798 57.7006 36.5068 57.2735 36.5068 56.7466V55.6653H36.5704C38.7798 55.6653 40.5772 53.8679 40.5772 51.6585C40.5772 49.4491 38.7798 47.6516 36.5704 47.6516H34.5352C33.3779 47.6516 32.4363 46.7101 32.4363 45.5528C32.4363 44.3955 33.3779 43.454 34.5352 43.454H39.6232C40.1502 43.454 40.5772 43.027 40.5772 42.5C40.5772 41.973 40.1502 41.546 39.6232 41.546H36.5068V40.4648C36.5068 39.9378 36.0798 39.5107 35.5528 39.5107C35.0258 39.5107 34.5988 39.9378 34.5988 40.4648V41.546H34.5352C32.3258 41.546 30.5283 43.3435 30.5283 45.5528C30.5283 47.7622 32.3258 49.5597 34.5352 49.5597H36.5704C37.7277 49.5597 38.6692 50.5012 38.6692 51.6585C38.6692 52.8158 37.7277 53.7573 36.5704 53.7573Z" fill="#373A40"/>
<path d="M48.7818 53.7573H43.6938C43.1668 53.7573 42.7397 54.1843 42.7397 54.7113C42.7397 55.2383 43.1668 55.6653 43.6938 55.6653H46.8102V56.7466C46.8102 57.2735 47.2372 57.7006 47.7642 57.7006C48.2912 57.7006 48.7182 57.2735 48.7182 56.7466V55.6653H48.7818C50.9912 55.6653 52.7887 53.8679 52.7887 51.6585C52.7887 49.4491 50.9912 47.6516 48.7818 47.6516H46.7466C45.5893 47.6516 44.6478 46.7101 44.6478 45.5528C44.6478 44.3955 45.5893 43.454 46.7466 43.454H51.8347C52.3617 43.454 52.7887 43.027 52.7887 42.5C52.7887 41.973 52.3617 41.546 51.8347 41.546H48.7182V40.4648C48.7182 39.9378 48.2912 39.5107 47.7642 39.5107C47.2372 39.5107 46.8102 39.9378 46.8102 40.4648V41.546H46.7466C44.5372 41.546 42.7397 43.3435 42.7397 45.5528C42.7397 47.7622 44.5372 49.5597 46.7466 49.5597H48.7818C49.9391 49.5597 50.8806 50.5012 50.8806 51.6585C50.8806 52.8158 49.9391 53.7573 48.7818 53.7573Z" fill="#373A40"/>
<defs>
<clipPath id="clip0">
<rect width="65" height="65" fill="white" transform="translate(0 10)"/>
</clipPath>
</defs>
</svg>
