<svg width="45" height="45" viewBox="0 0 45 45" fill="none" xmlns="http://www.w3.org/2000/svg">
<path d="M44.6861 16.1659L39.6586 3.09444C38.7059 0.623409 35.9304 -0.607423 33.4594 0.34525C33.4235 0.359111 33.3878 0.373346 33.3522 0.38805L8.22828 10.8026C5.83601 11.784 4.66025 14.4919 5.57668 16.9098L6.26749 18.7537H4.68282C2.09781 18.7566 0.00290335 20.8515 0 23.4365V40.2946C0.00290335 42.8797 2.09781 44.9746 4.68282 44.9775H36.526C39.111 44.9746 41.2059 42.8797 41.2088 40.2946V23.4365C41.2073 23.1823 41.1847 22.9287 41.1414 22.6783L42.0113 22.3261C44.4249 21.3368 45.6111 18.6049 44.6861 16.1659ZM4.68282 20.2523H36.526C38.2077 20.2571 39.5949 21.5704 39.6916 23.2493H1.51723C1.61389 21.5703 3.00113 20.257 4.68282 20.2523ZM12.2135 15.7388L17.2215 13.234L18.251 15.8092L13.243 18.3132L12.2135 15.7388ZM39.7103 40.2947C39.7082 42.0526 38.2838 43.477 36.526 43.479H4.68282C2.92498 43.477 1.50056 42.0526 1.4985 40.2947V30.7418H39.7103V40.2947ZM39.7103 29.2433H1.4985V24.7478H39.7103V29.2433ZM41.4493 20.9416L40.6664 21.2585C39.8576 19.7203 38.2639 18.7562 36.526 18.7538H15.7133L19.5382 16.8409C19.887 16.6668 20.0441 16.2544 19.8994 15.8924L18.3102 11.9214C18.1565 11.5372 17.7205 11.3502 17.3364 11.5038C17.317 11.5116 17.298 11.5201 17.2793 11.5295L10.9264 14.7078C10.5779 14.8822 10.4212 15.2946 10.566 15.6564L11.8053 18.7538H7.86714L6.98002 16.3876C6.35112 14.7264 7.15891 12.8664 8.8022 12.1918L33.9253 1.77726C35.6049 1.08083 37.531 1.87775 38.2275 3.55729C38.2384 3.58342 38.2489 3.60973 38.259 3.63615L43.2865 16.7076C43.9225 18.3836 43.1078 20.2612 41.4493 20.9416Z" fill="white"/>
<path d="M26.9519 41.3722C28.3481 42.1834 30.0722 42.1834 31.4684 41.3722C33.6152 42.6194 36.3667 41.8901 37.6139 39.7434C38.8611 37.5966 38.1318 34.8451 35.985 33.5979C35.296 33.1976 34.513 32.9876 33.7162 32.9895C32.9263 32.9899 32.1506 33.1998 31.4684 33.5979C29.3216 32.3507 26.5702 33.0799 25.323 35.2267C24.0758 37.3736 24.8051 40.1249 26.9519 41.3722ZM32.7212 34.6709C33.0399 34.5535 33.3765 34.4917 33.7162 34.4881C35.3714 34.4881 36.7132 35.8299 36.7132 37.4851C36.7132 39.1403 35.3714 40.4821 33.7162 40.4821C33.3765 40.4786 33.0399 40.4167 32.7212 40.2993C34.0477 38.6576 34.0477 36.3125 32.7212 34.6709ZM31.4684 35.5236C32.4675 36.6405 32.4675 38.3297 31.4684 39.4467C30.4694 38.3297 30.4694 36.6404 31.4684 35.5236ZM29.2207 34.4881C29.5604 34.4916 29.897 34.5535 30.2157 34.6709C28.8891 36.3125 28.8891 38.6577 30.2157 40.2993C29.897 40.4167 29.5604 40.4786 29.2207 40.4821C27.5655 40.4821 26.2237 39.1403 26.2237 37.4851C26.2237 35.8298 27.5655 34.4881 29.2207 34.4881Z" fill="white"/>
<path d="M31.6052 15.4857L32.2139 16.855L39.3618 13.6776L38.7531 12.3083L31.6052 15.4857Z" fill="white"/>
<path d="M37.158 9.13594L26.8335 13.9014L27.4612 15.2613L37.7857 10.4959L37.158 9.13594Z" fill="white"/>
<defs>
<clipPath id="clip0">
<rect width="45" height="45" fill="white"/>
</clipPath>
</defs>
</svg>
