<svg width="554" height="504" viewBox="0 0 554 504" fill="none" xmlns="http://www.w3.org/2000/svg">
<path d="M150.97 339.486L306.018 249.922C317.11 243.504 317.041 231.502 306.018 225.154L210.279 169.861C200.885 164.415 186.118 164.415 176.725 169.861L21.6418 259.461C-51.6708 304.07 78.94 376.221 150.97 339.486Z" fill="#BFD3FF"/>
<path d="M51.036 177.829C52.7345 182.894 53.4278 191.08 61.0884 181.055C68.7142 171.065 66.5651 164.752 64.9013 159.687C58.3846 140.192 48.263 169.504 51.036 177.829Z" fill="#C2C2C2"/>
<path d="M61.0882 181.09C59.4937 183.171 58.2112 184.455 57.1366 185.148C55.8541 183.691 54.9528 180.847 53.9129 178.627C51.1745 172.765 54.0863 154.9 59.0778 153.235C61.6082 152.646 63.6186 155.976 64.8665 159.722C66.565 164.786 68.7141 171.065 61.0882 181.09Z" fill="#EDEDED"/>
<path d="M308.965 216.467L276.728 197.839L287.023 184.38L311.599 201.412L308.965 216.467Z" fill="#545454"/>
<path d="M300.61 203.429C296 200.793 290.385 202.215 285.809 204.886C269.899 214.079 259.604 240.06 267.611 251.576C268.547 252.929 269.691 254.005 271.008 254.768L258.46 247.518C254.682 245.333 252.325 240.615 252.325 233.955C252.325 220.6 261.718 204.296 273.261 197.636C279.05 194.306 284.284 193.994 288.062 196.179L300.61 203.429Z" fill="#212121"/>
<path d="M306.746 216.982C306.746 230.337 297.353 246.64 285.81 253.3C274.232 259.995 264.873 254.514 264.873 241.194C264.873 222.983 282.032 200.956 296.139 202.066C303.488 202.621 306.746 209.42 306.746 216.982Z" fill="#343434"/>
<path d="M285.775 245.23C278.08 249.67 271.806 246.062 271.806 237.147C271.806 228.232 278.08 217.375 285.775 212.935C293.47 208.495 299.744 212.102 299.744 221.017C299.744 229.932 293.505 240.79 285.775 245.23Z" fill="#DDDDDD"/>
<path d="M287.37 221.323C286.191 221.566 285.082 222.329 284.215 223.162C282.829 218.028 280.888 217.785 285.775 214.941C290.732 212.062 288.756 214.733 287.37 221.323Z" fill="#AFAFAF"/>
<path d="M291.737 223.784C291.529 222.848 291.044 221.98 290.143 221.53C293.887 214.973 293.956 212.337 296.417 215.806C298.878 219.344 296.729 219.448 291.737 223.784Z" fill="#AFAFAF"/>
<path d="M290.143 231.59C290.906 230.341 291.46 228.919 291.703 227.531C296.868 226.109 298.843 223.716 296.417 230.029C293.956 236.412 293.748 233.775 290.143 231.59Z" fill="#AFAFAF"/>
<path d="M284.216 236.894C285.394 236.651 286.504 235.888 287.37 235.055C288.757 240.189 290.698 240.432 285.81 243.276C280.853 246.121 282.795 243.45 284.216 236.894Z" fill="#AFAFAF"/>
<path d="M279.848 234.399C280.056 235.336 280.541 236.203 281.442 236.654C277.699 243.21 277.629 245.847 275.168 242.378C272.672 238.839 274.821 238.77 279.848 234.399Z" fill="#AFAFAF"/>
<path d="M281.408 226.595C280.645 227.843 280.09 229.266 279.848 230.653C274.683 232.075 272.707 234.469 275.134 228.156C277.629 221.808 277.803 224.409 281.408 226.595Z" fill="#AFAFAF"/>
<path d="M286.969 229.8C287.63 228.655 287.628 227.416 286.965 227.033C286.301 226.65 285.229 227.268 284.568 228.412C283.908 229.557 283.91 230.796 284.573 231.179C285.236 231.562 286.309 230.944 286.969 229.8Z" fill="#AFAFAF"/>
<path d="M281.408 226.595C280.646 227.844 280.091 229.266 279.848 230.653C277.63 231.278 275.966 232.041 275.03 232.249C275.55 229.543 276.625 226.768 278.15 224.236C278.913 224.583 279.814 225.624 281.408 226.595Z" fill="#343434"/>
<path d="M288.896 215.014C288.723 216.262 287.995 218.413 287.371 221.292C286.193 221.535 285.083 222.298 284.217 223.131C283.593 220.911 282.9 219.592 282.692 218.586C284.425 217.025 286.609 215.569 288.896 215.014Z" fill="#343434"/>
<path d="M296.556 219.868C295.621 220.805 293.957 221.88 291.738 223.822C291.53 222.886 291.045 222.019 290.144 221.568C291.773 218.723 292.709 216.642 293.437 215.428C294.962 216.226 296.036 217.717 296.556 219.868Z" fill="#343434"/>
<path d="M296.556 225.94C296.037 228.646 294.962 231.421 293.437 233.953C292.674 233.641 291.738 232.566 290.144 231.594C290.906 230.38 291.461 228.923 291.704 227.536C293.957 226.911 295.621 226.114 296.556 225.94Z" fill="#343434"/>
<path d="M288.896 239.603C287.163 241.198 284.979 242.655 282.692 243.176C282.865 241.927 283.593 239.776 284.217 236.897C285.395 236.62 286.505 235.891 287.371 235.059C287.96 237.279 288.688 238.597 288.896 239.603Z" fill="#343434"/>
<path d="M281.443 236.657C279.814 239.501 278.878 241.582 278.15 242.796C276.659 241.999 275.55 240.507 275.03 238.391C275.966 237.455 277.63 236.379 279.848 234.437C280.056 235.339 280.542 236.206 281.443 236.657Z" fill="#343434"/>
<path d="M287.368 221.332C286.224 221.575 285.081 222.338 284.214 223.171C284.11 222.755 283.972 222.338 283.868 221.957C284.665 221.298 285.6 220.743 286.571 220.535C287.264 217.309 288.096 214.985 288.165 213.84C289.863 213.458 288.442 216.233 287.368 221.332Z" fill="#999999"/>
<path d="M291.736 223.792C291.632 223.376 291.493 222.994 291.32 222.647C296.034 218.623 298.357 218.381 295.202 214.461C295.549 214.704 295.93 215.12 296.416 215.814C298.877 219.352 296.727 219.456 291.736 223.792Z" fill="#999999"/>
<path d="M296.451 230.04C293.99 236.423 293.782 233.787 290.177 231.601C290.211 231.532 290.246 231.462 290.281 231.428C293.019 233.405 293.4 235.035 295.653 229.242C296.277 227.612 296.624 226.571 296.693 225.947C297.768 225.739 297.768 226.571 296.451 230.04Z" fill="#999999"/>
<path d="M285.809 243.291C283.313 244.748 282.585 244.748 282.62 243.604C283.105 243.5 283.868 243.153 284.977 242.494C289.448 239.927 288.201 239.476 286.883 235.487C287.022 235.348 287.195 235.244 287.334 235.105C288.755 240.204 290.696 240.447 285.809 243.291Z" fill="#999999"/>
<path d="M281.441 236.628C277.905 242.767 277.628 245.508 275.583 242.906C276.97 243.808 277.593 241.102 280.575 235.934C280.817 236.246 281.094 236.489 281.441 236.628Z" fill="#999999"/>
<path d="M281.406 226.61C280.679 227.825 280.089 229.281 279.847 230.669C276.034 231.71 273.954 233.305 274.127 231.467C275.063 231.328 276.727 230.496 279.049 229.836C279.292 228.518 279.812 227.131 280.505 225.951C280.783 226.194 281.095 226.402 281.406 226.61Z" fill="#999999"/>
<path d="M285.774 231.047C284.977 231.498 284.283 231.255 284.11 230.457C285.358 230.596 286.917 228.411 286.605 226.919C288.165 227.058 287.472 230.076 285.774 231.047Z" fill="#999999"/>
<path d="M170.831 296.458L138.595 277.865L148.89 264.372L174.852 282.444L170.831 296.458Z" fill="#545454"/>
<path d="M162.581 282.506C157.729 279.73 151.871 281.257 147.018 284.032C130.553 293.536 119.426 320.732 127.884 333.046C128.854 334.468 130.067 335.578 131.454 336.411L118.525 328.953C114.538 326.664 112.077 321.738 112.077 314.696C112.077 300.682 121.956 283.581 134.088 276.574C140.154 273.07 145.666 272.758 149.652 275.048L162.581 282.506Z" fill="#212121"/>
<path d="M169.028 296.765C169.028 310.779 159.149 327.88 147.017 334.887C134.885 341.894 125.006 336.206 125.006 322.192C125.006 303.078 143.031 279.941 157.832 281.086C165.597 281.676 169.028 288.822 169.028 296.765Z" fill="#343434"/>
<path d="M147.052 326.414C138.975 331.097 132.389 327.281 132.389 317.95C132.389 308.619 138.975 297.207 147.052 292.524C155.128 287.841 161.714 291.656 161.714 300.988C161.714 310.319 155.128 321.766 147.052 326.414Z" fill="#DDDDDD"/>
<path d="M148.683 301.306C147.469 301.583 146.291 302.346 145.355 303.214C143.899 297.802 141.854 297.559 146.984 294.576C152.218 291.593 150.173 294.403 148.683 301.306Z" fill="#AFAFAF"/>
<path d="M153.292 303.902C153.084 302.896 152.564 301.994 151.629 301.543C155.58 294.675 155.649 291.9 158.215 295.542C160.78 299.254 158.527 299.323 153.292 303.902Z" fill="#AFAFAF"/>
<path d="M151.628 312.097C152.426 310.778 153.015 309.287 153.292 307.83C158.7 306.338 160.78 303.841 158.214 310.466C155.615 317.161 155.407 314.421 151.628 312.097Z" fill="#AFAFAF"/>
<path d="M145.39 317.649C146.603 317.371 147.781 316.608 148.717 315.741C150.173 321.152 152.218 321.395 147.088 324.378C141.854 327.361 143.899 324.552 145.39 317.649Z" fill="#AFAFAF"/>
<path d="M140.814 315.038C141.022 316.044 141.542 316.946 142.478 317.397C138.526 324.265 138.457 327.04 135.892 323.398C133.292 319.686 135.545 319.617 140.814 315.038Z" fill="#AFAFAF"/>
<path d="M142.443 306.862C141.646 308.18 141.057 309.671 140.779 311.128C135.372 312.62 133.292 315.117 135.857 308.492C138.457 301.832 138.665 304.572 142.443 306.862Z" fill="#AFAFAF"/>
<path d="M148.821 308.452C148.821 309.597 148.024 310.95 147.053 311.539C146.083 312.094 145.286 311.643 145.286 310.499C145.286 309.354 146.083 308.001 147.053 307.411C148.024 306.856 148.821 307.307 148.821 308.452Z" fill="#AFAFAF"/>
<path d="M142.442 306.875C141.645 308.159 141.056 309.651 140.778 311.142C138.421 311.767 136.723 312.599 135.718 312.807C136.237 309.963 137.416 307.049 138.976 304.378C139.808 304.759 140.778 305.87 142.442 306.875Z" fill="#343434"/>
<path d="M150.311 294.695C150.103 296.013 149.34 298.268 148.682 301.286C147.468 301.563 146.29 302.326 145.354 303.194C144.73 300.87 143.968 299.482 143.76 298.441C145.597 296.811 147.919 295.285 150.311 294.695Z" fill="#343434"/>
<path d="M158.353 299.792C157.348 300.764 155.615 301.908 153.292 303.92C153.084 302.914 152.564 302.012 151.628 301.561C153.327 298.578 154.297 296.393 155.095 295.144C156.655 295.977 157.798 297.572 158.353 299.792Z" fill="#343434"/>
<path d="M158.353 306.174C157.833 309.018 156.654 311.932 155.095 314.568C154.297 314.222 153.327 313.112 151.663 312.106C152.46 310.822 153.049 309.331 153.327 307.839C155.614 307.18 157.348 306.347 158.353 306.174Z" fill="#343434"/>
<path d="M150.311 320.505C148.508 322.17 146.186 323.696 143.794 324.286C144.002 322.968 144.765 320.713 145.423 317.695C146.671 317.418 147.815 316.655 148.751 315.787C149.34 318.111 150.068 319.464 150.311 320.505Z" fill="#343434"/>
<path d="M142.477 317.421C140.778 320.404 139.773 322.59 139.01 323.838C137.416 323.006 136.272 321.41 135.752 319.19C136.757 318.219 138.49 317.074 140.813 315.062C141.021 316.068 141.541 316.97 142.477 317.421Z" fill="#343434"/>
<path d="M148.681 301.305C147.468 301.583 146.29 302.346 145.354 303.213C145.216 302.762 145.112 302.346 144.973 301.964C145.805 301.271 146.775 300.681 147.815 300.473C148.543 297.073 149.409 294.645 149.478 293.466C151.315 293.05 149.825 295.963 148.681 301.305Z" fill="#999999"/>
<path d="M153.292 303.911C153.188 303.46 153.05 303.078 152.842 302.731C157.799 298.499 160.225 298.256 156.932 294.129C157.279 294.371 157.695 294.822 158.214 295.551C160.814 299.262 158.526 299.332 153.292 303.911Z" fill="#999999"/>
<path d="M158.215 310.467C155.615 317.162 155.407 314.422 151.629 312.098C151.663 312.028 151.698 311.959 151.733 311.889C154.61 313.971 154.991 315.67 157.348 309.6C158.007 307.9 158.353 306.79 158.423 306.131C159.636 305.923 159.636 306.825 158.215 310.467Z" fill="#999999"/>
<path d="M147.053 324.377C144.418 325.903 143.656 325.938 143.725 324.689C144.245 324.585 145.042 324.204 146.221 323.544C150.935 320.839 149.618 320.388 148.231 316.191C148.405 316.052 148.543 315.913 148.682 315.774C150.173 321.151 152.183 321.394 147.053 324.377Z" fill="#999999"/>
<path d="M142.477 317.4C138.768 323.852 138.491 326.697 136.342 323.991C137.798 324.928 138.456 322.118 141.576 316.672C141.818 316.984 142.13 317.227 142.477 317.4Z" fill="#999999"/>
<path d="M142.443 306.854C141.68 308.137 141.056 309.629 140.779 311.121C136.758 312.231 134.574 313.896 134.747 311.953C135.718 311.814 137.486 310.912 139.912 310.253C140.155 308.866 140.71 307.409 141.437 306.195C141.784 306.438 142.096 306.646 142.443 306.854Z" fill="#999999"/>
<path d="M147.052 311.544C146.186 312.03 145.493 311.752 145.319 310.92C146.636 311.058 148.265 308.769 147.953 307.208C149.513 307.347 148.82 310.504 147.052 311.544Z" fill="#999999"/>
<path d="M311.738 189.342V165.546C311.738 158.678 309.519 151.809 304.874 145.912C308.167 151.324 308.306 155.972 303.488 159.371L150.381 247.826L119.704 267.494L116.445 296.459L119.704 321.33C119.704 305.027 131.143 285.185 145.25 277.034C159.358 268.882 170.797 275.473 170.797 291.811L257.836 241.513C257.732 225.314 269.102 205.264 283.383 197.043C297.491 188.891 308.93 195.482 308.93 211.82C313.817 207.553 311.738 199.506 311.738 189.342Z" fill="#19A0A5"/>
<path d="M234.819 202.912L225.703 254.042L223.485 256.124L232.74 204.126L234.819 202.912Z" fill="#27C9CF"/>
<path d="M175.684 282.619L173.397 285.984L171.421 240.404L173.535 239.19L175.684 282.619Z" fill="#27C9CF"/>
<path d="M225.252 256.959L173.396 285.993L175.095 282.35L225.703 254.045L225.252 256.959Z" fill="#27C9CF"/>
<path d="M224.386 219.349V221.222C224.386 222.02 223.97 222.749 223.277 223.13L212.566 229.305C211.977 229.651 211.249 229.235 211.249 228.541V226.703C211.249 225.905 211.665 225.177 212.358 224.795L223.069 218.586C223.658 218.274 224.386 218.69 224.386 219.349Z" fill="#19D3DA"/>
<path d="M150.415 247.864L119.738 267.532L16.026 209.533L47.1535 188.2L150.415 247.864Z" fill="#19D3DA"/>
<path d="M119.738 267.533C119.738 267.533 106.428 279.535 78.3851 274.574C50.0306 269.545 20.0123 255.843 11.2772 238.429C2.26482 220.461 16.0261 209.5 16.0261 209.5L119.738 267.533Z" fill="#19D3DA"/>
<path d="M163.899 227.426L147.261 246.019L155.303 248.065L180.295 231.935L163.899 227.426Z" fill="#19D3DA"/>
<path d="M119.738 267.538V321.34C114.642 324.15 110.76 323.941 99.5291 324.739C65.6632 327.167 3.13088 313.119 4.20544 263.029C4.51741 249.466 1.67503 231.047 10.5141 216.339C6.21591 222.964 7.32513 231.255 11.2767 238.47C20.6011 255.536 50.0301 269.55 78.3846 274.615C106.392 279.541 119.738 267.538 119.738 267.538Z" fill="#20BDC2"/>
<path d="M10.5141 216.339C10.1675 216.928 9.85561 217.483 9.5437 218.073C9.82096 217.483 10.1675 216.894 10.5141 216.339Z" fill="#CECECE"/>
<path d="M89.0608 275.583V287.481C58.6959 289.008 14.1538 266.53 5.97327 247.833L8.67699 227.714C8.64233 231.321 9.50891 234.929 11.3461 238.259C23.2702 260.078 67.3617 275.479 89.0608 275.583Z" fill="#3E3E3E"/>
<path d="M10.5143 216.327C8.43451 219.726 8.22653 225.311 7.94922 227.878C8.08787 235.267 7.87989 243.522 5.93876 247.858C4.30959 244.112 3.72032 238.18 4.51757 234.261C5.48814 228.225 6.1814 222.189 10.5143 216.327Z" fill="#F4F4F4"/>
<path d="M118.767 268.92C118.767 268.955 119.911 279.673 109.998 283.628V272.77C113.36 271.626 116.272 270.134 118.767 268.92Z" fill="#FFFF00"/>
<path d="M117.346 265.941L295.168 161.078L297.872 165.726L135.094 261.674C125.978 266.808 114.331 271.283 109.963 272.15L117.346 265.941Z" fill="#27C9CF"/>
<path d="M109.998 272.78C111.558 275.693 111.593 279.37 109.998 283.637C103.031 286.412 95.9944 287.175 89.0618 287.522C86.4967 283.637 86.6007 279.648 89.0618 275.624C96.9996 275.659 104.106 274.757 109.998 272.78Z" fill="#F4F4F4"/>
<path d="M98.0377 282.869C98.0377 284.361 96.8247 285.055 95.3345 284.43C93.8442 283.806 92.6312 282.071 92.6312 280.58C92.6312 279.088 93.8442 278.394 95.3345 279.019C96.8247 279.643 98.0377 281.378 98.0377 282.869Z" fill="#DDDDDD"/>
<path d="M104.196 283.253C105.31 282.348 105.098 280.239 103.722 278.544C102.346 276.849 100.327 276.209 99.2131 277.115C98.0988 278.021 98.3108 280.129 99.6867 281.824C101.063 283.519 103.081 284.159 104.196 283.253Z" fill="#DDDDDD"/>
<path d="M16.0261 209.535C13.8077 211.477 11.7279 214.391 10.5147 217.097C7.81097 222.959 8.01895 229.064 10.5494 235.03C19.0072 254.872 51.8332 267.533 72.839 272.181C89.0267 275.685 101.401 276.275 118.802 269.337C100.223 279.501 83.1687 278.078 63.0294 272.39C46.0444 267.603 24.5879 258.063 13.8424 244.049C9.96009 239.054 7.11771 232.359 7.39502 226.046C7.63766 219.351 11.1733 213.246 16.0261 209.535Z" fill="white"/>
<path d="M170.832 296.464V291.816L257.871 241.518V246.201L170.832 296.464Z" fill="#343434"/>
<path d="M308.964 216.468V211.82C310.489 210.536 312.188 208.004 312.188 202.385C312.188 202.385 318.668 210.848 308.964 216.468Z" fill="#343434"/>
<path d="M234.818 202.896L232.739 204.145L229.724 199.532L231.699 198.387L234.818 202.896Z" fill="#19D3DA"/>
<path d="M173.535 239.189L171.421 240.403L172.877 233.188L174.991 231.939L173.535 239.189Z" fill="#48FF60"/>
<path d="M163.379 238.882C161.161 240.166 158.769 237.564 160.19 235.483C169.272 222.197 177.903 205.512 192.981 188.064C199.671 180.294 264.561 145.12 280.679 136.24C280.714 136.24 285.289 125.522 285.289 125.522C297.941 132.841 305.013 146.126 305.047 146.092L295.238 161.112C295.168 161.112 200.399 217.168 163.379 238.882Z" fill="#484C68"/>
<path d="M170.831 291.815C169.618 285.71 167.33 279.258 161.472 277.038C160.432 276.691 159.288 276.413 158.11 276.379C157.729 276.379 157.347 276.344 156.931 276.379C144.487 276.726 124.452 297.226 119.703 321.334C117.727 311.24 121.54 295.596 132.598 283.143C140.328 274.679 151.836 267.707 162.408 272.043C163.101 272.389 163.344 272.494 163.552 272.632C170.207 276.448 172.252 284.426 170.831 291.815Z" fill="#EDEDED"/>
<path d="M257.871 241.344C254.508 224 267.888 199.302 285.636 192.399C301.304 186.433 311.807 197.325 308.964 211.825C307.716 205.477 306.261 203.153 304.389 200.516C290.731 185.149 263.001 215.051 257.871 241.344Z" fill="#EDEDED"/>
<path d="M311.737 165.543C311.737 178.204 311.806 176.886 311.598 177.025C309.796 178.065 308.306 177.441 308.306 175.637V167.867C308.306 166.063 309.761 163.739 311.598 162.664C311.702 163.601 311.737 164.572 311.737 165.543Z" fill="#FF1D25"/>
<path d="M192.947 188.023C172.738 211.472 167.157 229.371 150.415 246.437C134.921 259.411 42.6126 201.551 47.1534 188.161C60.9147 173.731 72.3189 153.438 92.5275 129.989C92.5622 130.024 192.947 188.023 192.947 188.023Z" fill="#F4F4F4"/>
<path d="M182.652 191.529C171.074 205.855 164.8 218.516 153.153 234.82C149.375 240.127 142.893 242.729 136.792 240.37C106.012 228.437 79.9102 212.793 60.0136 195.622C56.2699 192.396 55.958 187.401 58.9043 183.447C68.714 170.3 81.782 152.262 93.9488 137.485L182.652 191.529Z" fill="#343434"/>
<path d="M182.652 191.534C172.357 205.062 162.859 220.984 155.337 231.703C152.044 236.386 144.696 238.432 139.358 236.351C108.75 224.453 82.5448 209.225 62.7175 192.158C59.1818 189.106 58.6272 183.833 61.4349 180.087C69.9274 168.813 80.9503 152.371 93.0131 138.114C94.9195 135.894 98.1432 135.339 100.674 136.796L180.988 183.209C183.935 184.943 184.697 188.828 182.652 191.534Z" fill="#484C68"/>
<path d="M122.408 149.377L71.9727 178.515C70.2396 179.521 68.2638 177.613 69.1997 175.844C79.252 157.113 84.9714 149.516 93.5332 139.595C94.2265 138.763 95.4743 137.549 97.2075 135.988C98.386 135.918 99.5646 136.161 100.639 136.785L122.408 149.377Z" fill="#545A7A"/>
<path d="M232.531 162.284V197.944L228.269 200.406V164.886C230.383 163.568 230.313 163.568 232.531 162.284Z" fill="#343434"/>
<path d="M271.597 139.395V175.055L267.334 177.518V141.997C269.482 140.679 269.378 140.679 271.597 139.395Z" fill="#343434"/>
<path d="M155.337 231.7C152.044 236.383 144.696 238.429 139.358 236.348C108.75 224.45 82.5449 209.222 62.7175 192.155C60.3605 190.109 59.3206 187.126 59.7365 184.212C59.7365 184.212 70.4821 178.592 116.688 214.633C133.916 211.581 146.464 215.639 155.337 231.7Z" fill="#2F3245"/>
<g opacity="0.3">
<path opacity="0.3" d="M127.225 231.383C115.196 226.145 103.896 220.387 93.5667 214.212L68.4012 170.54C72.4915 164.886 76.9284 158.642 81.6772 152.363L127.225 231.383Z" fill="#5F658A"/>
<path opacity="0.3" d="M153.569 233.673C150.969 235.963 147.26 237.211 143.725 237.177L89.1995 142.721C90.4473 141.16 91.7299 139.634 92.9777 138.142C94.087 136.859 95.6121 136.13 97.2067 136.026L153.569 233.673Z" fill="#5F658A"/>
</g>
<path d="M267.819 143.173C282.516 135.16 302.829 147.995 295.203 161.107C305.463 157.742 308.583 150.389 304.909 145.948C302.968 149.764 283.279 134.779 283.279 134.779C278.807 136.617 273.435 139.739 267.819 143.173Z" fill="#EDEDED"/>
<path d="M283.244 134.737C283.244 134.737 200.33 179.45 192.946 187.983L92.5619 130.019C99.9451 121.486 171.629 82.9476 171.629 82.9476C213.918 59.1515 303.279 121.382 283.244 134.737Z" fill="#F4F4F4"/>
<path d="M72.8392 323.588C47.1191 319.842 18.5567 308.291 8.22705 284.46C8.26171 279.014 9.75223 274.47 12.6986 271.625C23.6522 284.148 45.386 295.283 66.3225 299.861C71.0714 308.083 73.2551 316.65 72.8392 323.588Z" fill="#343434"/>
<path d="M72.8736 320.879C47.9855 316.682 21.2255 305.131 11.2772 282.237C11.2772 278.456 12.0051 275.091 13.461 272.455C24.6225 284.63 45.871 295.349 66.3223 299.858C70.4819 307.039 72.6657 314.497 72.8736 320.879Z" fill="#3E3E3E"/>
<path d="M18.07 283.649V270.537L54.085 291.315V304.462L18.07 283.649Z" fill="white"/>
<path d="M18.6262 271.473L53.532 291.627V303.49L18.6262 283.337C18.6262 271.022 18.5915 271.473 18.6262 271.473ZM18.0716 270.537V283.649L54.0519 304.427V291.315C17.7596 270.363 18.0369 270.537 18.0716 270.537Z" fill="#343434"/>
<path d="M175.372 211.687V231.702L172.495 233.402V216.162C173.431 214.705 174.367 213.213 175.372 211.687Z" fill="#343434"/>
<path d="M119.737 321.335C115.162 324.318 110.794 324.561 101.747 325.567C96.9637 326.088 91.7296 326.643 83.0638 326.261C51.8323 324.874 14.9507 311.206 6.04228 281.583C4.20514 275.547 3.61586 269.199 4.20514 263.025C4.5171 269.199 5.62633 275.304 7.9141 280.924C18.7637 308.535 54.0161 320.364 83.2718 323.104C90.551 323.798 95.6118 323.763 101.609 323.59C110.898 323.382 114.677 323.659 119.737 321.335Z" fill="#343434"/>
<path d="M295.168 161.103C300.853 157.356 308.306 154.061 304.874 145.944C310.108 152.014 310.524 156.871 304.943 161.415C303.349 162.49 300.403 164.467 297.872 165.751L295.168 161.103Z" fill="#19D3DA"/>
<path d="M267.819 143.178C277.664 137.385 290.732 141.028 295.862 148.971C299.502 154.695 297.872 160.869 292.985 163.748C255.583 186.539 201.474 218.382 163.379 238.883C199.741 215.468 253.989 183.347 291.806 161.771C297.075 158.823 297.664 151.191 290.489 145.607C284.319 140.75 275.168 139.536 267.819 143.178Z" fill="#343434"/>
<path d="M171.907 247.512C165.355 247.512 157.14 249.073 157.14 240.575C157.14 232.076 165.355 232.145 171.907 232.145C197.141 232.145 182.652 247.512 171.907 247.512Z" fill="#C2C2C2"/>
<path d="M185.564 236.17C184.662 240.298 177.73 245.085 171.629 245.085C165.806 245.085 158.63 246.334 157.14 240.541C157.175 232.077 165.355 232.112 171.872 232.112C177.591 232.146 183.969 233.083 185.564 236.17Z" fill="#EDEDED"/>
<path d="M262.342 201.313C261.718 201.313 261.129 200.793 261.129 199.787V194.896C261.129 193.89 261.753 192.71 262.516 192.259L267.091 189.623C268.027 189.068 268.998 189.623 268.998 190.941V195.832C268.998 196.838 268.374 198.018 267.611 198.469C262.585 201.382 262.828 201.313 262.342 201.313ZM267.819 190.456C267.715 190.456 267.958 190.317 263.036 193.161C262.55 193.439 262.169 194.237 262.169 194.896C262.169 199.856 262.1 200.134 262.308 200.272C262.412 200.342 262.308 200.342 267.126 197.567C267.611 197.289 267.992 196.491 267.992 195.832C267.992 190.976 268.062 190.456 267.819 190.456Z" fill="#27C9CF"/>
<path d="M159.912 7.74348L154.331 10.9695C152.009 12.3223 148.508 12.0101 143.967 9.37382L149.548 6.14783C154.089 8.78413 157.59 9.09632 159.912 7.74348Z" fill="#5C98FF"/>
<path d="M214.022 130.6L208.441 133.826C218.875 127.755 229.101 117.28 229.135 99.4845L234.716 96.2585C234.681 114.054 224.456 124.529 214.022 130.6Z" fill="#5C98FF"/>
<path d="M157.695 3.226L163.275 0C184.455 7.21514 203.831 19.3213 221.198 33.4741L215.617 36.7001C198.251 22.5473 178.874 10.4411 157.695 3.226Z" fill="#5C98FF"/>
<path d="M215.616 36.7103L221.197 33.4843C221.162 41.1503 226.084 50.3774 234.854 55.4419L229.273 58.6679C220.469 53.6034 215.581 44.3763 215.616 36.7103Z" fill="#5C98FF"/>
<path d="M215.616 36.7009C215.582 44.3669 220.504 53.594 229.274 58.6585L229.17 99.5211C229.031 135.042 188.44 141.424 186.291 141.771C184.177 138.962 143.725 85.7846 143.829 50.2639L143.933 9.40127C152.772 14.5004 157.625 10.8929 157.66 3.26147C178.873 10.4419 198.25 22.5481 215.616 36.7009Z" fill="white"/>
<path d="M229.239 58.6491L234.82 55.3884L234.716 96.2511L229.135 99.5118L229.239 58.6491Z" fill="#5C98FF"/>
<path d="M159.114 17.9388L157.347 18.9794C155.302 20.1588 152.251 19.8813 148.23 17.5919L149.998 16.5513C154.019 18.8407 157.104 19.1182 159.114 17.9388Z" fill="#438AFF"/>
<path d="M162.062 11.1394L160.294 12.18C178.908 18.528 195.928 29.1426 211.18 41.5609L212.948 40.5203C197.73 28.1366 180.676 17.4873 162.062 11.1394Z" fill="#438AFF"/>
<path d="M223.173 60.8467L223.069 96.7489C223.034 112.393 214.057 121.586 204.906 126.928L206.673 125.887C215.859 120.545 224.802 111.353 224.837 95.7083L224.941 59.806L223.173 60.8467Z" fill="#438AFF"/>
<path d="M211.18 41.5627L212.947 40.5221C212.913 47.2516 217.246 55.3686 224.941 59.8087L223.173 60.8494C215.478 56.4093 211.18 48.2922 211.18 41.5627Z" fill="#438AFF"/>
<mask id="mask0_1_252" style="mask-type:alpha" maskUnits="userSpaceOnUse" x="148" y="12" width="76" height="122">
<path d="M185.771 23.8531C194.263 28.7441 202.721 34.6411 211.214 41.5441C211.179 48.2736 215.512 56.3906 223.207 60.8307L223.103 96.7329C222.999 127.952 187.366 133.537 185.494 133.849C183.622 131.386 148.127 84.6961 148.196 53.4421L148.3 17.5399C156.065 22.0146 160.328 18.858 160.363 12.1632C168.786 15.0423 177.279 18.9274 185.771 23.8531Z" fill="url(#paint0_linear_1_252)"/>
</mask>
<g mask="url(#mask0_1_252)">
<path d="M211.18 41.5551C211.145 48.2846 215.478 56.4016 223.173 60.8417L223.069 96.7439C222.965 127.963 187.332 133.548 185.46 133.86C183.588 131.397 148.093 84.7071 148.162 53.4531L148.266 17.5509C156.031 22.0256 160.294 18.869 160.329 12.1742C178.909 18.4874 195.963 29.1367 211.18 41.5551Z" fill="url(#paint1_linear_1_252)"/>
</g>
<path d="M204.767 51.7981L210.417 58.4235L182.201 104.628L160.918 62.378L165.875 60.5742L181.023 90.6835L204.767 51.7981Z" fill="white"/>
<path d="M400.752 368.105L466.266 329.081L561 384.201L509.733 413.824L483.32 416.114L400.752 368.105Z" fill="#BFD3FF"/>
<path d="M488.658 415.49L495.001 411.848C497.358 410.495 498.814 407.581 498.814 403.453V138.193C498.814 129.902 492.99 119.843 485.85 115.715L325.671 23.1667C322.101 21.0854 318.843 20.912 316.52 22.2648L310.177 25.9071C313.019 24.2768 316.486 25.144 319.328 26.809L479.506 119.357C486.647 123.52 492.47 133.579 492.47 141.835V407.095C492.47 410.391 491.5 413.825 488.658 415.49Z" fill="#2F68D4"/>
<path d="M492.471 407.094V141.834C492.471 133.543 486.647 123.484 479.507 119.356L319.328 26.8076C312.153 22.6451 306.364 26.0792 306.364 34.3003V299.561C306.364 307.851 312.153 317.911 319.328 322.038L479.472 414.586C486.786 418.749 492.471 415.211 492.471 407.094Z" fill="#467DE4"/>
<path d="M315.342 35.1654V310.104L481.69 406.225V131.286L315.342 35.1654Z" fill="#F2F2F2"/>
<path d="M434.861 113.106L441.205 109.464C442.383 108.77 443.111 107.313 443.111 105.266V89.4138C443.111 85.2859 440.199 80.2561 436.629 78.1748L373.057 41.44C371.254 40.3994 369.625 40.33 368.481 40.9891L362.138 44.6314C363.524 43.8335 365.292 44.2498 366.713 45.0823L430.251 81.8171C433.821 83.8983 436.733 88.9281 436.733 93.056V108.909C436.768 110.539 436.282 112.308 434.861 113.106Z" fill="#2F68D4"/>
<path d="M436.768 108.904V93.0512C436.768 88.9233 433.856 83.8936 430.286 81.8123L366.749 45.0775C363.144 42.9962 360.266 44.7653 360.266 48.8238V64.6763C360.266 68.8042 363.178 73.8687 366.749 75.9153C379.539 83.3039 417.218 105.088 430.286 112.65C433.926 114.766 436.768 112.962 436.768 108.904Z" fill="#467DE4"/>
<path d="M451.222 356.594C451.222 358.051 450.737 358.988 449.801 359.404C448.865 359.82 447.756 359.751 446.473 359.126V361.277L445.398 360.653V358.502C442.764 356.733 440.65 353.611 440.65 350.073L443.423 351.668C443.423 353.333 443.908 354.651 445.398 355.796V350.87C442.833 348.373 440.996 346.777 440.996 343.517C440.996 340.533 443.041 339.701 445.398 340.776V339.354L446.473 339.978V341.366C449.35 343.204 450.841 346.188 450.841 349.032L448.033 347.436C448.033 345.979 447.34 344.731 446.438 344.037V348.824C447.236 349.622 449.246 351.356 450.009 352.674C450.875 354.062 451.222 354.964 451.222 356.594ZM445.364 347.749V343.447C444.463 343.204 443.665 343.517 443.665 344.661C443.665 345.494 444.255 346.534 445.364 347.749ZM448.518 355.345C448.518 354.027 447.409 352.778 446.438 351.842V356.386C446.993 356.629 447.478 356.663 447.894 356.525C448.345 356.386 448.518 356.004 448.518 355.345Z" fill="#8CA3FF"/>
<path d="M364.46 304.837C363.697 304.837 363.697 303.553 363.35 302.79C360.612 302.755 359.329 302.027 358.116 298.87C357.527 299.46 357.25 300.709 356.452 300.952C356.279 300.986 356.036 301.021 355.759 300.848C355.274 300.57 354.199 299.391 354.199 297.691C354.199 295.852 355.205 294.049 354.165 291.933C352.293 293.667 350.941 296.512 350.005 298.419C349.173 300.188 348.826 300.917 348.168 300.778C347.579 300.639 347.371 300.05 347.371 296.477C347.371 287.631 352.327 278.717 352.327 273.999C352.327 272.993 351.912 272.681 351.253 272.681C348.584 272.681 342.171 278.508 341.513 290.129C341.513 290.406 341.27 290.615 340.993 290.58C340.715 290.58 340.507 290.337 340.542 290.06C341.166 278.682 347.613 271.605 351.322 271.71C352.57 271.744 353.298 272.611 353.298 273.999C353.298 279.584 347.405 289.158 348.445 299.321C349.416 297.517 351.08 293.147 353.853 290.857C354.13 290.615 354.615 290.719 354.858 291.135C356.314 293.736 355.17 295.887 355.17 297.656C355.17 298.94 355.967 299.772 356.21 299.946C356.66 299.529 357.111 297.83 358.324 297.691L358.705 297.656C359.988 301.333 360.855 301.819 363.489 301.819C364.217 301.819 364.39 302.894 364.598 303.623C366.955 302.131 370.387 302.998 372.675 301.923C372.917 301.819 373.229 301.923 373.333 302.166C373.437 302.409 373.333 302.721 373.091 302.825C370.456 304.039 366.817 303.068 364.772 304.698C364.702 304.802 364.564 304.837 364.46 304.837Z" fill="#3A5169"/>
<path d="M458.051 376.962L431.291 361.491V358.994L458.051 374.465V376.962Z" fill="#8CA3FF"/>
<path d="M382.174 327.773L328.828 296.936V294.438L382.174 325.31V327.773Z" fill="#8CA3FF"/>
<path d="M461.378 322.734L327.578 245.449V158.798L461.378 236.083V322.734ZM330.039 244.026L458.882 318.467V237.505L330.039 163.064V244.026Z" fill="#8CA3FF"/>
<path d="M364.771 265.5L362.31 264.078V180.271L364.771 181.728V265.5Z" fill="#8CA3FF"/>
<path d="M411.565 292.521L409.07 291.099V207.292L411.565 208.749V292.521Z" fill="#8CA3FF"/>
<path d="M460.131 257.007L328.827 181.109V178.265L460.131 254.128V257.007Z" fill="#8CA3FF"/>
<path d="M460.129 280.137L328.825 204.274V201.395L460.129 277.293V280.137Z" fill="#8CA3FF"/>
<path d="M460.131 308.445L328.827 232.582V229.738L460.131 305.601V308.445Z" fill="#8CA3FF"/>
<path d="M353.471 185.923L338.912 177.494V174.65L353.471 183.079V185.923Z" fill="#8CA3FF"/>
<path d="M442.104 256.477L427.546 248.047V245.203L442.104 253.598V256.477Z" fill="#8CA3FF"/>
<path d="M394.235 257.453L379.642 249.024V246.179L394.235 254.574V257.453Z" fill="#8CA3FF"/>
<path d="M462.87 194.311V197.155C429.697 177.973 372.503 144.95 329.417 120.043V117.199C371.948 141.793 429.697 175.163 462.87 194.311Z" fill="#8CA3FF"/>
<path d="M428.241 189.425L329.417 132.328V129.484L428.241 186.58V189.425Z" fill="#8CA3FF"/>
<path d="M382.625 175.3L329.417 144.567V141.722L382.625 172.456V175.3Z" fill="#8CA3FF"/>
<path d="M462.348 177.253L339.953 106.558V77.8367L462.348 148.566V177.253Z" fill="#8CA3FF"/>
<path d="M351.634 106.168L349.104 104.711V90.6621L351.634 92.119V106.168Z" fill="#F2F2F2"/>
<path d="M364.528 113.627L360.993 111.58L356.313 97.6354V108.874L353.956 107.521V93.4728L357.492 95.5194L362.171 109.429V98.1904L364.528 99.5432V113.627Z" fill="#F2F2F2"/>
<path d="M376.28 116.332C376.28 121.813 366.644 116.957 366.644 110.435L369.174 111.892C369.174 112.829 369.382 113.592 369.798 114.182C370.456 115.118 371.947 116.228 373.126 116.124C374.096 116.055 373.992 114.771 373.472 113.939C371.982 111.441 366.99 109.221 366.99 105.093C366.99 102.388 369.278 102.041 371.566 103.359C373.472 104.469 374.651 105.857 375.171 107.036C375.621 108.042 375.933 109.013 375.933 110.123L373.403 108.666C373.438 105.648 369.417 103.949 369.417 106.169C369.417 109.013 376.28 111.407 376.28 116.332Z" fill="#F2F2F2"/>
<path d="M388.759 121.81C388.759 123.579 388.308 124.759 387.407 125.383C386.506 126.008 385.188 125.834 383.455 124.828C380.093 122.886 378.394 119.486 378.394 115.809V107.588L380.925 109.045V117.266C380.925 119.833 381.791 121.637 383.559 122.643C385.362 123.684 386.263 122.92 386.263 120.353V112.132L388.793 113.589V121.81H388.759Z" fill="#F2F2F2"/>
<path d="M400.787 134.578L398.222 133.087C397.667 131.109 397.979 129.236 397.251 127.502C396.732 126.322 395.726 125.941 393.647 124.727V130.45L391.116 128.993V114.945L395.83 117.65C398.395 119.142 400.51 121.154 400.51 124.102C400.51 124.761 400.302 125.525 399.713 125.767C398.257 126.357 397.355 125.421 398.43 126.322C400.683 128.334 399.782 130.52 400.787 134.578ZM397.979 123.096C397.979 121.778 396.939 120.529 395.83 119.87L393.647 118.622V122.472C395.588 123.582 396.35 124.172 397.251 124.033C397.737 123.929 397.979 123.617 397.979 123.096Z" fill="#F2F2F2"/>
<path d="M413.231 141.757L410.77 140.335L409.764 136.762L404.981 133.987L404.045 136.449L401.584 135.027L406.16 123.615L408.655 125.072L413.231 141.757ZM409.071 134.125L407.442 127.5L405.709 132.183L409.071 134.125Z" fill="#F2F2F2"/>
<path d="M425.155 148.627L421.62 146.581L416.94 132.636V143.875L414.583 142.522V128.474L418.119 130.52L422.798 144.43V133.191L425.155 134.544V148.627Z" fill="#F2F2F2"/>
<path d="M437.634 151.123C437.426 156.083 430.77 153.898 428.448 148.591C426.195 143.526 426.715 135.201 432.538 138.566C435.623 140.335 437.287 142.867 437.495 146.163L435.034 144.74C434.514 142.347 433.994 141.653 432.504 140.786C432.018 140.508 431.602 140.37 431.256 140.37C430.909 140.37 430.632 140.474 430.458 140.682C430.008 141.133 429.835 142.208 429.8 142.798C429.592 145.989 429.835 149.389 432.538 150.95C433.821 151.678 434.549 151.505 434.93 149.527L437.634 151.123Z" fill="#F2F2F2"/>
<path d="M447.928 161.803L439.748 157.086V143.037L447.755 147.685V149.905L442.14 146.679V150.148L447.408 153.2V155.316L442.14 152.264V156.218L447.894 159.548V161.803H447.928Z" fill="#F2F2F2"/>
<path d="M120.536 393.914L218.632 336.054L313.367 391.139L229.482 439.598L203.103 441.922L120.536 393.914Z" fill="#BFD3FF"/>
<path d="M280.54 389.125L197.972 341.116L222.86 313.574L305.393 361.582L280.54 389.125Z" fill="#6C7A89"/>
<path d="M297.56 361.795L292.984 366.894L263.694 349.862L268.304 344.798L297.56 361.795Z" fill="#2C3E50"/>
<path d="M291.008 369.075C289.379 370.879 291.147 368.902 279.431 381.91C277.697 380.904 208.926 340.908 206.881 339.729L218.458 326.894L291.008 369.075Z" fill="#D0D0D0"/>
<path d="M203.068 433.87L120.5 385.861L197.972 341.114L280.54 389.122L203.068 433.87Z" fill="#6C7A89"/>
<path d="M203.102 441.923L120.535 393.915L120.5 385.867L203.068 433.876L203.102 441.923Z" fill="#5C6A79"/>
<path d="M203.068 433.874L280.54 389.127L305.394 361.584L305.428 369.632L280.575 397.14L203.103 441.922L203.068 433.874Z" fill="#4C5A69"/>
<path d="M155.857 382.78V384.619L143.794 391.661V389.822L155.857 382.78Z" fill="#2C3E50"/>
<path d="M143.794 389.821V391.66L132.009 384.792L132.043 382.953L143.794 389.821Z" fill="#3A5169"/>
<path d="M144.07 375.941L155.856 382.775L143.793 389.816L132.042 382.948L144.07 375.941Z" fill="#3A5169"/>
<path d="M170.588 391.281V393.119L158.526 400.161V398.323L170.588 391.281Z" fill="#2C3E50"/>
<path d="M158.526 398.322V400.16L146.74 393.292V391.453L158.526 398.322Z" fill="#3A5169"/>
<path d="M158.804 384.443L170.589 391.277L158.527 398.318L146.741 391.45L158.804 384.443Z" fill="#3A5169"/>
<path d="M185.32 399.809V401.648L173.257 408.655V406.816L185.32 399.809Z" fill="#2C3E50"/>
<path d="M173.257 406.815V408.654L161.471 401.82V399.982L173.257 406.815Z" fill="#3A5169"/>
<path d="M173.499 392.946L185.32 399.815L173.257 406.822L161.471 399.988L173.499 392.946Z" fill="#3A5169"/>
<path d="M200.052 408.302V410.141L187.99 417.183V415.344L200.052 408.302Z" fill="#2C3E50"/>
<path d="M187.991 415.343V417.182L176.206 410.313V408.475L187.991 415.343Z" fill="#3A5169"/>
<path d="M188.232 401.478L200.052 408.311L187.99 415.353L176.204 408.485L188.232 401.478Z" fill="#3A5169"/>
<path d="M229.482 408.302V410.141L202.722 425.681V423.843L229.482 408.302Z" fill="#7F8C8D"/>
<path d="M202.722 423.852V425.69L190.936 418.822V416.984L202.722 423.852Z" fill="#95A5A6"/>
<path d="M217.695 401.478L229.481 408.311L202.721 423.851L190.935 416.983L217.695 401.478Z" fill="#BDC3C7"/>
<path d="M170.588 374.281V376.119L158.525 383.161V381.323L170.588 374.281Z" fill="#2C3E50"/>
<path d="M158.526 381.323V383.162L146.74 376.294V374.455L158.526 381.323Z" fill="#3A5169"/>
<path d="M158.803 367.422L170.588 374.29L158.525 381.331L146.74 374.463L158.803 367.422Z" fill="#3A5169"/>
<path d="M185.32 382.78V384.619L173.257 391.661V389.822L185.32 382.78Z" fill="#2C3E50"/>
<path d="M173.257 389.821V391.66L161.471 384.792V382.953L173.257 389.821Z" fill="#3A5169"/>
<path d="M173.499 375.941L185.32 382.775L173.257 389.816L161.471 382.948L173.499 375.941Z" fill="#3A5169"/>
<path d="M200.052 391.281V393.119L187.99 400.161V398.323L200.052 391.281Z" fill="#2C3E50"/>
<path d="M187.991 398.322V400.16L176.206 393.292V391.453L187.991 398.322Z" fill="#3A5169"/>
<path d="M188.232 384.443L200.053 391.277L187.99 398.318L176.204 391.45L188.232 384.443Z" fill="#3A5169"/>
<path d="M214.784 399.809L214.75 401.648L202.722 408.655V406.816L214.784 399.809Z" fill="#2C3E50"/>
<path d="M202.722 406.815V408.654L190.936 401.82V399.982L202.722 406.815Z" fill="#3A5169"/>
<path d="M202.964 392.946L214.784 399.815L202.721 406.822L190.935 399.988L202.964 392.946Z" fill="#3A5169"/>
<path d="M185.32 365.776V367.614L173.257 374.621V372.783L185.32 365.776Z" fill="#2C3E50"/>
<path d="M173.257 372.78V374.618L161.472 367.785V365.911L173.257 372.78Z" fill="#3A5169"/>
<path d="M173.499 358.913L185.32 365.781L173.257 372.788L161.471 365.92L173.499 358.913Z" fill="#3A5169"/>
<path d="M200.054 374.281V376.119L187.991 383.161V381.323L200.054 374.281Z" fill="#2C3E50"/>
<path d="M187.99 381.323V383.162L176.205 376.294V374.455L187.99 381.323Z" fill="#3A5169"/>
<path d="M188.234 367.422L200.054 374.29L187.992 381.331L176.206 374.463L188.234 367.422Z" fill="#3A5169"/>
<path d="M214.785 382.78L214.75 384.619L202.722 391.661V389.822L214.785 382.78Z" fill="#2C3E50"/>
<path d="M202.722 389.821V391.66L190.937 384.792V382.953L202.722 389.821Z" fill="#3A5169"/>
<path d="M202.966 375.941L214.786 382.775L202.723 389.816L190.938 382.948L202.966 375.941Z" fill="#3A5169"/>
<path d="M229.481 391.281V393.119L217.418 400.161V398.323L229.481 391.281Z" fill="#2C3E50"/>
<path d="M217.418 398.322V400.16L205.667 393.292V391.453L217.418 398.322Z" fill="#3A5169"/>
<path d="M217.696 384.443L229.481 391.277L217.419 398.318L205.668 391.45L217.696 384.443Z" fill="#3A5169"/>
<path d="M244.213 399.809V401.648L232.151 408.655V406.816L244.213 399.809Z" fill="#2C3E50"/>
<path d="M232.15 406.815V408.654L220.4 401.82V399.982L232.15 406.815Z" fill="#3A5169"/>
<path d="M232.428 392.946L244.213 399.815L232.151 406.822L220.4 399.988L232.428 392.946Z" fill="#3A5169"/>
<path d="M200.052 357.245V359.084L187.99 366.126V364.287L200.052 357.245Z" fill="#2C3E50"/>
<path d="M187.99 364.295V366.134L176.204 359.266V357.427L187.99 364.295Z" fill="#3A5169"/>
<path d="M188.232 350.416L200.052 357.25L187.99 364.291L176.204 357.423L188.232 350.416Z" fill="#3A5169"/>
<path d="M214.785 365.776L214.75 367.614L202.722 374.621V372.783L214.785 365.776Z" fill="#2C3E50"/>
<path d="M202.722 372.78V374.618L190.937 367.785V365.911L202.722 372.78Z" fill="#3A5169"/>
<path d="M202.964 358.913L214.785 365.781L202.722 372.788L190.936 365.92L202.964 358.913Z" fill="#3A5169"/>
<path d="M229.482 374.281V376.119L217.419 383.161V381.323L229.482 374.281Z" fill="#2C3E50"/>
<path d="M217.418 381.323V383.162L205.667 376.294V374.455L217.418 381.323Z" fill="#3A5169"/>
<path d="M217.697 367.422L229.482 374.29L217.42 381.331L205.669 374.463L217.697 367.422Z" fill="#3A5169"/>
<path d="M244.213 382.78V384.619L232.15 391.661V389.822L244.213 382.78Z" fill="#2C3E50"/>
<path d="M232.15 389.821V391.66L220.399 384.792V382.953L232.15 389.821Z" fill="#3A5169"/>
<path d="M232.427 375.941L244.213 382.775L232.15 389.816L220.399 382.948L232.427 375.941Z" fill="#3A5169"/>
<path d="M258.944 391.281V393.119L246.881 400.161V398.323L258.944 391.281Z" fill="#2C3E50"/>
<path d="M246.882 398.322V400.16L235.096 393.292V391.453L246.882 398.322Z" fill="#3A5169"/>
<path d="M247.159 384.443L258.945 391.277L246.882 398.318L235.096 391.45L247.159 384.443Z" fill="#3A5169"/>
<path d="M210.693 351.108L210.658 352.946L203.518 357.143V355.305L210.693 351.108Z" fill="#17BBB0"/>
<path d="M203.518 355.309V357.148L191.732 350.279L191.767 348.441L203.518 355.309Z" fill="#27CBC0"/>
<path d="M198.875 344.269L210.695 351.102L203.519 355.3L191.769 348.431L198.875 344.269Z" fill="#37DBD0"/>
<path d="M225.391 359.602V361.441L218.25 365.638V363.8L225.391 359.602Z" fill="#17BBB0"/>
<path d="M218.252 363.799V365.638L206.467 358.804V356.966L218.252 363.799Z" fill="#27CBC0"/>
<path d="M213.606 352.776L225.391 359.61L218.25 363.807L206.465 356.973L213.606 352.776Z" fill="#37DBD0"/>
<path d="M240.123 368.15V369.989L232.983 374.186V372.348L240.123 368.15Z" fill="#17BBB0"/>
<path d="M232.983 372.345V374.183L221.197 367.315V365.477L232.983 372.345Z" fill="#27CBC0"/>
<path d="M228.337 361.273L240.122 368.142L232.982 372.339L221.196 365.471L228.337 361.273Z" fill="#37DBD0"/>
<path d="M254.854 376.642V378.481L247.714 382.678V380.84L254.854 376.642Z" fill="#17BBB0"/>
<path d="M247.714 380.843V382.681L235.929 375.813V373.974L247.714 380.843Z" fill="#27CBC0"/>
<path d="M243.069 369.816L254.855 376.65L247.714 380.847L235.928 373.979L243.069 369.816Z" fill="#37DBD0"/>
<path d="M269.586 385.128V386.966L262.446 391.163V389.325L269.586 385.128Z" fill="#E74C3C"/>
<path d="M262.446 389.321V391.16L250.661 384.292V382.453L262.446 389.321Z" fill="#FF6C5C"/>
<path d="M257.767 378.282L269.587 385.115L262.446 389.312L250.661 382.444L257.767 378.282Z" fill="#FF877A"/>
<path d="M218.458 326.894V328.872L208.059 340.388L206.881 339.729L218.458 326.894Z" fill="#A0A0A0"/>
<path d="M291.008 369.075L289.83 370.359L218.458 328.872V326.894L291.008 369.075Z" fill="#C0C0C0"/>
<path d="M268.055 344.551L263.45 349.642L263.912 350.061L268.517 344.97L268.055 344.551Z" fill="#6C7A89"/>
<path d="M275.378 348.823L270.773 353.914L271.235 354.333L275.841 349.242L275.378 348.823Z" fill="#6C7A89"/>
<path d="M282.744 353.082L278.139 358.173L278.601 358.592L283.207 353.5L282.744 353.082Z" fill="#6C7A89"/>
<path d="M289.998 357.331L285.393 362.422L285.855 362.841L290.461 357.75L289.998 357.331Z" fill="#6C7A89"/>
<path d="M297.321 361.593L292.716 366.685L293.178 367.104L297.783 362.012L297.321 361.593Z" fill="#6C7A89"/>
<path d="M146.289 384.059C144.105 385.308 142.129 385.551 140.708 384.718C139.46 383.99 139.772 382.845 141.887 381.596C144.036 380.348 146.115 380.209 147.433 380.972C148.75 381.77 148.299 382.88 146.289 384.059ZM142.718 382.117C141.055 383.088 140.639 383.921 141.401 384.371C142.268 384.892 143.724 384.545 145.353 383.574C146.913 382.672 147.537 381.839 146.67 381.319C145.942 380.903 144.452 381.111 142.718 382.117Z" fill="white"/>
<path d="M161.195 372.721C161.16 372.721 159.461 372.409 159.461 372.409L159.947 371.923L162.096 372.305L162.824 372.721L156.446 376.398L155.614 375.912L161.195 372.721Z" fill="white"/>
<path d="M168.474 383.37L168.994 383.058C172.46 383.092 174.817 383.196 176.031 382.503C177.556 381.635 175.892 380.664 174.124 380.595L174.471 380.074C176.932 380.178 179.081 381.774 177.036 382.953C175.58 383.786 172.842 383.682 170.415 383.647C170.381 383.647 173.258 385.312 173.258 385.312L172.53 385.729L168.474 383.37Z" fill="white"/>
<path d="M184.385 391.416C184.801 392.491 186.777 393.358 188.094 392.595C188.961 392.075 188.545 391.381 187.713 390.896L187.228 390.618L187.886 390.236L188.371 390.514C190.139 391.555 192.323 390.445 190.728 389.508C190.209 389.196 189.515 389.057 189.03 389.022L189.446 388.537C191.387 388.71 193.64 390.167 191.907 391.138C191.248 391.52 190.313 391.624 189.238 391.312C189.862 391.867 189.897 392.561 188.995 393.081C186.985 394.26 183.969 392.838 183.519 391.624L184.385 391.416Z" fill="white"/>
<path d="M171.143 367.9L172.877 366.894L169.896 365.194L170.45 364.882L177.383 364.188L178.319 364.743L174.367 367.033L175.268 367.553L174.575 367.935L173.674 367.414L171.941 368.42L171.143 367.9ZM173.57 366.478C175.788 365.194 176.031 365.056 176.724 364.674C176.655 364.639 176.863 364.674 175.234 364.882L171.49 365.229C171.455 365.298 173.57 366.478 173.57 366.478Z" fill="white"/>
<path d="M192.669 373.797L190.243 372.375L188.371 373.173C192.634 375.046 187.851 377.647 184.662 375.809C183.969 375.393 183.587 374.942 183.449 374.664L184.315 374.421C184.801 375.566 186.88 376.26 188.232 375.497C189.064 375.011 189.099 374.352 187.816 373.624C187.47 373.415 187.123 373.277 186.88 373.138L190.347 371.612L193.397 373.381L192.669 373.797Z" fill="white"/>
<path d="M207.332 382.118C206.014 381.251 203.865 381.043 202.167 381.806C202.271 381.875 203.38 381.667 204.489 382.292C207.158 383.853 202.687 386.246 199.983 384.685C197.245 383.09 201.127 380.765 204.385 380.765C205.737 380.765 207.02 381.147 208.059 381.737L207.332 382.118ZM203.415 384.13C205.182 383.124 203.345 381.91 201.543 382.257C201.37 382.292 201.231 382.326 201.058 382.43C200.018 383.055 199.74 383.783 200.642 384.304C201.37 384.72 202.513 384.65 203.415 384.13Z" fill="white"/>
<path d="M193.709 356.551C192.911 357.002 194.402 356.621 184.558 358.633L183.656 358.112L192.08 356.447C192.114 356.447 188.96 354.644 188.96 354.644L189.688 354.227L193.709 356.551Z" fill="white"/>
<path d="M199.463 365.369C200.26 364.918 201.335 364.849 202.444 365.126L202.479 365.092C201.543 363.565 204.524 362.663 206.569 363.843C208.684 365.057 206.777 366.583 204.316 366.063H204.281C204.767 366.687 204.697 367.312 203.935 367.762C201.439 369.219 197.175 366.687 199.463 365.369ZM202.93 367.346C203.692 366.895 203.553 366.375 202.93 365.716C201.959 365.404 201.058 365.473 200.468 365.82C198.805 366.687 201.37 368.248 202.93 367.346ZM203.761 364.12C203.138 364.502 203.276 364.953 203.796 365.508C204.524 365.716 205.356 365.751 205.911 365.404C207.366 364.571 205.079 363.357 203.761 364.12Z" fill="white"/>
<path d="M213.779 374.797C214.993 375.664 217.038 375.942 219.013 375.109H218.979C216.691 375.248 214.819 373.583 216.864 372.404C219.672 370.773 224.56 372.924 220.747 375.109C218.39 376.462 215.339 376.636 213.086 375.179L213.779 374.797ZM217.766 372.855C215.824 373.999 218.805 375.213 219.949 374.554C221.024 373.93 221.475 373.201 220.573 372.681C219.811 372.265 218.667 372.334 217.766 372.855Z" fill="white"/>
<path d="M260.054 383.783C257.732 385.101 254.717 383.366 256.97 382.083C259.257 380.765 262.341 382.465 260.054 383.783ZM257.42 382.326C255.653 383.366 257.732 384.581 259.569 383.54C261.371 382.499 259.292 381.25 257.42 382.326Z" fill="white"/>
<path d="M258.91 385.069L262.203 383.161L262.654 383.439C262.065 385 261.926 385.416 261.545 385.971C262.273 385.485 262.827 385.173 264.249 384.375L264.664 384.618L261.371 386.526L260.956 386.283C261.614 384.618 261.753 384.202 262.065 383.716C261.025 384.341 261.06 384.306 259.292 385.347L258.91 385.069Z" fill="white"/>
<path d="M202.374 348.777C201.196 349.124 201.126 349.124 198.492 349.852L198.18 349.679C199.081 348.604 199.601 347.979 200.121 347.494C198.665 348.257 198.977 348.083 197.071 349.054L196.655 348.812L200.19 347.043L200.745 347.355C200.086 348.118 199.497 348.881 198.943 349.436C200.086 349.089 201.092 348.812 202.617 348.43L203.171 348.742L200.086 350.789L199.67 350.546C200.676 349.818 201.75 349.124 202.374 348.777Z" fill="white"/>
<path d="M204.557 350.335L203.413 350.994L204.522 351.619L204.245 351.792L203.136 351.168L201.958 351.827L201.646 351.653L202.824 350.994L201.715 350.37L201.992 350.196L203.101 350.821L204.245 350.162L204.557 350.335Z" fill="white"/>
<path d="M217.8 357.702C216.656 358.049 216.656 358.014 213.917 358.778L213.606 358.604C214.541 357.529 215.027 356.904 215.547 356.419C214.056 357.217 214.576 356.939 212.496 357.98L212.08 357.737L215.616 355.968L216.171 356.28C215.547 357.043 214.923 357.806 214.368 358.361C215.477 358.015 216.379 357.772 218.042 357.355L218.597 357.668L215.512 359.714L215.096 359.471C216.205 358.674 217.176 358.049 217.8 357.702Z" fill="white"/>
<path d="M218.596 359.781L218.284 359.954L217.071 359.261L217.383 359.088L218.596 359.781Z" fill="white"/>
<path d="M230.521 365.046C229.308 365.392 229.239 365.427 226.639 366.121L226.327 365.947C227.228 364.872 227.748 364.248 228.268 363.762C226.778 364.56 227.298 364.282 225.218 365.323L224.802 365.08L228.338 363.311L228.892 363.623C228.234 364.421 227.644 365.15 227.09 365.705C228.268 365.323 229.204 365.115 230.764 364.699L231.319 365.011L228.234 367.057L227.818 366.815C228.823 366.121 229.932 365.392 230.521 365.046Z" fill="white"/>
<path d="M232.114 365.532C232.461 365.671 233.639 366.191 233.674 366.677C233.708 366.85 233.57 367.058 233.293 367.197C232.842 367.44 232.287 367.475 231.837 367.336C232.184 367.822 231.213 368.238 231.005 368.689L230.555 368.446C230.589 368.377 230.797 368.168 231.109 367.856C231.664 367.371 231.282 367.197 230.693 366.885L229.272 367.717L228.856 367.475L232.114 365.532ZM231.04 366.642L231.49 366.885C231.941 367.162 232.495 367.162 232.877 366.954C233.293 366.711 233.189 366.434 232.738 366.157C232.53 366.052 232.357 365.948 232.287 365.948L231.04 366.642Z" fill="white"/>
<path d="M233.918 370.212C233.675 370.178 233.294 370.039 232.878 369.796C230.625 368.478 234.126 366.57 236.378 367.888C236.794 368.131 236.968 368.339 237.002 368.443C236.205 368.686 236.829 368.582 236.032 368.131C235.269 367.68 234.23 367.68 233.363 368.166C232.566 368.617 232.497 369.207 233.294 369.657C233.571 369.796 233.883 369.935 234.126 369.97L233.918 370.212Z" fill="white"/>
<path d="M244.143 376.119C243.901 376.085 243.519 375.946 243.104 375.703C240.851 374.385 244.351 372.477 246.604 373.795C247.02 374.038 247.193 374.246 247.228 374.35L246.777 374.489C246.396 373.83 244.906 373.309 243.589 374.073C242.792 374.524 242.722 375.113 243.519 375.564C243.797 375.703 244.109 375.842 244.351 375.876L244.143 376.119Z" fill="white"/>
<path d="M247.852 376.604L246.57 375.876L245.391 376.569L246.812 377.402L246.466 377.61L244.594 376.535L247.887 374.627L249.689 375.668L249.342 375.876L247.991 375.078L246.951 375.668L248.233 376.396L247.852 376.604Z" fill="white"/>
<path d="M155.336 392.667C156.272 392.112 157.658 392.875 156.688 393.465C155.752 394.02 154.401 393.222 155.336 392.667Z" fill="white"/>
<path d="M173.223 399.636C171.039 400.885 169.063 401.128 167.642 400.295C166.394 399.567 166.706 398.422 168.821 397.173C170.97 395.925 173.05 395.786 174.367 396.549C175.684 397.312 175.233 398.457 173.223 399.636ZM169.653 397.694C167.989 398.665 167.573 399.497 168.335 399.948C169.202 400.469 170.658 400.122 172.287 399.151C173.847 398.249 174.471 397.416 173.604 396.896C172.876 396.445 171.386 396.688 169.653 397.694Z" fill="white"/>
<path d="M178.248 402.549C176.064 403.798 174.088 404.04 172.667 403.208C171.419 402.48 171.731 401.335 173.846 400.086C175.995 398.837 178.075 398.699 179.392 399.462C180.709 400.225 180.293 401.37 178.248 402.549ZM174.678 400.606C173.014 401.578 172.598 402.41 173.36 402.861C174.227 403.381 175.683 403.035 177.312 402.063C178.872 401.161 179.496 400.329 178.629 399.809C177.901 399.358 176.411 399.6 174.678 400.606Z" fill="white"/>
<path d="M213.779 411.113L210.694 412.882L213.641 414.581L212.844 415.032L209.897 413.333L206.777 415.136L205.946 414.651L209.065 412.847L206.119 411.147L206.916 410.696L209.862 412.396L212.947 410.627L213.779 411.113Z" fill="white"/>
<path d="M204.627 400.786L203.761 401.271L200.538 399.398L201.404 398.912L204.627 400.786Z" fill="white"/>
<path d="M184.142 407.816L184.731 407.469L189.792 410.383L189.203 410.73L184.142 407.816ZM186.048 406.706L186.638 406.359L191.698 409.273L191.109 409.62L186.048 406.706Z" fill="white"/>
<path d="M227.193 400.402L237.558 398.771L238.112 399.084L227.748 400.714L227.193 400.402ZM233.467 398.598C230.833 400.124 227.748 398.425 230.348 396.898C231.63 396.17 233.051 396.135 233.883 396.621C234.785 397.176 234.681 397.904 233.467 398.598ZM230.452 398.598C231.006 398.91 231.873 398.737 232.739 398.251C233.502 397.8 233.953 397.314 233.329 396.968C232.289 396.309 229.308 397.904 230.452 398.598ZM234.993 402.518C232.358 404.044 229.308 402.344 231.873 400.818C233.155 400.09 234.577 400.055 235.409 400.541C236.31 401.096 236.206 401.824 234.993 402.518ZM231.977 402.518C232.531 402.83 233.398 402.656 234.265 402.171C235.027 401.72 235.478 401.234 234.854 400.887C233.779 400.228 230.833 401.859 231.977 402.518Z" fill="white"/>
<path d="M227.367 383.816L237.211 381.284L237.87 381.665L227.991 384.197L227.367 383.816Z" fill="white"/>
<path d="M220.747 391.62H217.627V393.354H216.83V391.62H213.71V391.134H216.83V389.4H217.627V391.134H220.747V391.62Z" fill="white"/>
<path d="M262.063 359.974L259.637 362.611L262.306 364.171L261.682 364.831L259.013 363.27L256.552 365.906L255.789 365.455L258.25 362.819L255.581 361.258L256.205 360.599L258.874 362.16L261.301 359.523L262.063 359.974Z" fill="#46465C"/>
<path d="M261.508 367.047C261.646 367.394 262.062 368.087 262.79 368.504C264.142 369.267 265.286 368.712 265.841 368.087C266.776 367.081 266.222 366.076 265.217 365.486L264.627 365.139L265.321 364.411L265.91 364.757C266.672 365.208 267.955 365.382 268.752 364.515C269.965 363.196 268.232 362.121 266.43 362.225L266.811 361.358C267.47 361.323 268.51 361.497 269.342 361.948C271.941 363.474 269.792 366.353 266.915 365.833L266.88 365.867C268.96 367.81 265.459 371.279 262.028 369.267C261.161 368.781 260.641 368.087 260.502 367.636L261.508 367.047Z" fill="#46465C"/>
<path d="M276.83 367.744L273.883 366.044L271.838 367.744C276.864 369.756 271.838 374.959 267.991 372.739C267.159 372.254 266.639 371.629 266.5 371.178L267.471 370.589C267.609 370.935 268.06 371.525 268.753 371.941C269.724 372.496 271.145 372.392 272.046 371.421C272.913 370.484 272.878 369.409 271.318 368.542C270.868 368.299 270.486 368.126 270.174 368.022L273.918 364.83L277.592 366.946L276.83 367.744Z" fill="#46465C"/>
<path d="M273.571 374.716C273.779 374.855 274.056 374.993 274.438 375.167C275.824 375.722 277.696 375.548 279.498 374.057L279.464 374.022C276.899 374.751 274.576 372.531 276.725 370.241C279.706 367.05 285.495 369.374 281.44 373.71C278.563 376.797 275.166 377.04 272.808 375.514L273.571 374.716ZM277.835 370.727C276.101 372.565 278.32 373.988 280.088 373.224C280.226 373.155 280.365 373.086 280.504 372.912C281.648 371.663 282.064 370.449 280.954 369.825C280.122 369.339 278.805 369.721 277.835 370.727Z" fill="#46465C"/>
<path d="M241.821 391.896L243.381 388.67L244.213 388.878L243.277 390.786L248.858 388.913L254.057 391.931L253.503 392.243L248.788 389.537L241.821 391.896Z" fill="white"/>
<path d="M355.795 416.641C370.957 416.641 383.248 409.528 383.248 400.754C383.248 391.98 370.957 384.867 355.795 384.867C340.633 384.867 328.342 391.98 328.342 400.754C328.342 409.528 340.633 416.641 355.795 416.641Z" fill="#BFD3FF"/>
<path d="M330.837 394.371C330.837 398.533 334.026 401.794 337.665 403.91C352.085 412.235 377.458 406.511 377.458 394.371V399.435C377.458 402.869 375.171 406.338 370.63 408.974C361.513 414.247 346.747 414.247 337.665 408.974C333.124 406.338 330.837 402.904 330.837 399.435V394.371Z" fill="#F9962C"/>
<path d="M337.664 384.831C346.781 379.559 361.547 379.559 370.629 384.831C379.745 390.104 379.745 398.637 370.629 403.875C361.512 409.148 346.746 409.148 337.664 403.875C328.548 398.637 328.617 390.069 337.664 384.831Z" fill="#FFCD49"/>
<path d="M372.953 395.131C371.879 404.462 352.155 408.625 340.82 402.069C333.472 397.837 333.472 390.899 340.82 386.667C348.169 382.401 360.128 382.401 367.476 386.667C371.497 388.991 373.334 392.079 372.953 395.131Z" fill="#F9962C"/>
<path d="M372.953 395.133C371.878 404.464 352.155 408.627 340.82 402.071C337.493 400.128 335.655 397.665 335.344 395.133C335.655 392.601 337.458 390.103 340.82 388.196C352.224 381.605 371.878 385.837 372.953 395.133Z" fill="#FFDD58"/>
<path d="M359.469 392.67L355.379 395.029C356.28 395.965 356.662 396.832 356.523 397.595C356.107 399.816 351.323 401.827 347.095 399.816L346.124 400.371L344.703 399.538V398.393L345.673 398.983C343.836 397.63 343.836 396.243 345.431 394.925L348.204 395.029V396.173C347.58 396.694 347.441 397.214 347.822 397.734L351.635 395.549C349.833 393.71 349.278 392.254 351.843 390.762C354.131 389.444 357.32 389.236 360.336 390.519L362.173 389.478L363.594 389.166V390.311L361.826 391.352C363.767 392.774 363.906 394.404 361.688 396.139L358.88 394.82V393.676L359.573 393.919C359.712 393.468 359.677 393.017 359.469 392.67ZM349.244 398.567C351.254 399.122 353.681 398.15 352.606 396.624L349.244 398.567ZM358.187 391.768C355.934 390.866 352.606 392.08 354.374 393.953L358.187 391.768Z" fill="#F9962C"/>
<path d="M359.469 391.528L355.379 393.887C356.28 394.824 356.662 395.691 356.523 396.454C356.107 398.674 351.323 400.686 347.095 398.674L346.124 399.229L344.703 398.397L345.673 397.842C343.836 396.489 343.836 395.101 345.431 393.783L348.204 395.032C347.58 395.552 347.441 396.072 347.822 396.593L351.635 394.407C349.833 392.569 349.278 391.112 351.843 389.62C354.131 388.302 357.32 388.094 360.336 389.378L362.173 388.337L363.594 389.17L361.826 390.21C363.767 391.632 363.906 393.263 361.688 394.997L358.88 393.679C359.712 392.916 359.816 392.118 359.469 391.528ZM349.244 397.46C351.254 398.015 353.681 397.044 352.606 395.517L349.244 397.46ZM358.187 390.626C355.934 389.725 352.606 390.939 354.374 392.812L358.187 390.626Z" fill="#FDC847"/>
<path d="M327.718 388.925C327.718 393.088 330.907 396.349 334.547 398.465C348.967 406.79 374.34 401.066 374.34 388.925V393.99C374.34 397.424 372.052 400.893 367.511 403.529C358.395 408.802 343.629 408.802 334.547 403.529C330.006 400.893 327.718 397.459 327.718 393.99V388.925Z" fill="#F9962C"/>
<path d="M334.546 379.421C343.662 374.149 358.429 374.149 367.51 379.421C376.627 384.694 376.627 393.227 367.51 398.465C358.394 403.738 343.628 403.738 334.546 398.465C325.429 393.192 325.499 384.659 334.546 379.421Z" fill="#FFCD49"/>
<path d="M369.833 389.687C368.759 399.018 349.035 403.18 337.701 396.624C330.352 392.392 330.352 385.455 337.701 381.223C345.049 376.956 357.008 376.956 364.357 381.223C368.378 383.547 370.215 386.669 369.833 389.687Z" fill="#F9962C"/>
<path d="M369.833 389.688C368.759 399.019 349.035 403.181 337.7 396.625C334.373 394.683 332.536 392.22 332.224 389.688C332.536 387.155 334.338 384.658 337.7 382.75C349.105 376.194 368.759 380.426 369.833 389.688Z" fill="#FFDD58"/>
<path d="M356.35 387.225L352.26 389.584C353.161 390.521 353.542 391.388 353.404 392.151C352.988 394.371 348.204 396.383 343.975 394.371L343.005 394.926L341.584 394.093V392.949L342.554 393.538C340.717 392.186 340.717 390.798 342.312 389.48L345.085 389.584V390.729C344.461 391.249 344.322 391.769 344.703 392.29L348.516 390.104C346.714 388.266 346.159 386.809 348.724 385.317C351.012 383.999 354.201 383.791 357.217 385.075L359.054 384.034L360.475 383.722V384.866L358.707 385.907C360.648 387.329 360.787 388.96 358.569 390.694L355.761 389.376V388.231L356.454 388.474C356.593 388.023 356.558 387.572 356.35 387.225ZM346.125 393.157C348.135 393.712 350.561 392.741 349.487 391.214L346.125 393.157ZM355.068 386.323C352.814 385.421 349.487 386.636 351.255 388.509L355.068 386.323Z" fill="#F9962C"/>
<path d="M356.35 386.118L352.26 388.477C353.161 389.414 353.542 390.281 353.404 391.044C352.988 393.264 348.204 395.276 343.975 393.264L343.005 393.819L341.584 392.987L342.554 392.432C340.717 391.079 340.717 389.691 342.312 388.373L345.085 389.622C344.461 390.142 344.322 390.663 344.703 391.183L348.516 388.998C346.714 387.159 346.159 385.702 348.724 384.211C351.012 382.892 354.201 382.684 357.217 383.968L359.054 382.927L360.475 383.76L358.707 384.8C360.648 386.223 360.787 387.853 358.569 389.587L355.761 388.269C356.593 387.506 356.697 386.673 356.35 386.118ZM346.125 392.015C348.135 392.57 350.561 391.599 349.487 390.073L346.125 392.015ZM355.068 385.217C352.814 384.315 349.487 385.529 351.255 387.402L355.068 385.217Z" fill="#FDC847"/>
<path d="M332.777 384.202C332.777 388.364 335.966 391.625 339.606 393.741C354.026 402.066 379.399 396.343 379.399 384.202V389.266C379.399 392.7 377.111 396.169 372.571 398.805C363.454 404.078 348.688 404.078 339.606 398.805C335.065 396.169 332.777 392.735 332.777 389.266V384.202Z" fill="#F9962C"/>
<path d="M339.605 374.66C348.721 369.388 363.488 369.388 372.569 374.66C381.686 379.933 381.686 388.466 372.569 393.704C363.453 398.977 348.686 398.977 339.605 393.704C330.488 388.432 330.523 379.898 339.605 374.66Z" fill="#FFCD49"/>
<path d="M374.894 384.962C373.82 394.293 354.097 398.456 342.762 391.9C335.413 387.668 335.413 380.73 342.762 376.498C350.11 372.232 362.069 372.232 369.418 376.498C373.439 378.788 375.241 381.91 374.894 384.962Z" fill="#F9962C"/>
<path d="M374.894 384.964C373.82 394.295 354.096 398.458 342.762 391.902C339.434 389.959 337.597 387.496 337.285 384.964C337.597 382.432 339.399 379.934 342.762 378.027C354.131 371.436 373.82 375.668 374.894 384.964Z" fill="#FFDD58"/>
<path d="M361.41 382.501L357.32 384.86C358.221 385.797 358.603 386.664 358.464 387.427C358.048 389.647 353.265 391.659 349.036 389.647L348.065 390.202L346.644 389.369V388.225L347.615 388.814C345.777 387.462 345.777 386.074 347.372 384.756L350.145 384.86V386.005C349.521 386.525 349.382 387.045 349.764 387.566L353.577 385.38C351.774 383.542 351.219 382.085 353.785 380.593C356.072 379.275 359.261 379.067 362.277 380.351L364.114 379.31L365.535 378.998V380.142L363.768 381.183C365.709 382.605 365.847 384.236 363.629 385.97L360.821 384.652V383.507L361.514 383.75C361.653 383.264 361.618 382.848 361.41 382.501ZM351.15 388.398C353.161 388.953 355.587 387.982 354.512 386.456L351.15 388.398ZM360.128 381.599C357.875 380.697 354.547 381.911 356.315 383.785L360.128 381.599Z" fill="#F9962C"/>
<path d="M361.41 381.36L357.32 383.719C358.221 384.655 358.603 385.522 358.464 386.285C358.048 388.506 353.265 390.517 349.036 388.506L348.065 389.061L346.644 388.228L347.615 387.673C345.777 386.32 345.777 384.933 347.372 383.614L350.145 384.863C349.521 385.384 349.382 385.904 349.764 386.424L353.577 384.239C351.774 382.4 351.219 380.943 353.785 379.452C356.072 378.134 359.261 377.926 362.277 379.209L364.114 378.168L365.535 379.001L363.768 380.042C365.709 381.464 365.847 383.094 363.629 384.829L360.821 383.51C361.618 382.747 361.757 381.915 361.41 381.36ZM351.15 387.257C353.161 387.812 355.587 386.84 354.512 385.314L351.15 387.257ZM360.128 380.458C357.875 379.556 354.547 380.77 356.315 382.643L360.128 380.458Z" fill="#FDC847"/>
<path d="M391.116 451.089C406.278 451.089 418.57 443.976 418.57 435.202C418.57 426.427 406.278 419.314 391.116 419.314C375.954 419.314 363.663 426.427 363.663 435.202C363.663 443.976 375.954 451.089 391.116 451.089Z" fill="#BFD3FF"/>
<path d="M367.788 429.297C367.788 433.46 370.977 436.721 374.616 438.837C389.036 447.162 414.41 441.438 414.41 429.297V434.362C414.41 437.796 412.122 441.265 407.581 443.901C398.465 449.174 383.698 449.174 374.616 443.901C370.075 441.265 367.788 437.831 367.788 434.362V429.297Z" fill="#F9962C"/>
<path d="M374.616 419.792C383.733 414.519 398.499 414.519 407.581 419.792C416.697 425.064 416.697 433.598 407.581 438.836C398.464 444.108 383.698 444.108 374.616 438.836C365.465 433.563 365.535 425.03 374.616 419.792Z" fill="#FFCD49"/>
<path d="M409.904 430.058C408.83 439.389 389.106 443.552 377.772 436.996C370.423 432.764 370.423 425.826 377.772 421.594C385.12 417.328 397.079 417.328 404.428 421.594C408.448 423.918 410.251 427.04 409.904 430.058Z" fill="#F9962C"/>
<path d="M409.904 430.063C408.83 439.394 389.106 443.557 377.771 437.001C374.444 435.058 372.607 432.595 372.295 430.063C372.607 427.531 374.409 425.033 377.771 423.125C389.141 416.535 408.83 420.801 409.904 430.063Z" fill="#FFDD58"/>
<path d="M396.386 427.597L392.296 429.955C393.197 430.892 393.578 431.759 393.44 432.522C393.024 434.742 388.24 436.754 384.011 434.742L383.041 435.297L381.619 434.465V433.32L382.59 433.91C380.753 432.557 380.753 431.169 382.347 429.851L385.12 429.955V431.1C384.496 431.62 384.358 432.141 384.739 432.661L388.552 430.476C386.75 428.637 386.195 427.18 388.76 425.689C391.048 424.371 394.237 424.162 397.252 425.446L399.09 424.405L400.511 424.093V425.238L398.743 426.278C400.684 427.701 400.823 429.331 398.604 431.065L395.797 429.747V428.602L396.49 428.845C396.663 428.394 396.629 427.943 396.386 427.597ZM386.16 433.528C388.171 434.083 390.597 433.112 389.523 431.586L386.16 433.528ZM395.138 426.695C392.885 425.793 389.557 427.007 391.325 428.88L395.138 426.695Z" fill="#F9962C"/>
<path d="M396.386 426.455L392.296 428.814C393.197 429.751 393.578 430.618 393.44 431.381C393.024 433.601 388.24 435.613 384.011 433.601L383.041 434.156L381.619 433.324L382.59 432.769C380.753 431.416 380.753 430.028 382.347 428.71L385.12 429.959C384.496 430.479 384.358 431 384.739 431.52L388.552 429.335C386.75 427.496 386.195 426.039 388.76 424.548C391.048 423.229 394.237 423.021 397.252 424.305L399.09 423.264L400.511 424.097L398.743 425.137C400.684 426.56 400.823 428.19 398.604 429.924L395.797 428.606C396.629 427.843 396.733 427.045 396.386 426.455ZM386.16 432.387C388.171 432.942 390.597 431.971 389.523 430.445L386.16 432.387ZM395.138 425.588C392.885 424.686 389.557 425.9 391.325 427.774L395.138 425.588Z" fill="#FDC847"/>
<path d="M315.343 447.647C330.504 447.647 342.796 440.534 342.796 431.76C342.796 422.985 330.504 415.872 315.343 415.872C300.181 415.872 287.889 422.985 287.889 431.76C287.889 440.534 300.181 447.647 315.343 447.647Z" fill="#BFD3FF"/>
<path d="M290.143 425.523C290.143 429.686 293.332 432.946 296.971 435.062C311.391 443.387 336.765 437.664 336.765 425.523V430.588C336.765 434.022 334.477 437.49 329.936 440.127C320.82 445.399 306.053 445.399 296.971 440.127C292.43 437.49 290.143 434.056 290.143 430.588V425.523Z" fill="#F9962C"/>
<path d="M296.971 415.984C306.087 410.711 320.854 410.711 329.935 415.984C339.052 421.257 339.052 429.79 329.935 435.028C320.819 440.3 306.052 440.3 296.971 435.028C287.82 429.755 287.889 421.222 296.971 415.984Z" fill="#FFCD49"/>
<path d="M332.258 426.249C331.184 435.58 311.46 439.743 300.126 433.187C292.777 428.955 292.777 422.017 300.126 417.785C307.474 413.519 319.433 413.519 326.782 417.785C330.802 420.11 332.605 423.231 332.258 426.249Z" fill="#F9962C"/>
<path d="M332.259 426.251C331.184 435.582 311.461 439.744 300.126 433.188C296.799 431.246 294.961 428.783 294.649 426.251C294.961 423.718 296.764 421.221 300.126 419.313C311.496 412.757 331.184 416.989 332.259 426.251Z" fill="#FFDD58"/>
<path d="M318.774 423.788L314.684 426.147C315.585 427.083 315.967 427.95 315.828 428.714C315.412 430.934 310.628 432.946 306.4 430.934L305.429 431.489L304.008 430.656V429.511L304.978 430.101C303.141 428.748 303.141 427.361 304.736 426.043L307.509 426.147V427.291C306.885 427.812 306.746 428.332 307.128 428.852L310.94 426.667C309.138 424.829 308.583 423.372 311.148 421.88C313.436 420.562 316.625 420.354 319.641 421.637L321.478 420.597L322.899 420.284V421.429L321.131 422.47C323.073 423.892 323.211 425.522 320.993 427.257L318.185 425.939V424.794L318.878 425.037C319.017 424.586 318.982 424.135 318.774 423.788ZM308.514 429.72C310.525 430.275 312.951 429.303 311.876 427.777L308.514 429.72ZM317.492 422.921C315.239 422.019 311.911 423.233 313.679 425.106L317.492 422.921Z" fill="#F9962C"/>
<path d="M318.774 422.681L314.684 425.04C315.585 425.977 315.967 426.844 315.828 427.607C315.412 429.827 310.628 431.839 306.4 429.827L305.429 430.382L304.008 429.55L304.978 428.995C303.141 427.642 303.141 426.254 304.736 424.936L307.509 426.185C306.885 426.705 306.746 427.225 307.128 427.746L310.94 425.56C309.138 423.722 308.583 422.265 311.148 420.773C313.436 419.455 316.625 419.247 319.641 420.531L321.478 419.49L322.899 420.323L321.131 421.363C323.073 422.785 323.211 424.416 320.993 426.15L318.185 424.832C319.017 424.069 319.121 423.236 318.774 422.681ZM308.514 428.578C310.525 429.133 312.951 428.162 311.876 426.636L308.514 428.578ZM317.492 421.779C315.239 420.878 311.911 422.092 313.679 423.965L317.492 421.779Z" fill="#FDC847"/>
<path d="M479.437 455.659C476.734 455.347 475.867 455.243 461.933 453.578C461.205 453.231 460.477 453.161 459.853 453.335L380.925 474.564C380.162 474.252 379.4 474.183 378.741 474.356C376.488 474.946 334.026 486.393 330.351 487.364C325.914 488.578 323.141 493.192 324.389 497.736C325.602 502.211 330.109 504.812 334.511 503.771C334.649 503.737 331.911 504.465 383.109 490.694C383.767 490.521 384.391 490.07 384.876 489.411L463.804 468.181C464.428 468.008 465.018 467.592 465.468 466.933C481.725 454.688 478.779 456.908 479.576 456.318C479.888 456.11 479.784 455.694 479.437 455.659Z" fill="#BFD3FF"/>
<path d="M475.659 450.284C476.803 450.423 477.635 450.527 478.744 450.666C479.056 450.7 479.194 451.117 478.917 451.325C478.362 451.741 478.813 451.394 476.456 453.198L475.659 450.284Z" fill="#F4F4F4"/>
<path d="M463.146 463.185L459.16 448.339L475.66 450.316C477.116 450.489 477.566 452.362 476.422 453.195L463.146 463.185Z" fill="#466380"/>
<path d="M336.349 496.664C333.056 495.346 330.664 489.276 331.773 484.974C332.12 483.656 332.917 482.338 334.199 481.991L459.16 448.344C462.973 447.303 467.029 454.83 465.607 460.207L336.903 494.86C336.834 495.311 336.626 496.005 336.349 496.664Z" fill="#537496"/>
<path d="M385.292 481.829L336.902 494.872C337.907 489.565 334.51 482.523 330.593 482.315C329.969 482.28 321.2 484.708 378.082 469.376C382.103 468.301 386.401 475.863 385.292 481.829Z" fill="#466380"/>
<path d="M329.692 482.38C331.147 481.998 332.603 482.796 333.678 483.871C337.595 487.791 338.323 496.185 334.926 498.336C333.331 499.377 331.494 498.544 330.142 497.191C325.775 492.925 325.497 483.524 329.692 482.38Z" fill="#4E6D8C"/>
<path d="M334.198 477.373L376.695 465.926L377.146 467.661L339.64 477.755L340.333 480.322L335.342 481.675L334.198 477.373Z" fill="#466380"/>
<path d="M332.985 481.501L332.049 477.963L334.198 477.373L335.342 481.675C334.683 481.224 333.921 481.224 332.985 481.501Z" fill="#4E6D8C"/>
<path d="M463.146 463.19L462.764 461.803C466.508 459.652 463.735 461.421 476.941 452.472C476.733 453.061 477.635 452.298 463.146 463.19Z" fill="#384E66"/>
<path d="M334.095 498.715C329.623 499.929 324.944 497.327 323.731 492.748C322.517 488.239 325.187 483.591 329.693 482.376C331.149 481.995 332.604 482.793 333.679 483.868C337.943 488.135 338.324 497.57 334.095 498.715Z" fill="#4E6D8C"/>
<path d="M478.744 450.672C479.056 450.707 479.195 451.123 478.918 451.331L478.536 451.608C478.918 450.603 477.601 450.534 478.744 450.672Z" fill="#466380"/>
<path d="M463.146 463.192L384.218 484.421C384.773 483.692 385.085 482.686 385.258 481.819L465.573 460.208C465.157 461.874 464.255 462.879 463.146 463.192Z" fill="#3B526B"/>
<path d="M382.45 485.704C324.701 501.245 334.372 498.712 334.892 498.365C336.036 497.602 336.729 496.076 336.902 494.827L385.292 481.785C384.98 483.484 384.114 485.253 382.45 485.704Z" fill="#364D63"/>
<path d="M334.095 498.711C329.623 499.926 324.944 497.324 323.731 492.745C326.4 496.422 329.103 496.942 336.903 494.826C336.695 496.422 335.724 498.295 334.095 498.711Z" fill="#3E5772"/>
<defs>
<linearGradient id="paint0_linear_1_252" x1="148.154" y1="72.9947" x2="223.176" y2="72.9947" gradientUnits="userSpaceOnUse">
<stop stop-color="#F5F5F5"/>
<stop offset="1" stop-color="white"/>
</linearGradient>
<linearGradient id="paint1_linear_1_252" x1="148.155" y1="73.0057" x2="223.177" y2="73.0057" gradientUnits="userSpaceOnUse">
<stop stop-color="#43CDFF"/>
<stop offset="1" stop-color="#4394FF"/>
</linearGradient>
</defs>
</svg>
