<svg viewBox="0 0 304 273" fill="none" xmlns="http://www.w3.org/2000/svg">
<path d="M81.5626 183.41L165.328 135.022C171.321 131.555 171.284 125.071 165.328 121.642L113.604 91.7692C108.529 88.8269 100.552 88.8269 95.4767 91.7692L11.6921 140.176C-27.9155 164.276 42.6479 203.256 81.5626 183.41Z" fill="#BFD3FF"/>
<path d="M27.5724 96.074C28.49 98.8101 28.8646 103.233 33.0032 97.8169C37.1232 92.4196 35.9621 89.0089 35.0632 86.2727C31.5425 75.7406 26.0743 91.5763 27.5724 96.074Z" fill="#C2C2C2"/>
<path d="M33.0031 97.8354C32.1416 98.9599 31.4487 99.6533 30.8682 100.028C30.1753 99.241 29.6884 97.7042 29.1266 96.5049C27.6471 93.3377 29.2202 83.6863 31.9169 82.7868C33.284 82.4682 34.3701 84.2673 35.0443 86.2913C35.9619 89.0274 37.123 92.4194 33.0031 97.8354Z" fill="#EDEDED"/>
<path d="M166.92 116.948L149.504 106.885L155.066 99.6133L168.343 108.815L166.92 116.948Z" fill="#545454"/>
<path d="M162.407 109.905C159.916 108.481 156.882 109.249 154.41 110.692C145.814 115.658 140.252 129.695 144.578 135.917C145.084 136.648 145.702 137.229 146.414 137.641L139.635 133.724C137.593 132.543 136.32 129.995 136.32 126.397C136.32 119.181 141.395 110.373 147.631 106.775C150.758 104.976 153.586 104.807 155.627 105.988L162.407 109.905Z" fill="#212121"/>
<path d="M165.722 117.227C165.722 124.442 160.647 133.25 154.411 136.848C148.156 140.465 143.1 137.504 143.1 130.308C143.1 120.469 152.369 108.569 159.991 109.168C163.961 109.468 165.722 113.141 165.722 117.227Z" fill="#343434"/>
<path d="M154.392 132.487C150.234 134.885 146.845 132.936 146.845 128.12C146.845 123.304 150.234 117.438 154.392 115.039C158.549 112.641 161.939 114.59 161.939 119.406C161.939 124.222 158.568 130.088 154.392 132.487Z" fill="#DDDDDD"/>
<path d="M155.253 119.571C154.617 119.702 154.017 120.115 153.549 120.564C152.8 117.791 151.751 117.66 154.392 116.123C157.07 114.567 156.002 116.011 155.253 119.571Z" fill="#AFAFAF"/>
<path d="M157.613 120.901C157.501 120.395 157.238 119.926 156.751 119.683C158.774 116.141 158.811 114.717 160.141 116.591C161.471 118.502 160.31 118.558 157.613 120.901Z" fill="#AFAFAF"/>
<path d="M156.751 125.117C157.163 124.443 157.463 123.674 157.594 122.925C160.385 122.156 161.452 120.863 160.141 124.274C158.811 127.722 158.699 126.298 156.751 125.117Z" fill="#AFAFAF"/>
<path d="M153.549 127.983C154.186 127.852 154.785 127.44 155.253 126.99C156.002 129.764 157.051 129.895 154.41 131.432C151.732 132.968 152.781 131.525 153.549 127.983Z" fill="#AFAFAF"/>
<path d="M151.189 126.636C151.301 127.142 151.563 127.61 152.05 127.854C150.028 131.396 149.99 132.82 148.661 130.946C147.312 129.035 148.473 128.997 151.189 126.636Z" fill="#AFAFAF"/>
<path d="M152.032 122.419C151.62 123.094 151.32 123.862 151.189 124.612C148.399 125.38 147.332 126.673 148.642 123.263C149.991 119.833 150.084 121.239 152.032 122.419Z" fill="#AFAFAF"/>
<path d="M155.037 124.151C155.393 123.532 155.392 122.863 155.034 122.656C154.676 122.449 154.096 122.783 153.739 123.401C153.383 124.02 153.384 124.689 153.742 124.896C154.1 125.103 154.68 124.769 155.037 124.151Z" fill="#AFAFAF"/>
<path d="M152.032 122.419C151.62 123.094 151.321 123.862 151.189 124.612C149.991 124.949 149.092 125.361 148.586 125.474C148.867 124.012 149.448 122.513 150.272 121.145C150.684 121.332 151.171 121.894 152.032 122.419Z" fill="#343434"/>
<path d="M156.078 116.162C155.984 116.837 155.591 117.999 155.254 119.554C154.617 119.685 154.018 120.098 153.55 120.547C153.212 119.348 152.838 118.636 152.726 118.092C153.662 117.249 154.842 116.462 156.078 116.162Z" fill="#343434"/>
<path d="M160.216 118.785C159.71 119.291 158.811 119.872 157.613 120.921C157.501 120.415 157.238 119.947 156.751 119.703C157.632 118.167 158.137 117.042 158.531 116.386C159.355 116.817 159.935 117.623 160.216 118.785Z" fill="#343434"/>
<path d="M160.216 122.065C159.935 123.527 159.355 125.026 158.531 126.394C158.119 126.226 157.613 125.645 156.751 125.12C157.163 124.464 157.463 123.677 157.594 122.927C158.811 122.59 159.71 122.159 160.216 122.065Z" fill="#343434"/>
<path d="M156.078 129.446C155.141 130.308 153.962 131.095 152.726 131.376C152.819 130.702 153.212 129.54 153.55 127.984C154.186 127.835 154.786 127.441 155.254 126.991C155.572 128.191 155.965 128.903 156.078 129.446Z" fill="#343434"/>
<path d="M152.051 127.855C151.171 129.391 150.665 130.516 150.272 131.172C149.467 130.741 148.867 129.935 148.586 128.792C149.092 128.286 149.991 127.705 151.189 126.655C151.302 127.143 151.564 127.611 152.051 127.855Z" fill="#343434"/>
<path d="M155.252 119.576C154.634 119.707 154.016 120.119 153.548 120.569C153.492 120.344 153.417 120.119 153.361 119.913C153.791 119.557 154.297 119.257 154.821 119.145C155.196 117.402 155.645 116.147 155.683 115.528C156.6 115.322 155.832 116.821 155.252 119.576Z" fill="#999999"/>
<path d="M157.611 120.905C157.555 120.681 157.48 120.474 157.387 120.287C159.934 118.113 161.188 117.982 159.484 115.864C159.671 115.995 159.877 116.22 160.14 116.595C161.469 118.507 160.308 118.563 157.611 120.905Z" fill="#999999"/>
<path d="M160.159 124.281C158.829 127.729 158.717 126.305 156.769 125.124C156.788 125.087 156.806 125.049 156.825 125.03C158.305 126.099 158.511 126.979 159.728 123.85C160.065 122.969 160.252 122.407 160.29 122.069C160.87 121.957 160.87 122.407 160.159 124.281Z" fill="#999999"/>
<path d="M154.409 131.44C153.061 132.227 152.667 132.227 152.686 131.609C152.948 131.552 153.36 131.365 153.96 131.009C156.375 129.622 155.701 129.378 154.99 127.223C155.065 127.148 155.158 127.092 155.233 127.017C156.001 129.772 157.05 129.903 154.409 131.44Z" fill="#999999"/>
<path d="M152.05 127.839C150.139 131.156 149.99 132.637 148.885 131.231C149.634 131.718 149.971 130.257 151.581 127.464C151.713 127.633 151.862 127.764 152.05 127.839Z" fill="#999999"/>
<path d="M152.031 122.427C151.638 123.083 151.319 123.87 151.188 124.62C149.128 125.182 148.005 126.044 148.098 125.051C148.604 124.976 149.503 124.526 150.757 124.17C150.889 123.458 151.169 122.708 151.544 122.071C151.694 122.202 151.862 122.315 152.031 122.427Z" fill="#999999"/>
<path d="M154.39 124.824C153.959 125.068 153.585 124.937 153.491 124.506C154.165 124.581 155.008 123.4 154.839 122.594C155.682 122.669 155.307 124.3 154.39 124.824Z" fill="#999999"/>
<path d="M92.2926 160.164L74.8765 150.119L80.4384 142.829L94.4649 152.593L92.2926 160.164Z" fill="#545454"/>
<path d="M87.8355 152.626C85.2138 151.127 82.0489 151.952 79.4271 153.451C70.5318 158.586 64.5204 173.278 69.0898 179.931C69.6142 180.7 70.2696 181.299 71.0187 181.749L64.0335 177.72C61.8799 176.483 60.5503 173.822 60.5503 170.018C60.5503 162.446 65.8875 153.207 72.4419 149.422C75.7192 147.529 78.6968 147.36 80.8504 148.597L87.8355 152.626Z" fill="#212121"/>
<path d="M91.3184 160.33C91.3184 167.901 85.9813 177.14 79.4268 180.926C72.8724 184.712 67.5352 181.638 67.5352 174.067C67.5352 163.741 77.2732 151.241 85.2696 151.859C89.4645 152.178 91.3184 156.039 91.3184 160.33Z" fill="#343434"/>
<path d="M79.445 176.347C75.0816 178.877 71.5234 176.816 71.5234 171.774C71.5234 166.733 75.0816 160.567 79.445 158.038C83.8083 155.508 87.3665 157.569 87.3665 162.61C87.3665 167.651 83.8083 173.836 79.445 176.347Z" fill="#DDDDDD"/>
<path d="M80.3261 162.783C79.6707 162.933 79.034 163.345 78.5283 163.813C77.7418 160.89 76.6369 160.759 79.4085 159.147C82.2363 157.535 81.1314 159.053 80.3261 162.783Z" fill="#AFAFAF"/>
<path d="M82.8164 164.186C82.704 163.642 82.4231 163.155 81.9175 162.911C84.0524 159.201 84.0898 157.701 85.4756 159.669C86.8614 161.674 85.6442 161.712 82.8164 164.186Z" fill="#AFAFAF"/>
<path d="M81.9175 168.613C82.3482 167.9 82.6666 167.095 82.8164 166.307C85.7378 165.502 86.8614 164.152 85.4756 167.732C84.0711 171.349 83.9587 169.868 81.9175 168.613Z" fill="#AFAFAF"/>
<path d="M78.5471 171.612C79.2025 171.462 79.8392 171.05 80.3448 170.582C81.1314 173.505 82.2363 173.636 79.4647 175.248C76.6369 176.86 77.7418 175.342 78.5471 171.612Z" fill="#AFAFAF"/>
<path d="M76.0748 170.202C76.1872 170.745 76.4681 171.232 76.9737 171.476C74.8388 175.187 74.8014 176.686 73.4156 174.718C72.0111 172.713 73.2283 172.675 76.0748 170.202Z" fill="#AFAFAF"/>
<path d="M76.9552 165.784C76.5244 166.496 76.2061 167.302 76.0563 168.089C73.1349 168.895 72.0112 170.245 73.397 166.665C74.8016 163.067 74.9139 164.547 76.9552 165.784Z" fill="#AFAFAF"/>
<path d="M80.4005 166.643C80.4005 167.262 79.9699 167.993 79.4456 168.311C78.9214 168.611 78.4907 168.367 78.4907 167.749C78.4907 167.13 78.9214 166.4 79.4456 166.081C79.9699 165.781 80.4005 166.025 80.4005 166.643Z" fill="#AFAFAF"/>
<path d="M76.9548 165.792C76.5241 166.485 76.2057 167.291 76.0559 168.097C74.7825 168.434 73.8649 168.884 73.3218 168.996C73.6027 167.46 74.2394 165.885 75.0821 164.442C75.5316 164.649 76.0559 165.248 76.9548 165.792Z" fill="#343434"/>
<path d="M81.2059 159.211C81.0935 159.924 80.6816 161.142 80.3257 162.772C79.6703 162.922 79.0336 163.334 78.5279 163.803C78.1909 162.547 77.7789 161.798 77.6665 161.235C78.659 160.355 79.9137 159.53 81.2059 159.211Z" fill="#343434"/>
<path d="M85.551 161.965C85.0079 162.49 84.0716 163.108 82.8169 164.195C82.7045 163.651 82.4236 163.164 81.918 162.921C82.8356 161.309 83.3599 160.128 83.7907 159.454C84.6334 159.903 85.2514 160.765 85.551 161.965Z" fill="#343434"/>
<path d="M85.5508 165.413C85.2699 166.95 84.6332 168.524 83.7905 169.948C83.3598 169.761 82.8354 169.161 81.9365 168.618C82.3672 167.924 82.6856 167.118 82.8354 166.313C84.0714 165.957 85.0077 165.507 85.5508 165.413Z" fill="#343434"/>
<path d="M81.2062 173.156C80.2324 174.055 78.9777 174.88 77.6855 175.198C77.7979 174.486 78.2099 173.268 78.5657 171.638C79.2399 171.488 79.8579 171.075 80.3635 170.607C80.6819 171.863 81.0751 172.593 81.2062 173.156Z" fill="#343434"/>
<path d="M76.9734 171.489C76.0557 173.101 75.5127 174.282 75.1007 174.956C74.2392 174.506 73.6212 173.644 73.3403 172.445C73.8834 171.92 74.8198 171.302 76.0745 170.215C76.1868 170.758 76.4677 171.246 76.9734 171.489Z" fill="#343434"/>
<path d="M80.3257 162.782C79.6704 162.932 79.0338 163.344 78.5282 163.813C78.4533 163.569 78.3972 163.344 78.3223 163.138C78.7716 162.763 79.2959 162.445 79.8576 162.332C80.2508 160.496 80.7189 159.184 80.7563 158.547C81.7487 158.322 80.9436 159.896 80.3257 162.782Z" fill="#999999"/>
<path d="M82.8167 164.19C82.7605 163.946 82.6856 163.74 82.5732 163.552C85.2512 161.266 86.5621 161.135 84.783 158.905C84.9703 159.036 85.195 159.28 85.4759 159.673C86.8805 161.678 85.6445 161.716 82.8167 164.19Z" fill="#999999"/>
<path d="M85.4761 167.732C84.0716 171.349 83.9592 169.868 81.918 168.613C81.9367 168.575 81.9554 168.538 81.9741 168.5C83.5285 169.625 83.7345 170.543 85.0079 167.263C85.3637 166.345 85.551 165.745 85.5885 165.389C86.2439 165.277 86.2439 165.764 85.4761 167.732Z" fill="#999999"/>
<path d="M79.4456 175.247C78.0223 176.071 77.6104 176.09 77.6478 175.415C77.9287 175.359 78.3594 175.153 78.9961 174.797C81.543 173.335 80.8314 173.092 80.0823 170.824C80.176 170.749 80.2509 170.674 80.3258 170.599C81.131 173.504 82.2172 173.635 79.4456 175.247Z" fill="#999999"/>
<path d="M76.9739 171.478C74.9701 174.963 74.8203 176.5 73.6592 175.038C74.4457 175.544 74.8015 174.026 76.487 171.084C76.6181 171.253 76.7866 171.384 76.9739 171.478Z" fill="#999999"/>
<path d="M76.9551 165.78C76.5431 166.473 76.206 167.279 76.0562 168.085C73.8838 168.685 72.704 169.584 72.7977 168.535C73.322 168.46 74.2771 167.973 75.588 167.616C75.7191 166.867 76.0187 166.08 76.412 165.424C76.5992 165.555 76.7678 165.667 76.9551 165.78Z" fill="#999999"/>
<path d="M79.4455 168.313C78.9774 168.576 78.6029 168.426 78.5093 167.976C79.2208 168.051 80.1008 166.814 79.9323 165.971C80.7748 166.046 80.4004 167.751 79.4455 168.313Z" fill="#999999"/>
<path d="M168.418 102.294V89.4377C168.418 85.7271 167.22 82.0165 164.71 78.8306C166.489 81.7541 166.564 84.2653 163.961 86.1019L81.2439 133.89L64.6705 144.516L62.9102 160.164L64.6705 173.601C64.6705 164.793 70.8504 154.074 78.4723 149.67C86.0942 145.266 92.2741 148.826 92.2741 157.653L139.298 130.479C139.241 121.728 145.384 110.896 153.099 106.454C160.721 102.05 166.901 105.611 166.901 114.438C169.542 112.132 168.418 107.785 168.418 102.294Z" fill="#19A0A5"/>
<path d="M126.863 109.625L121.937 137.249L120.739 138.373L125.739 110.281L126.863 109.625Z" fill="#27C9CF"/>
<path d="M94.9143 152.688L93.6786 154.506L92.6113 129.881L93.7535 129.225L94.9143 152.688Z" fill="#27C9CF"/>
<path d="M121.694 138.824L93.6782 154.51L94.5959 152.542L121.937 137.25L121.694 138.824Z" fill="#27C9CF"/>
<path d="M121.226 118.505V119.517C121.226 119.948 121.002 120.342 120.627 120.548L114.841 123.884C114.522 124.071 114.129 123.846 114.129 123.471V122.478C114.129 122.047 114.354 121.653 114.728 121.447L120.515 118.093C120.833 117.924 121.226 118.149 121.226 118.505Z" fill="#19D3DA"/>
<path d="M81.2628 133.91L64.6894 144.536L8.6582 113.202L25.475 101.677L81.2628 133.91Z" fill="#19D3DA"/>
<path d="M64.6892 144.537C64.6892 144.537 57.4981 151.021 42.3479 148.341C27.0292 145.624 10.8117 138.221 6.09245 128.814C1.22343 119.106 8.65805 113.184 8.65805 113.184L64.6892 144.537Z" fill="#19D3DA"/>
<path d="M88.5476 122.869L79.5586 132.914L83.9033 134.019L97.4054 125.305L88.5476 122.869Z" fill="#19D3DA"/>
<path d="M64.689 144.54V173.607C61.9361 175.125 59.8387 175.012 53.7711 175.443C35.4748 176.755 1.69134 169.165 2.27187 142.104C2.44042 134.777 0.904806 124.825 5.68019 116.879C3.35804 120.459 3.95731 124.938 6.09218 128.836C11.1297 138.056 27.029 145.627 42.3477 148.363C57.4791 151.025 64.689 144.54 64.689 144.54Z" fill="#20BDC2"/>
<path d="M5.68002 116.879C5.49279 117.197 5.32427 117.497 5.15576 117.816C5.30555 117.497 5.49279 117.179 5.68002 116.879Z" fill="#CECECE"/>
<path d="M48.1157 148.887V155.315C31.7108 156.139 7.64662 143.996 3.22705 133.894L4.68776 123.025C4.66903 124.974 5.1372 126.923 6.12974 128.722C12.5718 140.51 36.3926 148.831 48.1157 148.887Z" fill="#3E3E3E"/>
<path d="M5.68072 116.873C4.5571 118.71 4.44473 121.727 4.29492 123.114C4.36983 127.105 4.25746 131.566 3.20875 133.908C2.32858 131.884 2.01023 128.68 2.44095 126.562C2.9653 123.301 3.33984 120.04 5.68072 116.873Z" fill="#F4F4F4"/>
<path d="M64.1652 145.287C64.1652 145.305 64.7832 151.096 59.4272 153.233V147.367C61.2438 146.748 62.8168 145.943 64.1652 145.287Z" fill="#FFFF00"/>
<path d="M63.3971 143.677L159.467 87.0244L160.927 89.5356L72.9853 141.372C68.0601 144.145 61.7678 146.563 59.4082 147.032L63.3971 143.677Z" fill="#27C9CF"/>
<path d="M59.4272 147.371C60.2699 148.945 60.2886 150.932 59.4272 153.237C55.663 154.736 51.8614 155.148 48.116 155.336C46.7302 153.237 46.7864 151.082 48.116 148.908C52.4045 148.927 56.2436 148.439 59.4272 147.371Z" fill="#F4F4F4"/>
<path d="M52.9658 152.822C52.9658 153.628 52.3105 154.003 51.5054 153.666C50.7002 153.328 50.0449 152.391 50.0449 151.585C50.0449 150.78 50.7002 150.405 51.5054 150.742C52.3105 151.079 52.9658 152.016 52.9658 152.822Z" fill="#DDDDDD"/>
<path d="M56.2922 153.03C56.8943 152.54 56.7797 151.401 56.0364 150.486C55.293 149.57 54.2024 149.224 53.6003 149.714C52.9983 150.203 53.1129 151.342 53.8562 152.258C54.5995 153.174 55.6902 153.519 56.2922 153.03Z" fill="#DDDDDD"/>
<path d="M8.65797 113.204C7.45945 114.253 6.33583 115.827 5.68038 117.289C4.21968 120.456 4.33204 123.755 5.69911 126.978C10.2685 137.697 28.003 144.538 39.3515 147.049C48.097 148.942 54.7826 149.26 64.1835 145.512C54.1459 151.003 44.9322 150.235 34.0518 147.161C24.8756 144.575 13.2835 139.422 7.47817 131.85C5.38075 129.152 3.84514 125.535 3.99495 122.124C4.12604 118.507 6.03619 115.209 8.65797 113.204Z" fill="white"/>
<path d="M92.293 160.167V157.656L139.316 130.482V133.012L92.293 160.167Z" fill="#343434"/>
<path d="M166.92 116.948V114.437C167.744 113.744 168.662 112.376 168.662 109.34C168.662 109.34 172.163 113.913 166.92 116.948Z" fill="#343434"/>
<path d="M126.862 109.616L125.739 110.291L124.11 107.799L125.177 107.18L126.862 109.616Z" fill="#19D3DA"/>
<path d="M93.7535 129.224L92.6113 129.88L93.3977 125.982L94.5399 125.307L93.7535 129.224Z" fill="#48FF60"/>
<path d="M88.2665 129.058C87.068 129.752 85.7758 128.346 86.5436 127.222C91.4501 120.044 96.1131 111.03 104.259 101.604C107.874 97.4057 142.931 78.4028 151.639 73.6053C151.657 73.6053 154.129 67.8145 154.129 67.8145C160.965 71.7687 164.785 78.9463 164.804 78.9276L159.504 87.0422C159.467 87.0422 108.267 117.327 88.2665 129.058Z" fill="#484C68"/>
<path d="M92.2927 157.656C91.6372 154.357 90.4012 150.872 87.2364 149.672C86.6746 149.485 86.0566 149.335 85.4199 149.316C85.2139 149.316 85.0079 149.297 84.7831 149.316C78.0601 149.503 67.2359 160.579 64.6703 173.604C63.6029 168.15 65.6629 159.698 71.6368 152.97C75.8129 148.398 82.0303 144.631 87.742 146.974C88.1165 147.161 88.2476 147.217 88.36 147.292C91.9556 149.354 93.0605 153.664 92.2927 157.656Z" fill="#EDEDED"/>
<path d="M139.316 130.389C137.499 121.019 144.728 107.675 154.316 103.946C162.781 100.723 168.455 106.607 166.92 114.441C166.245 111.011 165.459 109.756 164.448 108.331C157.069 100.029 142.088 116.184 139.316 130.389Z" fill="#EDEDED"/>
<path d="M168.418 89.4363C168.418 96.2766 168.455 95.5645 168.343 95.6394C167.369 96.2016 166.564 95.8643 166.564 94.8898V90.6919C166.564 89.7174 167.35 88.4618 168.343 87.8809C168.399 88.3869 168.418 88.9116 168.418 89.4363Z" fill="#FF1D25"/>
<path d="M104.24 101.581C93.3226 114.25 90.3076 123.92 81.2625 133.14C72.8915 140.149 23.0215 108.89 25.4747 101.656C32.9093 93.8603 39.0705 82.8971 49.9884 70.2285C50.0071 70.2473 104.24 101.581 104.24 101.581Z" fill="#F4F4F4"/>
<path d="M98.6789 103.476C92.424 111.215 89.0345 118.056 82.7422 126.864C80.7009 129.731 77.199 131.137 73.903 129.862C57.2735 123.415 43.172 114.963 32.4227 105.687C30.4002 103.944 30.2317 101.245 31.8235 99.109C37.1232 92.0064 44.1833 82.2613 50.7565 74.2778L98.6789 103.476Z" fill="#343434"/>
<path d="M98.679 103.478C93.1171 110.787 87.9859 119.389 83.9221 125.18C82.143 127.71 78.1729 128.815 75.289 127.691C58.753 121.263 44.5954 113.036 33.8836 103.815C31.9734 102.166 31.6738 99.3177 33.1907 97.2937C37.7788 91.2031 43.734 82.3201 50.251 74.6177C51.2809 73.4183 53.0226 73.1185 54.3896 73.9056L97.7801 98.9804C99.3719 99.9174 99.7839 102.016 98.679 103.478Z" fill="#484C68"/>
<path d="M66.1314 80.7024L38.8836 96.4445C37.9473 96.9879 36.8798 95.9572 37.3855 95.0014C42.8163 84.8816 45.9063 80.7774 50.5318 75.4176C50.9064 74.9678 51.5805 74.3119 52.5169 73.4686C53.1536 73.4311 53.7903 73.5623 54.3709 73.8996L66.1314 80.7024Z" fill="#545A7A"/>
<path d="M125.627 87.6758V106.941L123.324 108.272V89.0813C124.466 88.3692 124.428 88.3692 125.627 87.6758Z" fill="#343434"/>
<path d="M146.732 75.3096V94.5748L144.429 95.9054V76.7151C145.59 76.003 145.533 76.003 146.732 75.3096Z" fill="#343434"/>
<path d="M83.922 125.178C82.143 127.708 78.1729 128.814 75.2889 127.689C58.753 121.261 44.5954 113.034 33.8835 103.814C32.6101 102.708 32.0483 101.096 32.273 99.5221C32.273 99.5221 38.0784 96.4862 63.0414 115.958C72.3488 114.308 79.1279 116.501 83.922 125.178Z" fill="#2F3245"/>
<path opacity="0.3" d="M68.7338 125.007C62.2355 122.177 56.1305 119.066 50.5499 115.73L36.9541 92.1359C39.1639 89.0812 41.5609 85.7079 44.1265 82.3159L68.7338 125.007Z" fill="#5F658A"/>
<path opacity="0.3" d="M82.9665 126.244C81.5619 127.481 79.5582 128.156 77.648 128.137L48.1904 77.1067C48.8646 76.2633 49.5575 75.4388 50.2317 74.6329C50.8309 73.9395 51.6549 73.546 52.5164 73.4897L82.9665 126.244Z" fill="#5F658A"/>
<path d="M144.691 77.3511C152.631 73.0221 163.605 79.956 159.485 87.04C165.028 85.2221 166.714 81.2491 164.729 78.8504C163.68 80.9118 153.043 72.8159 153.043 72.8159C150.627 73.8092 147.725 75.4958 144.691 77.3511Z" fill="#EDEDED"/>
<path d="M153.025 72.7932C153.025 72.7932 108.23 96.9497 104.241 101.56L50.0073 70.2445C53.9962 65.6343 92.7236 44.8136 92.7236 44.8136C115.571 31.9576 163.849 65.5781 153.025 72.7932Z" fill="#F4F4F4"/>
<path d="M39.352 174.821C25.4565 172.797 10.0255 166.557 4.44482 153.682C4.46355 150.74 5.26881 148.285 6.86061 146.748C12.7783 153.513 24.5202 159.529 35.8313 162.003C38.3969 166.444 39.5767 171.073 39.352 174.821Z" fill="#343434"/>
<path d="M39.3707 173.358C25.9247 171.09 11.4674 164.849 6.09277 152.481C6.09277 150.438 6.48604 148.62 7.27258 147.196C13.3027 153.774 24.7823 159.565 35.8312 162.001C38.0785 165.88 39.2583 169.909 39.3707 173.358Z" fill="#3E3E3E"/>
<path d="M9.76318 153.244V146.16L29.2205 157.385V164.488L9.76318 153.244Z" fill="white"/>
<path d="M10.063 146.666L28.9211 157.554V163.963L10.063 153.075C10.063 146.422 10.0442 146.666 10.063 146.666ZM9.76333 146.16V153.244L29.202 164.469V157.385C9.59479 146.066 9.7446 146.16 9.76333 146.16Z" fill="#343434"/>
<path d="M94.746 114.366V125.179L93.1919 126.097V116.783C93.6974 115.996 94.203 115.19 94.746 114.366Z" fill="#343434"/>
<path d="M64.6887 173.603C62.2168 175.215 59.8572 175.346 54.9694 175.89C52.3851 176.171 49.5573 176.471 44.8756 176.265C28.0025 175.515 8.07701 168.131 3.26417 152.127C2.27164 148.866 1.95328 145.436 2.27164 142.101C2.44018 145.436 3.03945 148.735 4.27543 151.771C10.137 166.688 29.1823 173.079 44.9879 174.559C48.9206 174.934 51.6547 174.915 54.8945 174.822C59.9133 174.709 61.9546 174.859 64.6887 173.603Z" fill="#343434"/>
<path d="M159.467 87.0373C162.538 85.0133 166.564 83.2329 164.71 78.8477C167.538 82.1272 167.763 84.7509 164.748 87.2059C163.886 87.7869 162.295 88.8551 160.927 89.5485L159.467 87.0373Z" fill="#19D3DA"/>
<path d="M144.691 77.3534C150.01 74.2237 157.07 76.1914 159.841 80.483C161.808 83.5752 160.927 86.911 158.287 88.4665C138.08 100.779 108.848 117.983 88.2666 129.058C107.911 116.409 137.219 99.0549 157.65 87.3983C160.497 85.8053 160.815 81.6824 156.939 78.6652C153.605 76.0415 148.661 75.3856 144.691 77.3534Z" fill="#343434"/>
<path d="M92.8732 133.721C89.3338 133.721 84.8955 134.564 84.8955 129.973C84.8955 125.381 89.3338 125.419 92.8732 125.419C106.506 125.419 98.6786 133.721 92.8732 133.721Z" fill="#C2C2C2"/>
<path d="M100.252 127.593C99.7647 129.823 96.0194 132.409 92.7234 132.409C89.5773 132.409 85.7008 133.084 84.8955 129.954C84.9142 125.382 89.3338 125.4 92.8545 125.4C95.9444 125.419 99.3902 125.925 100.252 127.593Z" fill="#EDEDED"/>
<path d="M141.732 108.761C141.395 108.761 141.077 108.48 141.077 107.937V105.294C141.077 104.751 141.414 104.114 141.826 103.87L144.298 102.446C144.803 102.146 145.328 102.446 145.328 103.158V105.8C145.328 106.344 144.991 106.981 144.579 107.224C141.863 108.799 141.994 108.761 141.732 108.761ZM144.691 102.895C144.635 102.895 144.766 102.82 142.107 104.357C141.844 104.507 141.638 104.938 141.638 105.294C141.638 107.974 141.601 108.124 141.713 108.199C141.77 108.236 141.713 108.236 144.316 106.737C144.579 106.587 144.785 106.156 144.785 105.8C144.785 103.177 144.822 102.895 144.691 102.895Z" fill="#27C9CF"/>
<path d="M86.3937 4.18287L83.3787 5.92573C82.124 6.65661 80.2325 6.48794 77.7793 5.06367L80.7944 3.3208C83.2476 4.74508 85.139 4.91375 86.3937 4.18287Z" fill="#5C98FF"/>
<path d="M115.627 70.5575L112.612 72.3004C118.249 69.0208 123.774 63.3611 123.792 53.7473L126.807 52.0044C126.789 61.6183 121.264 67.2779 115.627 70.5575Z" fill="#5C98FF"/>
<path d="M85.1958 1.74287L88.2108 0C99.653 3.89803 110.121 10.4385 119.504 18.0846L116.489 19.8275C107.106 12.1813 96.638 5.6409 85.1958 1.74287Z" fill="#5C98FF"/>
<path d="M116.488 19.8327L119.503 18.0898C119.485 22.2315 122.144 27.2165 126.882 29.9526L123.867 31.6955C119.11 28.9593 116.47 23.9744 116.488 19.8327Z" fill="#5C98FF"/>
<path d="M116.488 19.8281C116.47 23.9697 119.129 28.9547 123.867 31.6908L123.811 53.7671C123.736 72.9574 101.806 76.4056 100.645 76.5931C99.5029 75.0751 77.6485 46.3459 77.7047 27.1556L77.7609 5.07927C82.5363 7.83413 85.158 5.88512 85.1768 1.76221C96.6377 5.64149 107.106 12.1819 116.488 19.8281Z" fill="white"/>
<path d="M123.848 31.6859L126.863 29.9243L126.807 52.0006L123.792 53.7622L123.848 31.6859Z" fill="#5C98FF"/>
<path d="M85.9628 9.69054L85.0077 10.2528C83.9028 10.8899 82.2549 10.74 80.0825 9.50313L81.0376 8.94092C83.2099 10.1778 84.8766 10.3277 85.9628 9.69054Z" fill="#438AFF"/>
<path d="M87.5552 6.01758L86.6001 6.57979C96.6565 10.0093 105.851 15.7439 114.091 22.453L115.046 21.8908C106.825 15.2004 97.6116 9.44709 87.5552 6.01758Z" fill="#438AFF"/>
<path d="M120.571 32.8723L120.515 52.2687C120.496 60.7207 115.646 65.6869 110.702 68.5729L111.657 68.0107C116.619 65.1247 121.451 60.1585 121.47 51.7065L121.526 32.3101L120.571 32.8723Z" fill="#438AFF"/>
<path d="M114.091 22.4538L115.046 21.8916C115.028 25.5273 117.369 29.9125 121.526 32.3113L120.571 32.8735C116.413 30.4748 114.091 26.0895 114.091 22.4538Z" fill="#438AFF"/>
<mask id="mask0" mask-type="alpha" maskUnits="userSpaceOnUse" x="80" y="6" width="41" height="67">
<path d="M100.364 12.8864C104.952 15.5288 109.522 18.7147 114.11 22.444C114.091 26.0797 116.432 30.465 120.589 32.8637L120.533 52.2602C120.477 69.1266 101.226 72.1438 100.214 72.3125C99.203 70.9819 80.0266 45.7572 80.064 28.872L80.1202 9.47558C84.315 11.8931 86.6185 10.1877 86.6372 6.5708C91.1879 8.12626 95.776 10.2252 100.364 12.8864Z" fill="url(#paint0_linear)"/>
</mask>
<path d="M114.091 22.4504C114.072 26.086 116.413 30.4713 120.57 32.8701L120.514 52.2665C120.458 69.133 101.206 72.1502 100.195 72.3189C99.184 70.9883 80.0075 45.7635 80.045 28.8784L80.1012 9.48193C84.296 11.8995 86.5994 10.1941 86.6181 6.57715C96.6558 9.98792 105.87 15.7413 114.091 22.4504Z" fill="url(#paint1_linear)"/>
<path d="M110.627 27.9844L113.679 31.5638L98.4354 56.5262L86.937 33.7002L89.615 32.7257L97.7987 48.9925L110.627 27.9844Z" fill="white"/>
<path d="M216.509 198.872L251.903 177.789L303.084 207.567L275.386 223.572L261.116 224.809L216.509 198.872Z" fill="#BFD3FF"/>
<path d="M264 224.471L267.427 222.503C268.701 221.773 269.487 220.198 269.487 217.968V74.6596C269.487 70.1806 266.341 64.7459 262.483 62.5158L175.946 12.5161C174.017 11.3917 172.256 11.298 171.002 12.0288L167.575 13.9966C169.11 13.1158 170.983 13.5843 172.519 14.4838L259.056 64.4835C262.914 66.7324 266.06 72.1671 266.06 76.6274V219.936C266.06 221.716 265.536 223.572 264 224.471Z" fill="#2F68D4"/>
<path d="M266.06 219.935V76.6265C266.06 72.1475 262.914 66.7127 259.056 64.4826L172.519 14.483C168.643 12.2341 165.515 14.0894 165.515 18.5309V161.84C165.515 166.319 168.643 171.753 172.519 173.983L259.038 223.983C262.989 226.232 266.06 224.32 266.06 219.935Z" fill="#467DE4"/>
<path d="M170.365 18.9985V167.536L260.236 219.466V70.9285L170.365 18.9985Z" fill="#F2F2F2"/>
<path d="M234.937 61.1063L238.364 59.1385C239 58.7637 239.394 57.9766 239.394 56.8709V48.3065C239.394 46.0764 237.821 43.359 235.892 42.2346L201.546 22.3884C200.573 21.8261 199.693 21.7887 199.075 22.1447L195.647 24.1125C196.397 23.6815 197.352 23.9063 198.119 24.3561L232.446 44.2023C234.375 45.3267 235.948 48.0441 235.948 50.2742V58.8386C235.967 59.7195 235.705 60.6752 234.937 61.1063Z" fill="#2F68D4"/>
<path d="M235.967 58.836V50.2716C235.967 48.0414 234.394 45.3241 232.465 44.1996L198.138 24.3534C196.191 23.229 194.636 24.1848 194.636 26.3774V34.9418C194.636 37.1719 196.209 39.9081 198.138 41.0138C205.048 45.0055 225.405 56.7745 232.465 60.8599C234.431 62.0031 235.967 61.0286 235.967 58.836Z" fill="#467DE4"/>
<path d="M243.775 192.653C243.775 193.44 243.513 193.946 243.007 194.171C242.502 194.396 241.903 194.358 241.21 194.021V195.183L240.629 194.846V193.684C239.206 192.728 238.063 191.041 238.063 189.13L239.562 189.992C239.562 190.891 239.824 191.603 240.629 192.222V189.561C239.243 188.211 238.251 187.349 238.251 185.588C238.251 183.976 239.356 183.526 240.629 184.107V183.339L241.21 183.676V184.426C242.764 185.419 243.569 187.031 243.569 188.567L242.052 187.705C242.052 186.918 241.678 186.244 241.191 185.869V188.455C241.622 188.886 242.708 189.823 243.12 190.535C243.588 191.285 243.775 191.772 243.775 192.653ZM240.61 187.874V185.55C240.123 185.419 239.693 185.588 239.693 186.206C239.693 186.656 240.011 187.218 240.61 187.874ZM242.314 191.978C242.314 191.266 241.715 190.591 241.191 190.085V192.54C241.491 192.672 241.753 192.69 241.977 192.615C242.221 192.54 242.314 192.334 242.314 191.978Z" fill="#8CA3FF"/>
<path d="M196.902 164.69C196.49 164.69 196.49 163.997 196.302 163.585C194.823 163.566 194.13 163.172 193.475 161.467C193.156 161.786 193.006 162.46 192.576 162.591C192.482 162.61 192.351 162.629 192.201 162.535C191.939 162.385 191.359 161.748 191.359 160.83C191.359 159.836 191.902 158.862 191.34 157.719C190.329 158.656 189.598 160.193 189.093 161.223C188.643 162.179 188.456 162.573 188.1 162.498C187.782 162.423 187.669 162.104 187.669 160.174C187.669 155.395 190.347 150.579 190.347 148.03C190.347 147.486 190.123 147.318 189.767 147.318C188.325 147.318 184.86 150.466 184.504 156.744C184.504 156.894 184.373 157.007 184.224 156.988C184.074 156.988 183.961 156.857 183.98 156.707C184.317 150.56 187.8 146.737 189.804 146.793C190.478 146.812 190.872 147.28 190.872 148.03C190.872 151.047 187.688 156.22 188.25 161.711C188.774 160.736 189.673 158.375 191.171 157.138C191.321 157.007 191.583 157.063 191.714 157.288C192.501 158.693 191.883 159.855 191.883 160.811C191.883 161.504 192.314 161.954 192.445 162.048C192.688 161.823 192.932 160.905 193.587 160.83L193.793 160.811C194.486 162.797 194.954 163.06 196.377 163.06C196.771 163.06 196.864 163.641 196.977 164.034C198.25 163.229 200.104 163.697 201.34 163.116C201.471 163.06 201.64 163.116 201.696 163.247C201.752 163.378 201.696 163.547 201.565 163.603C200.141 164.259 198.175 163.735 197.07 164.615C197.033 164.672 196.958 164.69 196.902 164.69Z" fill="#3A5169"/>
<path d="M247.466 203.656L233.008 195.298V193.948L247.466 202.307V203.656Z" fill="#8CA3FF"/>
<path d="M206.472 177.081L177.651 160.421V159.072L206.472 175.751V177.081Z" fill="#8CA3FF"/>
<path d="M249.262 174.36L176.976 132.606V85.792L249.262 127.546V174.36ZM178.306 131.837L247.914 172.055V128.314L178.306 88.0971V131.837Z" fill="#8CA3FF"/>
<path d="M197.07 143.438L195.74 142.67V97.3926L197.07 98.1797V143.438Z" fill="#8CA3FF"/>
<path d="M222.351 158.037L221.002 157.268V111.991L222.351 112.778V158.037Z" fill="#8CA3FF"/>
<path d="M248.589 138.85L177.651 97.8453V96.3086L248.589 137.294V138.85Z" fill="#8CA3FF"/>
<path d="M248.588 151.346L177.65 110.361V108.805L248.588 149.809V151.346Z" fill="#8CA3FF"/>
<path d="M248.589 166.64L177.651 125.654V124.118L248.589 165.103V166.64Z" fill="#8CA3FF"/>
<path d="M190.965 100.447L183.1 95.8932V94.3564L190.965 98.9104V100.447Z" fill="#8CA3FF"/>
<path d="M238.85 138.563L230.984 134.009V132.473L238.85 137.008V138.563Z" fill="#8CA3FF"/>
<path d="M212.988 139.091L205.104 134.537V133L212.988 137.535V139.091Z" fill="#8CA3FF"/>
<path d="M250.069 104.978V106.514C232.147 96.1507 201.247 78.3098 177.97 64.8541V63.3174C200.948 76.6044 232.147 94.6328 250.069 104.978Z" fill="#8CA3FF"/>
<path d="M231.36 102.338L177.969 71.4908V69.9541L231.36 100.801V102.338Z" fill="#8CA3FF"/>
<path d="M206.715 94.7072L177.969 78.1031V76.5664L206.715 93.1705V94.7072Z" fill="#8CA3FF"/>
<path d="M249.787 95.7621L183.662 57.5689V42.0518L249.787 80.2636V95.7621Z" fill="#8CA3FF"/>
<path d="M189.972 57.358L188.605 56.5709V48.981L189.972 49.7681V57.358Z" fill="#F2F2F2"/>
<path d="M196.939 61.3878L195.029 60.2821L192.501 52.7484V58.8203L191.228 58.0894V50.4995L193.138 51.6052L195.666 59.1201V53.0482L196.939 53.7791V61.3878Z" fill="#F2F2F2"/>
<path d="M203.288 62.8495C203.288 65.8105 198.082 63.1868 198.082 59.6636L199.449 60.4507C199.449 60.9567 199.561 61.369 199.786 61.6876C200.142 62.1936 200.947 62.7933 201.583 62.737C202.108 62.6996 202.052 62.0062 201.771 61.5564C200.965 60.2071 198.269 59.0077 198.269 56.7776C198.269 55.3158 199.505 55.1284 200.741 55.8405C201.771 56.4402 202.407 57.1899 202.688 57.827C202.932 58.3705 203.1 58.8952 203.1 59.4949L201.733 58.7078C201.752 57.0774 199.58 56.1591 199.58 57.3585C199.58 58.8952 203.288 60.1883 203.288 62.8495Z" fill="#F2F2F2"/>
<path d="M210.029 65.8086C210.029 66.7644 209.786 67.4016 209.299 67.7389C208.812 68.0762 208.1 67.9825 207.164 67.439C205.347 66.3896 204.43 64.553 204.43 62.5665V58.125L205.797 58.9121V63.3536C205.797 64.7404 206.265 65.7149 207.22 66.2584C208.194 66.8206 208.681 66.4083 208.681 65.0215V60.58L210.048 61.3671V65.8086H210.029Z" fill="#F2F2F2"/>
<path d="M216.528 72.7067L215.142 71.9009C214.843 70.8327 215.011 69.8207 214.618 68.8837C214.337 68.2465 213.794 68.0404 212.67 67.3844V70.4766L211.303 69.6895V62.0996L213.85 63.5614C215.236 64.3672 216.378 65.4542 216.378 67.0471C216.378 67.4032 216.266 67.8155 215.948 67.9466C215.161 68.2652 214.674 67.7592 215.255 68.2465C216.472 69.3334 215.985 70.5141 216.528 72.7067ZM215.011 66.5036C215.011 65.7915 214.449 65.1168 213.85 64.7608L212.67 64.0861V66.1663C213.719 66.766 214.131 67.0846 214.618 67.0096C214.88 66.9534 215.011 66.7847 215.011 66.5036Z" fill="#F2F2F2"/>
<path d="M223.251 76.5855L221.921 75.8171L221.378 73.8868L218.794 72.3876L218.288 73.7182L216.958 72.9498L219.43 66.7842L220.779 67.5713L223.251 76.5855ZM221.004 72.4626L220.123 68.8831L219.187 71.4131L221.004 72.4626Z" fill="#F2F2F2"/>
<path d="M229.693 80.2974L227.783 79.1917L225.255 71.658V77.73L223.981 76.9991V69.4092L225.892 70.5149L228.42 78.0298V71.9579L229.693 72.6888V80.2974Z" fill="#F2F2F2"/>
<path d="M236.434 81.6461C236.322 84.326 232.726 83.1453 231.472 80.278C230.254 77.5419 230.535 73.0442 233.681 74.862C235.348 75.8178 236.247 77.1858 236.359 78.9662L235.03 78.1978C234.749 76.9047 234.468 76.5299 233.663 76.0614C233.401 75.9115 233.176 75.8365 232.989 75.8365C232.801 75.8365 232.651 75.8928 232.558 76.0052C232.314 76.2488 232.221 76.8298 232.202 77.1484C232.09 78.8725 232.221 80.7091 233.681 81.5524C234.374 81.9459 234.768 81.8522 234.974 80.784L236.434 81.6461Z" fill="#F2F2F2"/>
<path d="M241.996 87.4155L237.577 84.8668V77.2769L241.903 79.7881V80.9875L238.869 79.2446V81.1187L241.715 82.7678V83.911L238.869 82.2618V84.3982L241.978 86.1973V87.4155H241.996Z" fill="#F2F2F2"/>
<path d="M65.1201 212.813L118.118 181.554L169.298 211.314L123.979 237.495L109.728 238.75L65.1201 212.813Z" fill="#BFD3FF"/>
<path d="M151.563 210.226L106.956 184.29L120.402 169.41L164.991 195.347L151.563 210.226Z" fill="#6C7A89"/>
<path d="M160.758 195.462L158.286 198.217L142.462 189.015L144.953 186.279L160.758 195.462Z" fill="#2C3E50"/>
<path d="M157.219 199.395C156.339 200.369 157.294 199.301 150.964 206.329C150.028 205.785 112.873 184.178 111.769 183.54L118.023 176.606L157.219 199.395Z" fill="#D0D0D0"/>
<path d="M109.708 234.4L65.1006 208.463L106.955 184.288L151.563 210.225L109.708 234.4Z" fill="#6C7A89"/>
<path d="M109.727 238.751L65.1193 212.814L65.1006 208.466L109.708 234.403L109.727 238.751Z" fill="#5C6A79"/>
<path d="M109.708 234.403L151.563 210.228L164.991 195.348L165.009 199.696L151.582 214.557L109.727 238.751L109.708 234.403Z" fill="#4C5A69"/>
<path d="M84.2021 206.798V207.791L77.6851 211.595V210.602L84.2021 206.798Z" fill="#2C3E50"/>
<path d="M77.6851 210.602V211.595L71.3179 207.885L71.3366 206.892L77.6851 210.602Z" fill="#3A5169"/>
<path d="M77.8352 203.104L84.2024 206.796L77.6854 210.6L71.3369 206.89L77.8352 203.104Z" fill="#3A5169"/>
<path d="M92.1615 211.391V212.384L85.6445 216.189V215.195L92.1615 211.391Z" fill="#2C3E50"/>
<path d="M85.644 215.195V216.189L79.2769 212.478V211.485L85.644 215.195Z" fill="#3A5169"/>
<path d="M85.7948 207.698L92.162 211.39L85.645 215.194L79.2778 211.483L85.7948 207.698Z" fill="#3A5169"/>
<path d="M100.12 215.999V216.992L93.6025 220.777V219.784L100.12 215.999Z" fill="#2C3E50"/>
<path d="M93.6025 219.784V220.777L87.2354 217.085V216.092L93.6025 219.784Z" fill="#3A5169"/>
<path d="M93.7341 212.291L100.12 216.002L93.603 219.787L87.2358 216.095L93.7341 212.291Z" fill="#3A5169"/>
<path d="M108.079 220.587V221.581L101.562 225.385V224.392L108.079 220.587Z" fill="#2C3E50"/>
<path d="M101.563 224.391V225.385L95.1958 221.674V220.681L101.563 224.391Z" fill="#3A5169"/>
<path d="M101.694 216.9L108.079 220.592L101.562 224.397L95.1953 220.686L101.694 216.9Z" fill="#3A5169"/>
<path d="M123.979 220.587V221.581L109.521 229.976V228.983L123.979 220.587Z" fill="#7F8C8D"/>
<path d="M109.521 228.988V229.982L103.154 226.271V225.278L109.521 228.988Z" fill="#95A5A6"/>
<path d="M117.612 216.9L123.979 220.592L109.521 228.988L103.154 225.277L117.612 216.9Z" fill="#BDC3C7"/>
<path d="M92.161 202.208V203.201L85.644 207.005V206.012L92.161 202.208Z" fill="#2C3E50"/>
<path d="M85.644 206.012V207.005L79.2769 203.295V202.301L85.644 206.012Z" fill="#3A5169"/>
<path d="M85.7939 198.501L92.161 202.212L85.644 206.016L79.2769 202.306L85.7939 198.501Z" fill="#3A5169"/>
<path d="M100.12 206.798V207.791L93.6025 211.595V210.602L100.12 206.798Z" fill="#2C3E50"/>
<path d="M93.6025 210.602V211.595L87.2354 207.885V206.892L93.6025 210.602Z" fill="#3A5169"/>
<path d="M93.7336 203.104L100.12 206.795L93.6025 210.6L87.2354 206.889L93.7336 203.104Z" fill="#3A5169"/>
<path d="M108.079 211.391V212.384L101.562 216.189V215.195L108.079 211.391Z" fill="#2C3E50"/>
<path d="M101.563 215.195V216.189L95.1963 212.478V211.485L101.563 215.195Z" fill="#3A5169"/>
<path d="M101.694 207.698L108.079 211.39L101.562 215.194L95.1953 211.483L101.694 207.698Z" fill="#3A5169"/>
<path d="M116.038 215.999L116.02 216.992L109.521 220.777V219.784L116.038 215.999Z" fill="#2C3E50"/>
<path d="M109.521 219.784V220.777L103.154 217.085V216.092L109.521 219.784Z" fill="#3A5169"/>
<path d="M109.653 212.291L116.038 216.002L109.521 219.787L103.154 216.095L109.653 212.291Z" fill="#3A5169"/>
<path d="M100.12 197.612V198.606L93.6025 202.391V201.398L100.12 197.612Z" fill="#2C3E50"/>
<path d="M93.6025 201.397V202.39L87.2354 198.698V197.686L93.6025 201.397Z" fill="#3A5169"/>
<path d="M93.7336 193.905L100.12 197.615L93.6025 201.401L87.2354 197.69L93.7336 193.905Z" fill="#3A5169"/>
<path d="M108.08 202.208V203.201L101.563 207.005V206.012L108.08 202.208Z" fill="#2C3E50"/>
<path d="M101.562 206.012V207.005L95.1953 203.295V202.301L101.562 206.012Z" fill="#3A5169"/>
<path d="M101.695 198.501L108.081 202.212L101.564 206.016L95.1968 202.306L101.695 198.501Z" fill="#3A5169"/>
<path d="M116.039 206.798L116.02 207.791L109.522 211.595V210.602L116.039 206.798Z" fill="#2C3E50"/>
<path d="M109.522 210.602V211.595L103.155 207.885V206.892L109.522 210.602Z" fill="#3A5169"/>
<path d="M109.654 203.104L116.04 206.795L109.523 210.6L103.156 206.889L109.654 203.104Z" fill="#3A5169"/>
<path d="M123.978 211.391V212.384L117.461 216.189V215.195L123.978 211.391Z" fill="#2C3E50"/>
<path d="M117.461 215.195V216.189L111.113 212.478V211.485L117.461 215.195Z" fill="#3A5169"/>
<path d="M117.612 207.698L123.979 211.39L117.462 215.194L111.114 211.483L117.612 207.698Z" fill="#3A5169"/>
<path d="M131.937 215.999V216.992L125.42 220.777V219.784L131.937 215.999Z" fill="#2C3E50"/>
<path d="M125.42 219.784V220.777L119.072 217.085V216.092L125.42 219.784Z" fill="#3A5169"/>
<path d="M125.571 212.291L131.938 216.002L125.421 219.787L119.072 216.095L125.571 212.291Z" fill="#3A5169"/>
<path d="M108.079 193.004V193.997L101.562 197.801V196.808L108.079 193.004Z" fill="#2C3E50"/>
<path d="M101.562 196.813V197.806L95.1948 194.095V193.102L101.562 196.813Z" fill="#3A5169"/>
<path d="M101.694 189.314L108.079 193.006L101.562 196.81L95.1953 193.1L101.694 189.314Z" fill="#3A5169"/>
<path d="M116.038 197.612L116.02 198.606L109.521 202.391V201.398L116.038 197.612Z" fill="#2C3E50"/>
<path d="M109.521 201.397V202.39L103.154 198.698V197.686L109.521 201.397Z" fill="#3A5169"/>
<path d="M109.653 193.905L116.038 197.615L109.521 201.401L103.154 197.69L109.653 193.905Z" fill="#3A5169"/>
<path d="M123.978 202.208V203.201L117.461 207.005V206.012L123.978 202.208Z" fill="#2C3E50"/>
<path d="M117.461 206.012V207.005L111.113 203.295V202.301L117.461 206.012Z" fill="#3A5169"/>
<path d="M117.613 198.501L123.98 202.212L117.463 206.016L111.115 202.306L117.613 198.501Z" fill="#3A5169"/>
<path d="M131.937 206.798V207.791L125.42 211.595V210.602L131.937 206.798Z" fill="#2C3E50"/>
<path d="M125.42 210.602V211.595L119.072 207.885V206.892L125.42 210.602Z" fill="#3A5169"/>
<path d="M125.57 203.104L131.937 206.795L125.42 210.6L119.072 206.889L125.57 203.104Z" fill="#3A5169"/>
<path d="M139.896 211.391V212.384L133.379 216.189V215.195L139.896 211.391Z" fill="#2C3E50"/>
<path d="M133.379 215.195V216.189L127.012 212.478V211.485L133.379 215.195Z" fill="#3A5169"/>
<path d="M133.529 207.698L139.896 211.39L133.379 215.194L127.012 211.483L133.529 207.698Z" fill="#3A5169"/>
<path d="M113.828 189.687L113.809 190.68L109.952 192.947V191.954L113.828 189.687Z" fill="#17BBB0"/>
<path d="M109.952 191.956V192.949L103.584 189.239L103.603 188.246L109.952 191.956Z" fill="#27CBC0"/>
<path d="M107.444 185.992L113.829 189.684L109.953 191.952L103.604 188.241L107.444 185.992Z" fill="#37DBD0"/>
<path d="M121.769 194.276V195.27L117.911 197.537V196.544L121.769 194.276Z" fill="#17BBB0"/>
<path d="M117.912 196.545V197.538L111.545 193.846V192.853L117.912 196.545Z" fill="#27CBC0"/>
<path d="M115.402 190.589L121.769 194.281L117.911 196.549L111.544 192.857L115.402 190.589Z" fill="#37DBD0"/>
<path d="M129.728 198.895V199.888L125.87 202.156V201.163L129.728 198.895Z" fill="#17BBB0"/>
<path d="M125.87 201.161V202.154L119.503 198.443V197.45L125.87 201.161Z" fill="#27CBC0"/>
<path d="M123.36 195.18L129.727 198.89L125.87 201.158L119.502 197.447L123.36 195.18Z" fill="#37DBD0"/>
<path d="M137.687 203.482V204.476L133.829 206.743V205.75L137.687 203.482Z" fill="#17BBB0"/>
<path d="M133.829 205.752V206.745L127.462 203.034V202.041L133.829 205.752Z" fill="#27CBC0"/>
<path d="M131.32 199.794L137.687 203.486L133.829 205.754L127.462 202.043L131.32 199.794Z" fill="#37DBD0"/>
<path d="M145.646 208.067V209.061L141.789 211.328V210.335L145.646 208.067Z" fill="#E74C3C"/>
<path d="M141.788 210.333V211.326L135.421 207.615V206.622L141.788 210.333Z" fill="#FF6C5C"/>
<path d="M139.26 204.369L145.646 208.061L141.788 210.328L135.421 206.618L139.26 204.369Z" fill="#FF877A"/>
<path d="M118.023 176.606V177.675L112.405 183.897L111.769 183.54L118.023 176.606Z" fill="#A0A0A0"/>
<path d="M157.219 199.395L156.582 200.088L118.023 177.675V176.606L157.219 199.395Z" fill="#C0C0C0"/>
<path d="M144.818 186.145L142.33 188.896L142.58 189.122L145.068 186.372L144.818 186.145Z" fill="#6C7A89"/>
<path d="M148.775 188.454L146.287 191.204L146.536 191.43L149.025 188.68L148.775 188.454Z" fill="#6C7A89"/>
<path d="M152.754 190.755L150.266 193.505L150.516 193.732L153.004 190.981L152.754 190.755Z" fill="#6C7A89"/>
<path d="M156.673 193.05L154.185 195.801L154.435 196.027L156.923 193.277L156.673 193.05Z" fill="#6C7A89"/>
<path d="M160.63 195.352L158.142 198.103L158.391 198.329L160.879 195.579L160.63 195.352Z" fill="#6C7A89"/>
<path d="M79.0336 207.49C77.8538 208.165 76.7864 208.296 76.0186 207.846C75.3444 207.452 75.5129 206.834 76.6553 206.159C77.8163 205.485 78.94 205.41 79.6516 205.822C80.3632 206.253 80.1198 206.853 79.0336 207.49ZM77.1047 206.441C76.2058 206.965 75.9811 207.415 76.3931 207.659C76.8613 207.94 77.6478 207.752 78.528 207.228C79.3707 206.74 79.7078 206.291 79.2396 206.009C78.8463 205.785 78.0411 205.897 77.1047 206.441Z" fill="white"/>
<path d="M87.0858 201.364C87.0671 201.364 86.1495 201.195 86.1495 201.195L86.4117 200.933L87.5728 201.139L87.966 201.364L84.5202 203.351L84.0708 203.088L87.0858 201.364Z" fill="white"/>
<path d="M91.019 207.117L91.2999 206.949C93.1726 206.967 94.4461 207.024 95.1015 206.649C95.9255 206.18 95.0266 205.656 94.0715 205.618L94.2588 205.337C95.5884 205.393 96.7495 206.255 95.6446 206.892C94.8581 207.342 93.3787 207.286 92.0678 207.267C92.049 207.267 93.6034 208.167 93.6034 208.167L93.2101 208.392L91.019 207.117Z" fill="white"/>
<path d="M99.6151 211.464C99.8399 212.045 100.907 212.513 101.619 212.101C102.087 211.82 101.862 211.445 101.413 211.183L101.151 211.033L101.507 210.826L101.769 210.976C102.724 211.539 103.904 210.939 103.042 210.433C102.761 210.264 102.387 210.189 102.125 210.171L102.349 209.908C103.398 210.002 104.615 210.789 103.679 211.314C103.323 211.52 102.817 211.576 102.237 211.407C102.574 211.707 102.593 212.082 102.106 212.363C101.02 213 99.3904 212.232 99.147 211.576L99.6151 211.464Z" fill="white"/>
<path d="M92.4608 198.76L93.3971 198.216L91.7866 197.298L92.0862 197.129L95.8316 196.754L96.3373 197.054L94.2024 198.291L94.6893 198.572L94.3148 198.778L93.8279 198.497L92.8915 199.041L92.4608 198.76ZM93.7717 197.991C94.9702 197.298 95.1013 197.223 95.4758 197.017C95.4384 196.998 95.5507 197.017 94.6706 197.129L92.6481 197.317C92.6293 197.354 93.7717 197.991 93.7717 197.991Z" fill="white"/>
<path d="M104.091 201.946L102.78 201.177L101.769 201.608C104.072 202.62 101.488 204.026 99.7648 203.033C99.3903 202.808 99.1843 202.564 99.1094 202.414L99.5775 202.283C99.8397 202.902 100.963 203.276 101.694 202.864C102.143 202.602 102.162 202.246 101.469 201.852C101.282 201.74 101.094 201.665 100.963 201.59L102.836 200.765L104.484 201.721L104.091 201.946Z" fill="white"/>
<path d="M112.012 206.441C111.3 205.972 110.139 205.86 109.222 206.272C109.278 206.31 109.877 206.197 110.476 206.535C111.918 207.378 109.502 208.671 108.042 207.828C106.562 206.966 108.66 205.71 110.42 205.71C111.15 205.71 111.843 205.916 112.405 206.235L112.012 206.441ZM109.896 207.528C110.851 206.984 109.858 206.328 108.885 206.516C108.791 206.535 108.716 206.553 108.622 206.61C108.061 206.947 107.911 207.34 108.398 207.621C108.791 207.846 109.409 207.809 109.896 207.528Z" fill="white"/>
<path d="M104.652 192.629C104.221 192.873 105.027 192.667 99.7081 193.754L99.2212 193.472L103.772 192.573C103.791 192.573 102.086 191.598 102.086 191.598L102.48 191.374L104.652 192.629Z" fill="white"/>
<path d="M107.761 197.393C108.192 197.149 108.772 197.112 109.372 197.262L109.39 197.243C108.885 196.419 110.495 195.931 111.6 196.568C112.742 197.224 111.712 198.049 110.383 197.768H110.364C110.626 198.105 110.589 198.442 110.177 198.686C108.828 199.473 106.525 198.105 107.761 197.393ZM109.634 198.461C110.046 198.218 109.971 197.936 109.634 197.58C109.109 197.412 108.622 197.449 108.304 197.637C107.405 198.105 108.791 198.948 109.634 198.461ZM110.083 196.718C109.746 196.925 109.821 197.168 110.102 197.468C110.495 197.58 110.945 197.599 111.244 197.412C112.031 196.962 110.795 196.306 110.083 196.718Z" fill="white"/>
<path d="M115.495 202.485C116.151 202.954 117.255 203.104 118.323 202.654H118.304C117.068 202.729 116.057 201.829 117.162 201.192C118.679 200.311 121.319 201.473 119.259 202.654C117.986 203.385 116.338 203.478 115.121 202.691L115.495 202.485ZM117.649 201.436C116.6 202.054 118.211 202.71 118.829 202.354C119.409 202.017 119.653 201.623 119.166 201.342C118.754 201.117 118.136 201.155 117.649 201.436Z" fill="white"/>
<path d="M140.495 207.34C139.241 208.052 137.612 207.115 138.829 206.422C140.065 205.71 141.731 206.628 140.495 207.34ZM139.072 206.553C138.117 207.115 139.241 207.771 140.233 207.209C141.207 206.647 140.083 205.972 139.072 206.553Z" fill="white"/>
<path d="M139.877 208.036L141.657 207.005L141.9 207.155C141.582 207.999 141.507 208.223 141.301 208.523C141.694 208.261 141.994 208.092 142.761 207.661L142.986 207.792L141.207 208.823L140.982 208.692C141.338 207.792 141.413 207.568 141.582 207.305C141.02 207.643 141.039 207.624 140.083 208.186L139.877 208.036Z" fill="white"/>
<path d="M109.334 188.428C108.697 188.616 108.659 188.616 107.236 189.009L107.068 188.915C107.555 188.335 107.835 187.997 108.116 187.735C107.33 188.147 107.498 188.053 106.468 188.578L106.244 188.447L108.154 187.491L108.453 187.66C108.098 188.072 107.779 188.484 107.48 188.784C108.098 188.597 108.641 188.447 109.465 188.241L109.764 188.409L108.098 189.515L107.873 189.384C108.416 188.99 108.997 188.616 109.334 188.428Z" fill="white"/>
<path d="M110.513 189.27L109.895 189.627L110.494 189.964L110.345 190.058L109.746 189.72L109.109 190.076L108.94 189.983L109.577 189.627L108.978 189.289L109.128 189.195L109.727 189.533L110.345 189.177L110.513 189.27Z" fill="white"/>
<path d="M117.668 193.251C117.05 193.438 117.05 193.42 115.57 193.832L115.402 193.738C115.907 193.157 116.169 192.82 116.45 192.558C115.645 192.989 115.926 192.839 114.802 193.401L114.578 193.27L116.488 192.314L116.787 192.483C116.45 192.895 116.113 193.307 115.814 193.607C116.413 193.42 116.9 193.288 117.799 193.064L118.098 193.232L116.432 194.338L116.207 194.207C116.806 193.776 117.331 193.438 117.668 193.251Z" fill="white"/>
<path d="M118.098 194.373L117.929 194.467L117.274 194.093L117.442 193.999L118.098 194.373Z" fill="white"/>
<path d="M124.54 197.217C123.885 197.405 123.847 197.423 122.443 197.798L122.274 197.705C122.761 197.124 123.042 196.786 123.323 196.524C122.518 196.955 122.799 196.805 121.675 197.367L121.45 197.236L123.36 196.28L123.66 196.449C123.304 196.88 122.986 197.274 122.686 197.573C123.323 197.367 123.829 197.255 124.671 197.03L124.971 197.199L123.304 198.304L123.079 198.173C123.623 197.798 124.222 197.405 124.54 197.217Z" fill="white"/>
<path d="M125.401 197.481C125.588 197.556 126.224 197.838 126.243 198.1C126.262 198.194 126.187 198.306 126.037 198.381C125.794 198.512 125.494 198.531 125.251 198.456C125.438 198.718 124.914 198.943 124.801 199.187L124.558 199.056C124.577 199.018 124.689 198.906 124.858 198.737C125.157 198.475 124.951 198.381 124.633 198.212L123.865 198.662L123.641 198.531L125.401 197.481ZM124.82 198.081L125.064 198.212C125.307 198.362 125.607 198.362 125.813 198.25C126.037 198.119 125.981 197.969 125.738 197.819C125.625 197.763 125.532 197.706 125.494 197.706L124.82 198.081Z" fill="white"/>
<path d="M126.375 200.009C126.244 199.991 126.038 199.916 125.813 199.784C124.596 199.072 126.487 198.042 127.704 198.754C127.929 198.885 128.022 198.997 128.041 199.054C127.61 199.185 127.947 199.129 127.517 198.885C127.105 198.641 126.543 198.641 126.075 198.904C125.644 199.147 125.607 199.466 126.038 199.71C126.187 199.784 126.356 199.859 126.487 199.878L126.375 200.009Z" fill="white"/>
<path d="M131.9 203.2C131.769 203.182 131.563 203.107 131.338 202.975C130.121 202.263 132.012 201.233 133.229 201.945C133.454 202.076 133.547 202.188 133.566 202.245L133.323 202.319C133.117 201.963 132.312 201.682 131.6 202.095C131.169 202.338 131.132 202.657 131.563 202.9C131.712 202.975 131.881 203.05 132.012 203.069L131.9 203.2Z" fill="white"/>
<path d="M133.903 203.462L133.21 203.069L132.574 203.444L133.341 203.893L133.154 204.006L132.143 203.425L133.922 202.394L134.895 202.956L134.708 203.069L133.978 202.638L133.416 202.956L134.109 203.35L133.903 203.462Z" fill="white"/>
<path d="M83.9211 212.14C84.4267 211.84 85.1756 212.252 84.6514 212.571C84.1458 212.871 83.4156 212.439 83.9211 212.14Z" fill="white"/>
<path d="M93.5844 215.905C92.4046 216.58 91.3371 216.711 90.5693 216.262C89.8952 215.868 90.0637 215.25 91.206 214.575C92.3671 213.9 93.4907 213.825 94.2024 214.238C94.914 214.65 94.6705 215.268 93.5844 215.905ZM91.6555 214.856C90.7566 215.381 90.5319 215.831 90.9439 216.074C91.4121 216.355 92.1986 216.168 93.0787 215.643C93.9215 215.156 94.2585 214.706 93.7904 214.425C93.3971 214.181 92.5919 214.313 91.6555 214.856Z" fill="white"/>
<path d="M96.2992 217.478C95.1194 218.152 94.052 218.284 93.2842 217.834C92.61 217.44 92.7785 216.822 93.9209 216.147C95.082 215.473 96.2056 215.398 96.9172 215.81C97.6288 216.222 97.4041 216.841 96.2992 217.478ZM94.3703 216.428C93.4714 216.953 93.2467 217.403 93.6587 217.646C94.1269 217.928 94.9134 217.74 95.7936 217.215C96.6363 216.728 96.9734 216.278 96.5052 215.997C96.1119 215.754 95.3067 215.885 94.3703 216.428Z" fill="white"/>
<path d="M115.495 222.106L113.829 223.061L115.421 223.98L114.99 224.223L113.398 223.305L111.713 224.28L111.263 224.017L112.949 223.043L111.357 222.124L111.788 221.881L113.379 222.799L115.046 221.843L115.495 222.106Z" fill="white"/>
<path d="M110.551 216.526L110.083 216.789L108.342 215.777L108.81 215.514L110.551 216.526Z" fill="white"/>
<path d="M99.4839 220.325L99.8022 220.137L102.536 221.711L102.218 221.899L99.4839 220.325ZM100.514 219.725L100.832 219.538L103.566 221.112L103.248 221.299L100.514 219.725Z" fill="white"/>
<path d="M122.743 216.319L128.342 215.438L128.642 215.607L123.042 216.488L122.743 216.319ZM126.132 215.344C124.709 216.169 123.042 215.251 124.447 214.426C125.14 214.033 125.908 214.014 126.357 214.276C126.844 214.576 126.788 214.97 126.132 215.344ZM124.503 215.344C124.803 215.513 125.271 215.419 125.739 215.157C126.151 214.913 126.394 214.651 126.057 214.464C125.496 214.108 123.885 214.97 124.503 215.344ZM126.956 217.462C125.533 218.287 123.885 217.368 125.271 216.544C125.964 216.15 126.732 216.131 127.181 216.394C127.668 216.694 127.612 217.087 126.956 217.462ZM125.327 217.462C125.627 217.631 126.095 217.537 126.563 217.275C126.975 217.031 127.218 216.769 126.881 216.581C126.301 216.225 124.709 217.106 125.327 217.462Z" fill="white"/>
<path d="M122.836 207.359L128.154 205.991L128.51 206.197L123.173 207.565L122.836 207.359Z" fill="white"/>
<path d="M119.26 211.575H117.574V212.512H117.143V211.575H115.458V211.313H117.143V210.375H117.574V211.313H119.26V211.575Z" fill="white"/>
<path d="M141.581 194.478L140.27 195.902L141.712 196.746L141.375 197.102L139.933 196.258L138.603 197.683L138.191 197.439L139.521 196.015L138.079 195.171L138.416 194.815L139.858 195.659L141.169 194.234L141.581 194.478Z" fill="#46465C"/>
<path d="M141.281 198.3C141.356 198.487 141.581 198.862 141.974 199.087C142.704 199.499 143.322 199.199 143.622 198.862C144.127 198.319 143.828 197.775 143.285 197.457L142.966 197.269L143.341 196.876L143.659 197.063C144.071 197.307 144.764 197.4 145.195 196.932C145.85 196.22 144.914 195.639 143.94 195.695L144.146 195.226C144.502 195.208 145.064 195.301 145.513 195.545C146.918 196.37 145.757 197.925 144.202 197.644L144.184 197.663C145.307 198.712 143.416 200.586 141.562 199.499C141.094 199.237 140.813 198.862 140.738 198.618L141.281 198.3Z" fill="#46465C"/>
<path d="M149.559 198.677L147.967 197.758L146.862 198.677C149.578 199.764 146.862 202.575 144.784 201.375C144.334 201.113 144.053 200.776 143.979 200.532L144.503 200.213C144.578 200.401 144.821 200.719 145.196 200.944C145.72 201.244 146.488 201.188 146.975 200.663C147.443 200.157 147.424 199.576 146.582 199.108C146.338 198.977 146.132 198.883 145.964 198.827L147.986 197.103L149.971 198.246L149.559 198.677Z" fill="#46465C"/>
<path d="M147.798 202.443C147.911 202.517 148.06 202.592 148.266 202.686C149.015 202.986 150.027 202.892 151.001 202.086L150.982 202.068C149.596 202.461 148.341 201.262 149.502 200.025C151.113 198.301 154.24 199.556 152.049 201.899C150.495 203.567 148.66 203.698 147.386 202.874L147.798 202.443ZM150.102 200.287C149.165 201.281 150.364 202.049 151.319 201.637C151.394 201.599 151.469 201.562 151.544 201.468C152.162 200.793 152.386 200.137 151.787 199.8C151.338 199.538 150.626 199.744 150.102 200.287Z" fill="#46465C"/>
<path d="M130.645 211.724L131.488 209.981L131.937 210.093L131.432 211.124L134.447 210.112L137.256 211.743L136.956 211.911L134.409 210.449L130.645 211.724Z" fill="white"/>
<path d="M192.22 225.093C200.412 225.093 207.052 221.25 207.052 216.509C207.052 211.769 200.412 207.926 192.22 207.926C184.029 207.926 177.389 211.769 177.389 216.509C177.389 221.25 184.029 225.093 192.22 225.093Z" fill="#BFD3FF"/>
<path d="M178.736 213.061C178.736 215.31 180.459 217.072 182.425 218.215C190.216 222.712 203.924 219.62 203.924 213.061V215.797C203.924 217.652 202.688 219.527 200.234 220.951C195.309 223.799 187.332 223.799 182.425 220.951C179.972 219.527 178.736 217.671 178.736 215.797V213.061Z" fill="#F9962C"/>
<path d="M182.424 207.907C187.35 205.059 195.327 205.059 200.234 207.907C205.159 210.756 205.159 215.366 200.234 218.196C195.309 221.045 187.331 221.045 182.424 218.196C177.499 215.366 177.537 210.737 182.424 207.907Z" fill="#FFCD49"/>
<path d="M201.489 213.472C200.909 218.513 190.253 220.762 184.129 217.22C180.159 214.934 180.159 211.186 184.129 208.899C188.1 206.594 194.56 206.594 198.531 208.899C200.703 210.155 201.695 211.823 201.489 213.472Z" fill="#F9962C"/>
<path d="M201.49 213.473C200.909 218.514 190.254 220.763 184.13 217.221C182.332 216.172 181.339 214.841 181.171 213.473C181.339 212.105 182.313 210.756 184.13 209.725C190.291 206.164 200.909 208.451 201.49 213.473Z" fill="#FFDD58"/>
<path d="M194.205 212.142L191.995 213.416C192.482 213.922 192.688 214.391 192.613 214.803C192.388 216.002 189.804 217.089 187.519 216.002L186.995 216.302L186.227 215.852V215.234L186.751 215.553C185.759 214.822 185.759 214.072 186.62 213.36L188.118 213.416V214.035C187.781 214.316 187.706 214.597 187.912 214.878L189.972 213.697C188.999 212.704 188.699 211.917 190.085 211.111C191.321 210.399 193.044 210.287 194.673 210.98L195.665 210.418L196.433 210.249V210.867L195.478 211.43C196.527 212.198 196.602 213.079 195.403 214.016L193.886 213.304V212.685L194.261 212.816C194.336 212.573 194.317 212.329 194.205 212.142ZM188.68 215.328C189.766 215.628 191.077 215.103 190.497 214.278L188.68 215.328ZM193.512 211.655C192.295 211.167 190.497 211.823 191.452 212.835L193.512 211.655Z" fill="#F9962C"/>
<path d="M194.205 211.526L191.995 212.8C192.482 213.306 192.688 213.775 192.613 214.187C192.388 215.386 189.804 216.473 187.519 215.386L186.995 215.686L186.227 215.237L186.751 214.937C185.759 214.206 185.759 213.456 186.62 212.744L188.118 213.419C187.781 213.7 187.706 213.981 187.912 214.262L189.972 213.081C188.999 212.088 188.699 211.301 190.085 210.495C191.321 209.783 193.044 209.671 194.673 210.364L195.665 209.802L196.433 210.252L195.478 210.814C196.527 211.582 196.602 212.463 195.403 213.4L193.886 212.688C194.336 212.275 194.392 211.844 194.205 211.526ZM188.68 214.73C189.766 215.03 191.077 214.506 190.497 213.681L188.68 214.73ZM193.512 211.039C192.295 210.551 190.497 211.207 191.452 212.219L193.512 211.039Z" fill="#FDC847"/>
<path d="M177.052 210.119C177.052 212.368 178.775 214.13 180.741 215.273C188.531 219.771 202.24 216.678 202.24 210.119V212.855C202.24 214.711 201.004 216.585 198.55 218.009C193.625 220.857 185.647 220.857 180.741 218.009C178.288 216.585 177.052 214.729 177.052 212.855V210.119Z" fill="#F9962C"/>
<path d="M180.741 204.984C185.667 202.136 193.644 202.136 198.551 204.984C203.476 207.833 203.476 212.443 198.551 215.273C193.626 218.121 185.648 218.121 180.741 215.273C175.816 212.424 175.854 207.814 180.741 204.984Z" fill="#FFCD49"/>
<path d="M199.805 210.53C199.225 215.572 188.569 217.821 182.445 214.279C178.475 211.992 178.475 208.244 182.445 205.958C186.415 203.653 192.876 203.653 196.846 205.958C199.019 207.213 200.011 208.9 199.805 210.53Z" fill="#F9962C"/>
<path d="M199.805 210.53C199.224 215.572 188.568 217.82 182.445 214.278C180.647 213.229 179.654 211.898 179.486 210.53C179.654 209.162 180.628 207.813 182.445 206.782C188.606 203.24 199.224 205.527 199.805 210.53Z" fill="#FFDD58"/>
<path d="M192.52 209.2L190.31 210.475C190.797 210.981 191.003 211.449 190.928 211.862C190.704 213.061 188.119 214.148 185.835 213.061L185.31 213.361L184.542 212.911V212.293L185.067 212.611C184.074 211.88 184.074 211.131 184.936 210.419L186.434 210.475V211.093C186.097 211.374 186.022 211.655 186.228 211.937L188.288 210.756C187.314 209.763 187.014 208.976 188.4 208.17C189.636 207.458 191.359 207.345 192.988 208.039L193.981 207.476L194.749 207.308V207.926L193.794 208.488C194.842 209.257 194.917 210.137 193.719 211.074L192.202 210.362V209.744L192.576 209.875C192.651 209.631 192.633 209.388 192.52 209.2ZM186.996 212.405C188.082 212.705 189.393 212.18 188.812 211.356L186.996 212.405ZM191.827 208.713C190.61 208.226 188.812 208.882 189.767 209.894L191.827 208.713Z" fill="#F9962C"/>
<path d="M192.52 208.603L190.31 209.877C190.797 210.383 191.003 210.851 190.928 211.264C190.704 212.463 188.119 213.55 185.835 212.463L185.31 212.763L184.542 212.313L185.067 212.013C184.074 211.282 184.074 210.533 184.936 209.821L186.434 210.495C186.097 210.776 186.022 211.058 186.228 211.339L188.288 210.158C187.314 209.165 187.014 208.378 188.4 207.572C189.636 206.86 191.359 206.747 192.988 207.441L193.981 206.878L194.749 207.328L193.794 207.89C194.842 208.659 194.917 209.54 193.719 210.477L192.202 209.764C192.651 209.352 192.707 208.902 192.52 208.603ZM186.996 211.788C188.082 212.088 189.393 211.564 188.812 210.739L186.996 211.788ZM191.827 208.115C190.61 207.628 188.812 208.284 189.767 209.296L191.827 208.115Z" fill="#FDC847"/>
<path d="M179.785 207.567C179.785 209.816 181.508 211.578 183.474 212.721C191.265 217.219 204.973 214.127 204.973 207.567V210.303C204.973 212.159 203.737 214.033 201.284 215.457C196.359 218.306 188.381 218.306 183.474 215.457C181.021 214.033 179.785 212.178 179.785 210.303V207.567Z" fill="#F9962C"/>
<path d="M183.474 202.412C188.399 199.564 196.376 199.564 201.283 202.412C206.208 205.261 206.208 209.871 201.283 212.701C196.358 215.549 188.38 215.549 183.474 212.701C178.548 209.852 178.567 205.242 183.474 202.412Z" fill="#FFCD49"/>
<path d="M202.539 207.978C201.959 213.019 191.303 215.268 185.179 211.726C181.209 209.44 181.209 205.692 185.179 203.406C189.149 201.1 195.61 201.1 199.58 203.406C201.753 204.642 202.726 206.329 202.539 207.978Z" fill="#F9962C"/>
<path d="M202.539 207.979C201.958 213.021 191.303 215.269 185.179 211.728C183.381 210.678 182.389 209.347 182.22 207.979C182.389 206.611 183.363 205.262 185.179 204.231C191.322 200.671 201.958 202.957 202.539 207.979Z" fill="#FFDD58"/>
<path d="M195.255 206.649L193.045 207.923C193.532 208.429 193.738 208.897 193.663 209.31C193.438 210.509 190.854 211.596 188.569 210.509L188.045 210.809L187.277 210.359V209.741L187.801 210.059C186.809 209.329 186.809 208.579 187.67 207.867L189.168 207.923V208.541C188.831 208.823 188.756 209.104 188.962 209.385L191.022 208.204C190.048 207.211 189.749 206.424 191.135 205.618C192.371 204.906 194.093 204.793 195.723 205.487L196.715 204.925L197.483 204.756V205.374L196.528 205.936C197.577 206.705 197.652 207.586 196.453 208.523L194.936 207.811V207.192L195.311 207.323C195.386 207.061 195.367 206.836 195.255 206.649ZM189.711 209.835C190.798 210.134 192.108 209.61 191.528 208.785L189.711 209.835ZM194.562 206.161C193.344 205.674 191.547 206.33 192.502 207.342L194.562 206.161Z" fill="#F9962C"/>
<path d="M195.255 206.032L193.045 207.306C193.532 207.812 193.738 208.281 193.663 208.693C193.438 209.892 190.854 210.979 188.569 209.892L188.045 210.192L187.277 209.742L187.801 209.443C186.809 208.712 186.809 207.962 187.67 207.25L189.168 207.925C188.831 208.206 188.756 208.487 188.962 208.768L191.022 207.587C190.048 206.594 189.749 205.807 191.135 205.001C192.371 204.289 194.093 204.176 195.723 204.87L196.715 204.308L197.483 204.757L196.528 205.32C197.577 206.088 197.652 206.969 196.453 207.906L194.936 207.194C195.367 206.781 195.442 206.332 195.255 206.032ZM189.711 209.218C190.798 209.517 192.108 208.993 191.528 208.168L189.711 209.218ZM194.562 205.544C193.344 205.057 191.547 205.713 192.502 206.725L194.562 205.544Z" fill="#FDC847"/>
<path d="M211.303 243.703C219.494 243.703 226.135 239.861 226.135 235.12C226.135 230.38 219.494 226.537 211.303 226.537C203.112 226.537 196.471 230.38 196.471 235.12C196.471 239.861 203.112 243.703 211.303 243.703Z" fill="#BFD3FF"/>
<path d="M198.7 231.93C198.7 234.179 200.423 235.941 202.389 237.084C210.18 241.582 223.888 238.489 223.888 231.93V234.666C223.888 236.522 222.652 238.396 220.199 239.82C215.274 242.668 207.296 242.668 202.389 239.82C199.936 238.396 198.7 236.54 198.7 234.666V231.93Z" fill="#F9962C"/>
<path d="M202.389 226.795C207.314 223.947 215.292 223.947 220.198 226.795C225.123 229.644 225.123 234.254 220.198 237.084C215.273 239.932 207.295 239.932 202.389 237.084C197.445 234.235 197.482 229.625 202.389 226.795Z" fill="#FFCD49"/>
<path d="M221.454 232.342C220.873 237.383 210.218 239.632 204.094 236.09C200.124 233.803 200.124 230.055 204.094 227.769C208.064 225.464 214.525 225.464 218.495 227.769C220.667 229.024 221.641 230.711 221.454 232.342Z" fill="#F9962C"/>
<path d="M221.454 232.343C220.873 237.385 210.217 239.633 204.094 236.092C202.296 235.042 201.303 233.711 201.135 232.343C201.303 230.975 202.277 229.626 204.094 228.595C210.236 225.035 220.873 227.34 221.454 232.343Z" fill="#FFDD58"/>
<path d="M214.15 231.01L211.94 232.285C212.427 232.791 212.633 233.259 212.558 233.672C212.334 234.871 209.749 235.958 207.465 234.871L206.94 235.171L206.172 234.721V234.103L206.697 234.421C205.704 233.69 205.704 232.941 206.566 232.229L208.064 232.285V232.903C207.727 233.184 207.652 233.465 207.858 233.747L209.918 232.566C208.944 231.573 208.644 230.786 210.03 229.98C211.266 229.268 212.989 229.155 214.618 229.849L215.611 229.286L216.379 229.118V229.736L215.423 230.298C216.472 231.067 216.547 231.947 215.349 232.885L213.832 232.172V231.554L214.206 231.685C214.3 231.441 214.281 231.198 214.15 231.01ZM208.626 234.215C209.712 234.515 211.023 233.99 210.442 233.166L208.626 234.215ZM213.476 230.523C212.259 230.036 210.461 230.692 211.416 231.704L213.476 230.523Z" fill="#F9962C"/>
<path d="M214.15 230.395L211.94 231.669C212.427 232.175 212.633 232.643 212.558 233.056C212.334 234.255 209.749 235.342 207.465 234.255L206.94 234.555L206.172 234.105L206.697 233.805C205.704 233.074 205.704 232.325 206.566 231.613L208.064 232.287C207.727 232.568 207.652 232.85 207.858 233.131L209.918 231.95C208.944 230.957 208.644 230.17 210.03 229.364C211.266 228.652 212.989 228.539 214.618 229.233L215.611 228.67L216.379 229.12L215.423 229.682C216.472 230.451 216.547 231.332 215.349 232.269L213.832 231.556C214.281 231.144 214.337 230.713 214.15 230.395ZM208.626 233.599C209.712 233.899 211.023 233.374 210.442 232.55L208.626 233.599ZM213.476 229.926C212.259 229.439 210.461 230.095 211.416 231.107L213.476 229.926Z" fill="#FDC847"/>
<path d="M170.366 241.844C178.557 241.844 185.198 238.001 185.198 233.261C185.198 228.521 178.557 224.678 170.366 224.678C162.175 224.678 155.534 228.521 155.534 233.261C155.534 238.001 162.175 241.844 170.366 241.844Z" fill="#BFD3FF"/>
<path d="M156.751 229.892C156.751 232.141 158.474 233.903 160.441 235.046C168.231 239.543 181.939 236.451 181.939 229.892V232.628C181.939 234.484 180.703 236.358 178.25 237.782C173.325 240.63 165.347 240.63 160.441 237.782C157.987 236.358 156.751 234.502 156.751 232.628V229.892Z" fill="#F9962C"/>
<path d="M160.44 224.738C165.366 221.889 173.343 221.889 178.25 224.738C183.175 227.587 183.175 232.197 178.25 235.027C173.325 237.875 165.347 237.875 160.44 235.027C155.497 232.178 155.534 227.568 160.44 224.738Z" fill="#FFCD49"/>
<path d="M179.505 230.284C178.924 235.325 168.269 237.574 162.145 234.032C158.175 231.746 158.175 227.998 162.145 225.711C166.115 223.406 172.576 223.406 176.546 225.711C178.718 226.967 179.692 228.653 179.505 230.284Z" fill="#F9962C"/>
<path d="M179.505 230.284C178.924 235.325 168.269 237.574 162.145 234.032C160.347 232.983 159.355 231.652 159.186 230.284C159.355 228.916 160.328 227.567 162.145 226.536C168.287 222.994 178.924 225.281 179.505 230.284Z" fill="#FFDD58"/>
<path d="M172.22 228.954L170.01 230.228C170.497 230.734 170.703 231.203 170.628 231.615C170.403 232.814 167.819 233.901 165.534 232.814L165.01 233.114L164.242 232.664V232.046L164.767 232.365C163.774 231.634 163.774 230.884 164.635 230.172L166.134 230.228V230.847C165.797 231.128 165.722 231.409 165.928 231.69L167.988 230.509C167.014 229.516 166.714 228.729 168.1 227.923C169.336 227.211 171.059 227.099 172.688 227.792L173.681 227.23L174.448 227.061V227.679L173.493 228.242C174.542 229.01 174.617 229.891 173.418 230.828L171.902 230.116V229.497L172.276 229.628C172.351 229.385 172.332 229.141 172.22 228.954ZM166.677 232.158C167.763 232.458 169.074 231.934 168.493 231.109L166.677 232.158ZM171.527 228.485C170.31 227.998 168.512 228.654 169.467 229.666L171.527 228.485Z" fill="#F9962C"/>
<path d="M172.22 228.356L170.01 229.63C170.497 230.136 170.703 230.605 170.628 231.017C170.403 232.217 167.819 233.303 165.534 232.217L165.01 232.516L164.242 232.067L164.767 231.767C163.774 231.036 163.774 230.286 164.635 229.574L166.134 230.249C165.797 230.53 165.722 230.811 165.928 231.092L167.988 229.911C167.014 228.918 166.714 228.131 168.1 227.325C169.336 226.613 171.059 226.501 172.688 227.194L173.681 226.632L174.448 227.082L173.493 227.644C174.542 228.412 174.617 229.293 173.418 230.23L171.902 229.518C172.351 229.106 172.407 228.656 172.22 228.356ZM166.677 231.542C167.763 231.842 169.074 231.317 168.493 230.492L166.677 231.542ZM171.527 227.869C170.31 227.381 168.512 228.037 169.467 229.049L171.527 227.869Z" fill="#FDC847"/>
<path d="M259.019 246.172C257.559 246.004 257.09 245.947 249.562 245.048C249.169 244.86 248.776 244.823 248.438 244.917L205.797 256.386C205.385 256.217 204.973 256.18 204.617 256.273C203.4 256.592 180.459 262.776 178.474 263.301C176.077 263.957 174.579 266.449 175.253 268.904C175.909 271.322 178.343 272.727 180.722 272.165C180.797 272.147 179.317 272.54 206.977 265.1C207.333 265.006 207.67 264.763 207.932 264.407L250.573 252.938C250.91 252.844 251.229 252.619 251.472 252.263C260.255 245.647 258.663 246.847 259.094 246.528C259.263 246.416 259.206 246.191 259.019 246.172Z" fill="#BFD3FF"/>
<path d="M256.978 243.269C257.595 243.344 258.045 243.4 258.644 243.475C258.812 243.493 258.887 243.718 258.738 243.831C258.438 244.056 258.681 243.868 257.408 244.843L256.978 243.269Z" fill="#F4F4F4"/>
<path d="M250.217 250.239L248.063 242.218L256.978 243.286C257.764 243.38 258.007 244.392 257.39 244.841L250.217 250.239Z" fill="#466380"/>
<path d="M181.714 268.326C179.935 267.614 178.643 264.334 179.242 262.011C179.43 261.298 179.86 260.586 180.553 260.399L248.064 242.221C250.124 241.658 252.315 245.725 251.547 248.63L182.014 267.352C181.976 267.595 181.864 267.97 181.714 268.326Z" fill="#537496"/>
<path d="M208.156 260.311L182.013 267.358C182.556 264.49 180.721 260.686 178.605 260.574C178.268 260.555 173.53 261.867 204.261 253.583C206.433 253.003 208.755 257.088 208.156 260.311Z" fill="#466380"/>
<path d="M178.117 260.609C178.904 260.403 179.691 260.834 180.271 261.415C182.387 263.532 182.78 268.068 180.945 269.23C180.084 269.792 179.091 269.342 178.361 268.611C176.001 266.306 175.851 261.227 178.117 260.609Z" fill="#4E6D8C"/>
<path d="M180.552 257.904L203.512 251.719L203.755 252.656L183.492 258.11L183.867 259.497L181.17 260.227L180.552 257.904Z" fill="#466380"/>
<path d="M179.897 260.133L179.392 258.222L180.552 257.903L181.17 260.227C180.815 259.984 180.403 259.984 179.897 260.133Z" fill="#4E6D8C"/>
<path d="M250.217 250.242L250.011 249.492C252.034 248.33 250.536 249.286 257.671 244.451C257.558 244.769 258.045 244.357 250.217 250.242Z" fill="#384E66"/>
<path d="M180.497 269.433C178.081 270.089 175.553 268.684 174.897 266.21C174.242 263.774 175.684 261.262 178.118 260.607C178.905 260.4 179.692 260.831 180.272 261.412C182.575 263.717 182.781 268.815 180.497 269.433Z" fill="#4E6D8C"/>
<path d="M258.645 243.478C258.813 243.497 258.888 243.722 258.738 243.834L258.532 243.984C258.738 243.441 258.027 243.403 258.645 243.478Z" fill="#466380"/>
<path d="M250.218 250.242L207.576 261.711C207.876 261.318 208.044 260.774 208.138 260.306L251.528 248.63C251.304 249.53 250.817 250.073 250.218 250.242Z" fill="#3B526B"/>
<path d="M206.621 262.405C175.421 270.801 180.646 269.432 180.927 269.245C181.545 268.833 181.92 268.008 182.013 267.334L208.156 260.287C207.988 261.205 207.52 262.161 206.621 262.405Z" fill="#364D63"/>
<path d="M180.497 269.432C178.081 270.088 175.553 268.682 174.897 266.208C176.339 268.195 177.8 268.476 182.014 267.333C181.901 268.195 181.377 269.207 180.497 269.432Z" fill="#3E5772"/>
<defs>
<linearGradient id="paint0_linear" x1="80.0415" y1="39.4354" x2="120.572" y2="39.4354" gradientUnits="userSpaceOnUse">
<stop stop-color="#F5F5F5"/>
<stop offset="1" stop-color="white"/>
</linearGradient>
<linearGradient id="paint1_linear" x1="80.0412" y1="39.4418" x2="120.572" y2="39.4418" gradientUnits="userSpaceOnUse">
<stop stop-color="#43CDFF"/>
<stop offset="1" stop-color="#4394FF"/>
</linearGradient>
</defs>
</svg>
