<svg width="45" height="45" viewBox="0 0 45 45" fill="none" xmlns="http://www.w3.org/2000/svg">
<path d="M32.168 34.8047C31.6828 34.8047 31.2891 35.1984 31.2891 35.6836C31.2891 36.1688 31.6828 36.5625 32.168 36.5625C32.6531 36.5625 33.0469 36.1688 33.0469 35.6836C33.0469 35.1984 32.6531 34.8047 32.168 34.8047Z" fill="white"/>
<path d="M34.332 31.9626L30.1546 30.5704L28.6549 27.5709C30.0059 26.1958 30.944 24.3763 31.2603 22.4785L31.4474 21.3574H33.0469C34.5008 21.3574 35.6836 20.1746 35.6836 18.7207V13.1836C35.6836 5.91416 29.7694 0 22.5 0C15.2119 0 9.31641 5.8972 9.31641 13.1836V18.7207C9.31641 19.8664 10.0513 20.8434 11.0742 21.2062V22.2363C11.0742 23.6902 12.2571 24.873 13.7109 24.873H14.4828C14.8638 25.7007 15.357 26.4673 15.9571 27.1559C16.0815 27.299 16.2113 27.4377 16.3443 27.5726L14.8454 30.5704L10.6679 31.9627C5.81063 33.5823 2.28516 38.6957 2.28516 44.1211C2.28516 44.6065 2.67864 45 3.16406 45H41.8359C42.3213 45 42.7148 44.6065 42.7148 44.1211C42.7148 38.6957 39.1895 33.5823 34.332 31.9626ZM33.9258 18.7207C33.9258 19.2053 33.5315 19.5996 33.0469 19.5996H31.7055C31.9289 17.869 32.0778 16.0275 32.1376 14.2137C32.1394 14.1625 32.1408 14.1128 32.1424 14.0625H33.9258V18.7207ZM11.9531 19.5996C11.4685 19.5996 11.0742 19.2053 11.0742 18.7207V14.0625H12.8582C12.8611 14.1542 12.8642 14.2463 12.8676 14.339C12.8677 14.3422 12.8679 14.3452 12.868 14.3484C12.868 14.3487 12.868 14.3489 12.868 14.3492C12.9295 16.1133 13.0765 17.9071 13.2948 19.5995H11.9531V19.5996ZM13.7109 23.1152C13.2263 23.1152 12.832 22.721 12.832 22.2363V21.3574H13.5526L13.7396 22.4788C13.7753 22.692 13.8191 22.9043 13.8698 23.1152H13.7109ZM12.8335 12.3047H11.1076C11.5528 6.41417 16.4687 1.75781 22.5 1.75781C28.5045 1.75781 33.442 6.41355 33.8923 12.3047H32.1666C32.1033 7.45075 28.1506 3.51562 23.2867 3.51562H21.7135C16.8497 3.51562 12.8967 7.45075 12.8335 12.3047ZM21.7134 5.27344H23.2866C27.2249 5.27344 30.4124 8.49472 30.4102 12.4286C30.4102 12.7052 30.408 12.946 30.4033 13.1651C30.4033 13.1679 30.4032 13.1708 30.4032 13.1737L29.3039 13.0167C26.3174 12.5902 23.4975 11.1803 21.3637 9.04649C21.1988 8.8817 20.9753 8.78906 20.7422 8.78906C18.3818 8.78906 16.1223 9.86449 14.6287 11.6814C14.9968 8.10255 18.0222 5.27344 21.7134 5.27344ZM15.692 23.1152C15.252 21.6516 14.7486 17.345 14.6373 14.5852L15.8202 13.0079C16.9066 11.5598 18.5969 10.6601 20.3948 10.5568C22.7606 12.8082 25.8211 14.295 29.0553 14.7567L30.3492 14.9417C30.2628 16.7773 30.086 18.6193 29.8328 20.3134C29.8327 20.3139 29.8326 20.3145 29.8325 20.3151C29.752 20.8598 29.6886 21.2103 29.5265 22.1893C29.061 24.9812 26.9779 27.5058 24.2278 28.1934C23.0961 28.4759 21.9037 28.4759 20.7726 28.1934C19.0555 27.7641 17.481 26.576 16.4649 24.873H18.2566C18.6195 25.896 19.5964 26.6309 20.7422 26.6309H22.5C23.9568 26.6309 25.1367 25.451 25.1367 23.9941C25.1367 22.5403 23.9539 21.3574 22.5 21.3574H20.7422C19.5709 21.3574 18.6084 22.114 18.2551 23.1152H15.692ZM20.6683 29.9721C21.2711 30.0991 21.8857 30.1641 22.5 30.1641C22.9809 30.1641 23.4618 30.1238 23.9373 30.0458L22.3842 31.6882L20.6683 29.9721ZM21.1759 32.9659L18.3882 35.914C17.6208 34.445 16.9613 32.9161 16.4204 31.3509L17.4673 29.2572L21.1759 32.9659ZM27.3837 28.9594L28.5794 31.3508C28.0376 32.9186 27.378 34.448 26.6113 35.9153L23.6276 32.9316L27.3837 28.9594ZM19.8633 23.9941C19.8633 23.5089 20.2569 23.1152 20.7422 23.1152H22.5C22.9846 23.1152 23.3789 23.5095 23.3789 23.9941C23.3789 24.4795 22.9852 24.873 22.5 24.873H20.7422C20.2576 24.873 19.8633 24.4788 19.8633 23.9941ZM4.07813 43.2422C4.42644 38.8882 7.3241 34.9306 11.2238 33.6302L14.9235 32.3973C15.6013 34.2715 16.441 36.0933 17.4251 37.8236C17.4268 37.8266 17.4284 37.8296 17.43 37.8325C17.43 37.8326 17.4301 37.8326 17.4301 37.8327C18.1491 39.0974 18.9584 40.3332 19.8359 41.5064L20.9171 43.2422H4.07813ZM22.5 42.4587L21.308 40.5451C21.2947 40.5236 21.2804 40.5028 21.2653 40.4826C20.5536 39.5332 19.8896 38.5403 19.285 37.524L22.4194 34.2093L25.7222 37.5121C25.1134 38.5357 24.4472 39.5328 23.7349 40.4824C23.6918 40.5398 23.7529 40.4494 22.5 42.4587ZM24.0829 43.2422L25.1641 41.5065C26.0453 40.3288 26.8604 39.083 27.5867 37.8035C27.5911 37.7958 27.5952 37.7879 27.5996 37.7801C27.6001 37.7792 27.6006 37.7783 27.6012 37.7773C28.5728 36.0635 29.4037 34.2576 30.0765 32.3973L33.7761 33.6302C37.6759 34.9306 40.5736 38.8882 40.9219 43.2422H24.0829Z" fill="white"/>
<path d="M38.2804 39.6854C37.693 38.5097 36.8327 37.4652 35.7923 36.6648C35.4075 36.3687 34.8557 36.4407 34.5598 36.8255C34.2638 37.2103 34.3358 37.7621 34.7205 38.0581C35.5514 38.6973 36.2385 39.5317 36.7078 40.4709C36.9251 40.9059 37.4533 41.081 37.8868 40.8644C38.321 40.6475 38.4972 40.1196 38.2804 39.6854Z" fill="white"/>
</svg>
