<svg width="57" height="23" viewBox="0 0 57 23" fill="none" xmlns="http://www.w3.org/2000/svg">
<path d="M11.6006 11.791V14.0602H2.90676C2.74821 14.0602 2.58966 14.1118 2.48396 14.2149C2.37826 14.318 2.32541 14.447 2.32541 14.6275V18.0312C2.32541 18.1859 2.37826 18.3406 2.48396 18.4438C2.58966 18.5469 2.72178 18.5985 2.90676 18.5985H8.72027C8.87882 18.5985 9.03737 18.5469 9.14307 18.4438C9.24877 18.3406 9.30162 18.2117 9.30162 18.0312V15.1948H11.627V18.0312C11.627 18.418 11.5478 18.779 11.3892 19.14C11.2307 19.4752 11.0193 19.7847 10.755 20.0425C10.4908 20.3004 10.1737 20.5067 9.83012 20.6614C9.4866 20.8161 9.11665 20.8935 8.69385 20.8935H2.90676C2.51038 20.8935 2.14043 20.8161 1.77048 20.6614C1.42695 20.5067 1.10985 20.3004 0.845602 20.0425C0.581351 19.7847 0.369951 19.4752 0.211401 19.14C0.0792752 18.779 0 18.418 0 18.0312V14.6275C0 14.2407 0.0792752 13.8797 0.237826 13.5187C0.396376 13.1835 0.607777 12.8998 0.872027 12.642C1.13628 12.3841 1.45338 12.1778 1.7969 12.0231C2.11401 11.8684 2.51038 11.791 2.90676 11.791H11.6006Z" fill="white"/>
<path d="M14.8508 20.8681H12.5254V14.6279C12.5254 14.2411 12.6047 13.8801 12.7632 13.5191C12.9218 13.1839 13.1332 12.8744 13.3974 12.6166C13.6617 12.3587 13.9788 12.1524 14.3223 11.9977C14.6658 11.843 15.0358 11.7656 15.4586 11.7656H21.2721C21.6685 11.7656 22.0384 11.843 22.4084 11.9977C22.7519 12.1524 23.069 12.3587 23.3332 12.6166C23.5975 12.8744 23.8089 13.1839 23.9674 13.5191C24.126 13.8543 24.2053 14.2153 24.2053 14.6279V15.7624C24.2053 16.1492 24.126 16.5102 23.9674 16.8712C23.8089 17.2065 23.5975 17.5159 23.3332 17.7738C23.069 18.0316 22.7519 18.2379 22.4084 18.3926C22.0648 18.5473 21.6949 18.6247 21.2721 18.6247H16.0135V16.3555H21.2457C21.4042 16.3555 21.5628 16.304 21.6685 16.2008C21.7742 16.0977 21.827 15.9687 21.827 15.7882V14.6537C21.827 14.4989 21.7742 14.3442 21.6685 14.2411C21.5628 14.1379 21.4306 14.0864 21.2457 14.0864H15.4321C15.2736 14.0864 15.115 14.1379 15.0093 14.2411C14.9036 14.3442 14.8508 14.4732 14.8508 14.6537V20.8681Z" fill="white"/>
<path d="M26.3684 -1.96073e-05L17.0234 9.11426L18.1255 10.1904L27.4705 1.07607L26.3684 -1.96073e-05Z" fill="white"/>
<path d="M34.588 8.00821L25.2466 17.126L26.3492 18.2016L35.6906 9.0838L34.588 8.00821Z" fill="white"/>
<path d="M30.5059 3.99881L23.2163 11.1084L24.3186 12.1844L31.6083 5.07482L30.5059 3.99881Z" fill="white"/>
<path d="M28.432 1.94985L21.1436 9.05957L22.2459 10.1354L29.5343 3.02573L28.432 1.94985Z" fill="white"/>
<path d="M32.4848 5.93422L25.1963 13.0439L26.2986 14.1198L33.5871 7.0101L32.4848 5.93422Z" fill="white"/>
<path d="M11.6267 15.1426H7.71582V16.9218H11.6267V15.1426Z" fill="white"/>
<path d="M17.4153 22.1107C16.9753 22.1107 16.6113 21.9747 16.3233 21.7027C16.0353 21.428 15.8913 21.0787 15.8913 20.6547C15.8913 20.244 16.0339 19.8987 16.3193 19.6187C16.6073 19.3387 16.9673 19.1987 17.3993 19.1987C17.8419 19.1987 18.2206 19.3347 18.5353 19.6067L18.0793 20.1547C17.8686 19.9787 17.6433 19.8907 17.4033 19.8907C17.2006 19.8907 17.0299 19.9654 16.8913 20.1147C16.7553 20.264 16.6873 20.448 16.6873 20.6667C16.6873 20.8934 16.7579 21.08 16.8993 21.2267C17.0433 21.3707 17.2259 21.4427 17.4473 21.4427C17.6286 21.4427 17.7779 21.404 17.8953 21.3267V20.9867H17.3433V20.4187H18.6313V21.6787C18.2819 21.9667 17.8766 22.1107 17.4153 22.1107ZM21.5455 21.6867C21.2575 21.9694 20.8988 22.1107 20.4695 22.1107C20.0401 22.1107 19.6815 21.9707 19.3935 21.6907C19.1081 21.408 18.9655 21.0627 18.9655 20.6547C18.9655 20.2494 19.1095 19.9054 19.3975 19.6227C19.6881 19.34 20.0481 19.1987 20.4775 19.1987C20.9068 19.1987 21.2641 19.34 21.5495 19.6227C21.8375 19.9027 21.9815 20.2467 21.9815 20.6547C21.9815 21.06 21.8361 21.404 21.5455 21.6867ZM20.4775 21.4107C20.6881 21.4107 20.8588 21.3374 20.9895 21.1907C21.1228 21.044 21.1895 20.8654 21.1895 20.6547C21.1895 20.4467 21.1215 20.2694 20.9855 20.1227C20.8495 19.9734 20.6775 19.8987 20.4695 19.8987C20.2615 19.8987 20.0908 19.972 19.9575 20.1187C19.8268 20.2654 19.7615 20.444 19.7615 20.6547C19.7615 20.8627 19.8281 21.0414 19.9615 21.1907C20.0975 21.3374 20.2695 21.4107 20.4775 21.4107ZM24.8697 21.6867C24.5817 21.9694 24.223 22.1107 23.7937 22.1107C23.3644 22.1107 23.0057 21.9707 22.7177 21.6907C22.4324 21.408 22.2897 21.0627 22.2897 20.6547C22.2897 20.2494 22.4337 19.9054 22.7217 19.6227C23.0124 19.34 23.3724 19.1987 23.8017 19.1987C24.231 19.1987 24.5884 19.34 24.8737 19.6227C25.1617 19.9027 25.3057 20.2467 25.3057 20.6547C25.3057 21.06 25.1604 21.404 24.8697 21.6867ZM23.8017 21.4107C24.0124 21.4107 24.183 21.3374 24.3137 21.1907C24.447 21.044 24.5137 20.8654 24.5137 20.6547C24.5137 20.4467 24.4457 20.2694 24.3097 20.1227C24.1737 19.9734 24.0017 19.8987 23.7937 19.8987C23.5857 19.8987 23.415 19.972 23.2817 20.1187C23.151 20.2654 23.0857 20.444 23.0857 20.6547C23.0857 20.8627 23.1524 21.0414 23.2857 21.1907C23.4217 21.3374 23.5937 21.4107 23.8017 21.4107ZM25.7099 22.0547V19.2547H26.7899C27.2806 19.2547 27.6659 19.3827 27.9459 19.6387C28.2286 19.8947 28.3699 20.2307 28.3699 20.6467C28.3699 21.06 28.2272 21.3987 27.9419 21.6627C27.6566 21.924 27.2672 22.0547 26.7739 22.0547H25.7099ZM26.4859 21.3667H26.8019C27.0366 21.3667 27.2232 21.304 27.3619 21.1787C27.5032 21.0534 27.5739 20.8774 27.5739 20.6507C27.5739 20.4294 27.5032 20.2547 27.3619 20.1267C27.2232 19.9987 27.0366 19.9347 26.8019 19.9347H26.4859V21.3667ZM28.7685 22.0547V19.2547H29.9685C30.3258 19.2547 30.6085 19.3427 30.8165 19.5187C31.0272 19.692 31.1325 19.9347 31.1325 20.2467C31.1325 20.5667 31.0218 20.8147 30.8005 20.9907C30.5792 21.1667 30.2885 21.2547 29.9285 21.2547H29.5445V22.0547H28.7685ZM29.5445 20.6467H29.9125C30.0512 20.6467 30.1592 20.6134 30.2365 20.5467C30.3165 20.48 30.3565 20.3894 30.3565 20.2747C30.3565 20.1547 30.3165 20.064 30.2365 20.0027C30.1592 19.9387 30.0498 19.9067 29.9085 19.9067H29.5445V20.6467ZM30.9547 22.0547L32.1467 19.2347H32.8947L34.0867 22.0547H33.2547L33.0507 21.5547H31.9707L31.7707 22.0547H30.9547ZM32.1987 20.9507H32.8267L32.5147 20.1547L32.1987 20.9507ZM35.6067 22.1107C35.1667 22.1107 34.8027 21.9747 34.5147 21.7027C34.2267 21.428 34.0827 21.0787 34.0827 20.6547C34.0827 20.244 34.2253 19.8987 34.5107 19.6187C34.7987 19.3387 35.1587 19.1987 35.5907 19.1987C36.0333 19.1987 36.412 19.3347 36.7267 19.6067L36.2707 20.1547C36.06 19.9787 35.8347 19.8907 35.5947 19.8907C35.392 19.8907 35.2213 19.9654 35.0827 20.1147C34.9467 20.264 34.8787 20.448 34.8787 20.6667C34.8787 20.8934 34.9493 21.08 35.0907 21.2267C35.2347 21.3707 35.4173 21.4427 35.6387 21.4427C35.82 21.4427 35.9693 21.404 36.0867 21.3267V20.9867H35.5347V20.4187H36.8227V21.6787C36.4733 21.9667 36.068 22.1107 35.6067 22.1107ZM37.2529 22.0547V19.2547H39.5049V19.9147H38.0209V20.3387H39.3649V20.9507H38.0209V21.3947H39.5249V22.0547H37.2529ZM39.8449 22.0547V21.2747H40.6369V22.0547H39.8449ZM42.1576 22.1027C41.6296 22.1027 41.1922 21.948 40.8456 21.6387L41.2776 21.1227C41.5576 21.3467 41.8602 21.4587 42.1856 21.4587C42.3989 21.4587 42.5056 21.392 42.5056 21.2587C42.5056 21.2 42.4736 21.152 42.4096 21.1147C42.3456 21.0747 42.2202 21.0334 42.0336 20.9907C41.8629 20.9507 41.7216 20.912 41.6096 20.8747C41.5002 20.8347 41.3922 20.7827 41.2856 20.7187C41.1816 20.652 41.1042 20.568 41.0536 20.4667C41.0029 20.3654 40.9776 20.244 40.9776 20.1027C40.9776 19.8387 41.0749 19.624 41.2696 19.4587C41.4669 19.2907 41.7309 19.2067 42.0616 19.2067C42.5202 19.2067 42.9042 19.3307 43.2136 19.5787L42.8256 20.1267C42.5642 19.9427 42.3029 19.8507 42.0416 19.8507C41.9509 19.8507 41.8816 19.868 41.8336 19.9027C41.7856 19.9374 41.7616 19.9827 41.7616 20.0387C41.7616 20.1027 41.7936 20.1534 41.8576 20.1907C41.9242 20.228 42.0536 20.268 42.2456 20.3107C42.5976 20.388 42.8589 20.492 43.0296 20.6227C43.2029 20.7507 43.2896 20.94 43.2896 21.1907C43.2896 21.4734 43.1869 21.696 42.9816 21.8587C42.7762 22.0214 42.5016 22.1027 42.1576 22.1027ZM44.2728 22.0547V19.9347H43.4328V19.2547H45.8888V19.9347H45.0488V22.0547H44.2728ZM47.4894 22.1067C47.0788 22.1067 46.7601 22 46.5334 21.7867C46.3068 21.5734 46.1934 21.2534 46.1934 20.8267V19.2547H46.9814V20.8107C46.9814 21.008 47.0268 21.1574 47.1174 21.2587C47.2108 21.3574 47.3374 21.4067 47.4974 21.4067C47.6574 21.4067 47.7828 21.3587 47.8734 21.2627C47.9668 21.1667 48.0134 21.0227 48.0134 20.8307V19.2547H48.8014V20.8067C48.8014 21.244 48.6854 21.5707 48.4534 21.7867C48.2241 22 47.9028 22.1067 47.4894 22.1067ZM49.2607 22.0547V19.2547H50.3407C50.8314 19.2547 51.2167 19.3827 51.4967 19.6387C51.7794 19.8947 51.9207 20.2307 51.9207 20.6467C51.9207 21.06 51.778 21.3987 51.4927 21.6627C51.2074 21.924 50.818 22.0547 50.3247 22.0547H49.2607ZM50.0367 21.3667H50.3527C50.5874 21.3667 50.774 21.304 50.9127 21.1787C51.054 21.0534 51.1247 20.8774 51.1247 20.6507C51.1247 20.4294 51.054 20.2547 50.9127 20.1267C50.774 19.9987 50.5874 19.9347 50.3527 19.9347H50.0367V21.3667ZM52.3353 22.0547V19.2547H53.1153V22.0547H52.3353ZM56.1119 21.6867C55.8239 21.9694 55.4652 22.1107 55.0359 22.1107C54.6065 22.1107 54.2479 21.9707 53.9599 21.6907C53.6745 21.408 53.5319 21.0627 53.5319 20.6547C53.5319 20.2494 53.6759 19.9054 53.9639 19.6227C54.2545 19.34 54.6145 19.1987 55.0439 19.1987C55.4732 19.1987 55.8305 19.34 56.1159 19.6227C56.4039 19.9027 56.5479 20.2467 56.5479 20.6547C56.5479 21.06 56.4025 21.404 56.1119 21.6867ZM55.0439 21.4107C55.2545 21.4107 55.4252 21.3374 55.5559 21.1907C55.6892 21.044 55.7559 20.8654 55.7559 20.6547C55.7559 20.4467 55.6879 20.2694 55.5519 20.1227C55.4159 19.9734 55.2439 19.8987 55.0359 19.8987C54.8279 19.8987 54.6572 19.972 54.5239 20.1187C54.3932 20.2654 54.3279 20.444 54.3279 20.6547C54.3279 20.8627 54.3945 21.0414 54.5279 21.1907C54.6639 21.3374 54.8359 21.4107 55.0439 21.4107Z" fill="white"/>
</svg>
