<svg width="160" height="36" viewBox="0 0 160 36" fill="none" xmlns="http://www.w3.org/2000/svg">
<path d="M16.9028 0H0V15.0154L10.1278 11.9985V8.11458H16.5226C18.1472 8.11458 19.6335 8.392 20.947 8.87749C21.5692 9.05089 22.2605 9.43232 22.9518 9.91782C23.0209 9.9525 23.0555 9.98717 23.1246 10.0565C23.7468 10.5073 24.2653 11.0275 24.7492 11.617H24.7147C24.9912 11.9638 25.2677 12.3453 25.4751 12.7267C25.5097 12.7961 25.5442 12.8654 25.5788 12.9001C26.2355 14.0791 26.6849 15.4316 26.6503 16.888C26.6849 17.2348 26.6849 17.5469 26.6849 17.9284C26.6849 23.7195 23.0901 27.2914 17.6633 27.7422L10.9574 35.8915H16.9028C28.759 35.8915 36.882 28.9558 36.882 17.9631C36.882 6.93554 28.759 0 16.9028 0Z" fill="#27C9CF"/>
<path d="M22.9172 9.91781L10.1278 16.0211L0 20.8413V15.0154L10.1278 11.9985L20.947 8.87748C21.5346 9.05087 22.2259 9.43233 22.9172 9.91781Z" fill="#686D76"/>
<path d="M25.4405 12.7613L10.1278 24.4823L0 32.2155V24.7252L10.1278 19.3501L24.6801 11.617C24.9566 11.9985 25.1986 12.3799 25.4405 12.7613Z" fill="#686D76"/>
<path d="M26.6157 16.9227L17.6286 27.742L10.9228 35.8913H2.03931L11.4067 27.7768L26.3046 14.8767C26.1318 14.1831 25.8553 13.5243 25.5442 12.9348C26.2009 14.1485 26.6157 15.5009 26.6157 16.9227Z" fill="#686D76"/>
<path d="M10.0933 8.11452H0V11.3742L10.0933 9.95244V8.11452Z" fill="#2BA6AB"/>
<path d="M25.4407 12.7613L19.8408 17.0267C19.4952 16.2985 19.0804 15.5702 18.5273 14.8767L24.6802 11.617C24.9567 11.9985 25.1987 12.3799 25.4407 12.7613Z" fill="#373A40"/>
<path d="M22.9173 9.9178L16.5572 12.9347C15.6585 12.2065 14.5869 11.5823 13.308 11.0275L20.9125 8.84278C21.5347 9.05085 22.226 9.4323 22.9173 9.9178Z" fill="#373A40"/>
<path d="M20.6359 24.1703C20.9124 22.8179 20.9815 21.2921 20.705 19.7663L26.3046 14.9114C26.1318 14.2178 25.8553 13.5589 25.5442 12.9694C26.2009 14.1485 26.6503 15.5009 26.6157 16.9574L20.6359 24.1703Z" fill="#373A40"/>
<path d="M45.0485 10.2295V25.2743H47.6355V10.2295H45.0485ZM49.8805 25.2743C51.4057 25.2743 52.7456 24.9662 53.9001 24.3501C55.0547 23.7197 55.9527 22.8456 56.5941 21.728C57.2498 20.5961 57.5776 19.2707 57.5776 17.7519C57.5776 16.2331 57.2498 14.9149 56.5941 13.7973C55.9527 12.6653 55.0547 11.7913 53.9001 11.1752C52.7456 10.5447 51.4057 10.2295 49.8805 10.2295H46.6093V12.6152H49.8164C50.5576 12.6152 51.2418 12.7227 51.869 12.9376C52.4961 13.1525 53.0378 13.4749 53.4939 13.9047C53.9643 14.3346 54.3278 14.8719 54.5843 15.5167C54.8551 16.1615 54.9906 16.9065 54.9906 17.7519C54.9906 18.5973 54.8551 19.3424 54.5843 19.9871C54.3278 20.6319 53.9643 21.1692 53.4939 21.5991C53.0378 22.0146 52.4961 22.337 51.869 22.5662C51.2418 22.7812 50.5576 22.8886 49.8164 22.8886H46.6093V25.2743H49.8805ZM62.905 21.4056H70.8159L70.3456 19.2564H63.3968L62.905 21.4056ZM66.8177 14.485L69.2124 20.0731L69.2551 20.6964L71.2863 25.2743H74.1514L66.8177 9.3913L59.5055 25.2743H62.3491L64.4231 20.5674L64.4658 20.0086L66.8177 14.485ZM83.6683 10.2295L80.1833 16.6558L76.7196 10.2295H73.8331L78.9218 18.9555V25.2743H81.4875V18.934L86.5547 10.2295H83.6683ZM96.8259 10.2295V25.2743H99.413V10.2295H96.8259ZM101.658 25.2743C103.183 25.2743 104.523 24.9662 105.678 24.3501C106.832 23.7197 107.73 22.8456 108.372 21.728C109.027 20.5961 109.355 19.2707 109.355 17.7519C109.355 16.2331 109.027 14.9149 108.372 13.7973C107.73 12.6653 106.832 11.7913 105.678 11.1752C104.523 10.5447 103.183 10.2295 101.658 10.2295H98.3867V12.6152H101.594C102.335 12.6152 103.019 12.7227 103.646 12.9376C104.274 13.1525 104.815 13.4749 105.271 13.9047C105.742 14.3346 106.105 14.8719 106.362 15.5167C106.633 16.1615 106.768 16.9065 106.768 17.7519C106.768 18.5973 106.633 19.3424 106.362 19.9871C106.105 20.6319 105.742 21.1692 105.271 21.5991C104.815 22.0146 104.274 22.337 103.646 22.5662C103.019 22.7812 102.335 22.8886 101.594 22.8886H98.3867V25.2743H101.658ZM115.987 18.0958L120.733 25.2743H123.791L118.702 18.0958H115.987ZM112.887 10.2295V25.2743H115.41V10.2295H112.887ZM114.383 12.4218H117.398C117.982 12.4218 118.488 12.5221 118.916 12.7226C119.344 12.9232 119.679 13.2098 119.921 13.5824C120.163 13.9549 120.284 14.4134 120.284 14.9579C120.284 15.488 120.163 15.9465 119.921 16.3334C119.679 16.7059 119.344 16.9925 118.916 17.1931C118.488 17.3794 117.982 17.4725 117.398 17.4725H114.383V19.5788H117.505C118.603 19.5788 119.55 19.3853 120.349 18.9985C121.147 18.6116 121.767 18.0671 122.209 17.365C122.665 16.663 122.893 15.8391 122.893 14.8934C122.893 13.9477 122.665 13.131 122.209 12.4432C121.767 11.7412 121.147 11.1967 120.349 10.8098C119.55 10.4229 118.603 10.2295 117.505 10.2295H114.383V12.4218ZM126.671 10.2295V25.2743H129.237V10.2295H126.671ZM139.337 20.8039L134.933 10.2295H132.025L139.337 26.1125L146.671 10.2295H143.742L139.337 20.8039ZM151.021 25.2743H158.568V23.0391H151.021V25.2743ZM151.021 12.4647H158.568V10.2295H151.021V12.4647ZM151.021 18.3107H158.14V16.1185H151.021V18.3107ZM149.46 10.2295V25.2743H151.94V10.2295H149.46Z" fill="#373A40"/>
</svg>
