<svg width="48" height="57" viewBox="0 0 48 57" fill="none" xmlns="http://www.w3.org/2000/svg">
<path d="M22.0511 0H0.631836V18.9579L13.4659 15.1488V10.2451H21.5692C23.6279 10.2451 25.5114 10.5954 27.1759 11.2083C27.9643 11.4273 28.8404 11.9089 29.7164 12.5218C29.804 12.5656 29.8478 12.6094 29.9354 12.6969C30.7239 13.2661 31.3809 13.9228 31.9941 14.6671H31.9504C32.3007 15.105 32.6512 15.5866 32.914 16.0682C32.9578 16.1558 33.0016 16.2433 33.0454 16.2871C33.8777 17.7757 34.4471 19.4832 34.4033 21.3221C34.4471 21.7599 34.4471 22.154 34.4471 22.6356C34.4471 29.9473 29.8916 34.4569 23.0147 35.026L14.5171 45.315H22.0511C37.0752 45.315 47.3687 36.5584 47.3687 22.6794C47.3687 8.75649 37.0752 0 22.0511 0Z" fill="white"/>
<path d="M29.6726 12.5215L13.4659 20.2272L0.631836 26.313V18.9575L13.4659 15.1485L27.1759 11.208C27.9205 11.4269 28.7966 11.9085 29.6726 12.5215Z" fill="#27C9CF"/>
<path d="M32.8702 16.1118L13.4659 30.9103L0.631836 40.6738V31.2168L13.4659 24.4305L31.9066 14.667C32.257 15.1486 32.5636 15.6302 32.8702 16.1118Z" fill="#27C9CF"/>
<path d="M34.3591 21.366L22.9706 35.0262L14.4729 45.3151H3.21582L15.0862 35.07L33.9649 18.7828C33.7459 17.9072 33.3955 17.0754 33.0012 16.3311C33.8335 17.8634 34.3591 19.5709 34.3591 21.366Z" fill="#27C9CF"/>
<path d="M13.4221 10.2451H0.631836V14.3606L13.4221 12.5656V10.2451Z" fill="#DCDCDC"/>
<path d="M32.8698 16.1118L25.7739 21.4971C25.3358 20.5776 24.8102 19.6582 24.1094 18.7826L31.9061 14.667C32.2566 15.1486 32.5632 15.6302 32.8698 16.1118Z" fill="#2B787B"/>
<path d="M29.6721 12.5213L21.6125 16.3304C20.4736 15.4109 19.1158 14.6229 17.4951 13.9223L27.1316 11.1641C27.92 11.4268 28.796 11.9084 29.6721 12.5213Z" fill="#2B787B"/>
<path d="M26.7812 30.5168C27.1316 28.8093 27.2193 26.8829 26.8688 24.9564L33.9648 18.8268C33.7458 17.9512 33.3954 17.1194 33.0012 16.375C33.8334 17.8637 34.4028 19.5711 34.359 21.41L26.7812 30.5168Z" fill="#2B787B"/>
<path d="M0.708008 49.9577V56.1567H1.7779V49.9577H0.708008ZM2.70632 56.1567C3.33706 56.1567 3.89116 56.0298 4.36864 55.7759C4.84611 55.5161 5.21748 55.156 5.48274 54.6955C5.7539 54.2291 5.88948 53.683 5.88948 53.0572C5.88948 52.4314 5.7539 51.8882 5.48274 51.4277C5.21748 50.9613 4.84611 50.6012 4.36864 50.3473C3.89116 50.0876 3.33706 49.9577 2.70632 49.9577H1.35348V50.9407H2.6798C2.98632 50.9407 3.26927 50.9849 3.52864 51.0735C3.78801 51.1621 4.01201 51.2949 4.20064 51.472C4.39516 51.6491 4.54548 51.8705 4.65159 52.1362C4.76359 52.4019 4.81959 52.7089 4.81959 53.0572C4.81959 53.4055 4.76359 53.7125 4.65159 53.9782C4.54548 54.2439 4.39516 54.4652 4.20064 54.6424C4.01201 54.8136 3.78801 54.9464 3.52864 55.0409C3.26927 55.1294 2.98632 55.1737 2.6798 55.1737H1.35348V56.1567H2.70632ZM7.825 54.5627H11.0966L10.902 53.6771H8.02836L7.825 54.5627ZM9.4431 51.7111L10.4334 54.0136L10.4511 54.2704L11.2911 56.1567H12.4759L9.4431 49.6123L6.41911 56.1567H7.5951L8.45279 54.2173L8.47047 53.987L9.4431 51.7111ZM16.4117 49.9577L14.9705 52.6055L13.538 49.9577H12.3444L14.4488 53.5531V56.1567H15.5098V53.5443L17.6054 49.9577H16.4117ZM21.8531 49.9577V56.1567H22.923V49.9577H21.8531ZM23.8514 56.1567C24.4821 56.1567 25.0362 56.0298 25.5137 55.7759C25.9912 55.5161 26.3625 55.156 26.6278 54.6955C26.899 54.2291 27.0345 53.683 27.0345 53.0572C27.0345 52.4314 26.899 51.8882 26.6278 51.4277C26.3625 50.9613 25.9912 50.6012 25.5137 50.3473C25.0362 50.0876 24.4821 49.9577 23.8514 49.9577H22.4985V50.9407H23.8249C24.1314 50.9407 24.4143 50.9849 24.6737 51.0735C24.9331 51.1621 25.1571 51.2949 25.3457 51.472C25.5402 51.6491 25.6905 51.8705 25.7966 52.1362C25.9086 52.4019 25.9646 52.7089 25.9646 53.0572C25.9646 53.4055 25.9086 53.7125 25.7966 53.9782C25.6905 54.2439 25.5402 54.4652 25.3457 54.6424C25.1571 54.8136 24.9331 54.9464 24.6737 55.0409C24.4143 55.1294 24.1314 55.1737 23.8249 55.1737H22.4985V56.1567H23.8514ZM29.7771 53.1989L31.7401 56.1567H33.0045L30.9001 53.1989H29.7771ZM28.495 49.9577V56.1567H29.5384V49.9577H28.495ZM29.114 50.861H30.3607C30.6024 50.861 30.8117 50.9023 30.9885 50.9849C31.1653 51.0676 31.3039 51.1857 31.4041 51.3392C31.5043 51.4927 31.5544 51.6816 31.5544 51.9059C31.5544 52.1244 31.5043 52.3133 31.4041 52.4727C31.3039 52.6262 31.1653 52.7443 30.9885 52.8269C30.8117 52.9037 30.6024 52.9421 30.3607 52.9421H29.114V53.8099H30.4049C30.8588 53.8099 31.2508 53.7302 31.5809 53.5708C31.911 53.4114 32.1674 53.1871 32.3502 52.8978C32.5388 52.6085 32.6331 52.269 32.6331 51.8794C32.6331 51.4897 32.5388 51.1532 32.3502 50.8698C32.1674 50.5805 31.911 50.3562 31.5809 50.1968C31.2508 50.0374 30.8588 49.9577 30.4049 49.9577H29.114V50.861ZM34.1957 49.9577V56.1567H35.2568V49.9577H34.1957ZM39.4337 54.3147L37.6122 49.9577H36.4097L39.4337 56.5021L42.4665 49.9577H41.2552L39.4337 54.3147ZM44.2653 56.1567H47.3866V55.2357H44.2653V56.1567ZM44.2653 50.8787H47.3866V49.9577H44.2653V50.8787ZM44.2653 53.2874H47.2098V52.3841H44.2653V53.2874ZM43.6199 49.9577V56.1567H44.6455V49.9577H43.6199Z" fill="white"/>
</svg>
